<svg width="79" height="32" version="1.1" viewBox="0 0 79 32" xmlns="http://www.w3.org/2000/svg"><path d="m14.168 5.4665e-4c-0.17806-0.00598-0.36616 0.036635-0.5596 0.15093-0.5064 0.3001-1.3317 1.1349-2.3352 2.3541-0.06565 0.084405-0.1406 0.16873-0.20625 0.25314-0.26259 0.32823-0.53465 0.6847-0.816 1.0598-0.31886 0.42202-0.63755 0.87205-0.9752 1.3503-0.30948 0.44077-0.619 0.8911-0.9285 1.3693-0.26259 0.40326-0.5252 0.8158-0.7878 1.2472-0.00854 0.017065-0.01711 0.02701-0.025645 0.04268l-0.00255-0.00513c-0.018755 0.028135-0.037475 0.06565-0.056235 0.09378-0.28134 0.45015-0.5532 0.91915-0.82515 1.388-0.27197 0.47829-0.5441 0.96595-0.80665 1.4536-0.22507 0.41264-0.44063 0.8345-0.64695 1.2565-0.04689 0.084405-0.084475 0.16892-0.12199 0.25332-0.26259 0.53455-0.49704 1.0503-0.70335 1.5474-0.24383 0.5627-0.45022 1.0972-0.6378 1.6036-0.12191 0.33762-0.23442 0.65655-0.33758 0.96605-0.084405 0.26259-0.15943 0.53455-0.23445 0.79715-0.17818 0.61895-0.32827 1.2471-0.45957 1.8661l0.01099 0.02198c-0.01939 0.03111-0.021405 0.05527-0.029675 0.0718-0.15005 0.75965-0.25328 1.51-0.30955 2.2603 0 0.02815 3.65e-5 0.05616-0.00934 0.07492-0.37513-0.6002-1.3692-1.1817-1.3692-1.1723 0.71275 1.041 1.2567 2.0633 1.3411 3.0761-0.3845 0.075024-0.90985-0.0376-1.51-0.25332 0.62835 0.58145 1.1067 0.7409 1.2942 0.7878-0.58145 0.0375-1.1816 0.4314-1.7912 0.89095 0.89095-0.36575 1.613-0.50635 2.1288-0.39381-0.8159 2.3164-1.6411 4.8673-2.457 7.587 0.25321-0.075025 0.40319-0.24384 0.48759-0.46891 0.15005-0.48766 1.1159-3.7138 2.6352-7.953 0.04689-0.12192 0.08444-0.24387 0.13133-0.36578 0.00938-0.0375 0.02817-0.06561 0.03755-0.10312 0.15943-0.44078 0.32831-0.9003 0.49712-1.3598 0.037515-0.10316 0.074915-0.20636 0.1218-0.3189v-0.0093l-0.010625-0.02125c0.15678-0.41529 0.31353-0.83925 0.47953-1.2635 0.04689-0.11254 0.09378-0.23453 0.14067-0.35644 0.20632-0.53455 0.42209-1.0785 0.6378-1.6318 0.20632-0.5252 0.42205-1.0504 0.64715-1.5849 0.22509-0.53455 0.45008-1.0597 0.67515-1.5943 0.23445-0.54395 0.47821-1.0877 0.72205-1.6223 0.24383-0.53455 0.4877-1.0597 0.7409-1.5849 0.09378-0.18756 0.17822-0.37513 0.272-0.5627 0.15943-0.32824 0.31882-0.64715 0.47825-0.96605 0.00938-0.01875 0.01883-0.03751 0.02821-0.04689 0.25321-0.51585 0.50635-1.0129 0.76895-1.5005 0.28134-0.5158 0.5627-1.0315 0.84405-1.5192 0.3001-0.5158 0.5908-1.0129 0.90025-1.4911l0.05641-0.08444c0.3001-0.46891 0.60015-0.92845 0.90025-1.3598 0.6377-0.91905 1.2941-1.7443 1.9505-2.4476-0.21517 0.23388-0.85995 0.98165-1.8219 2.4748-0.0051 2.81e-4 -0.01107 8.5e-4 -0.01612 0.0011-0.27197 0.41264-0.56275 0.8815-0.8816 1.416-0.01876 0.028135-0.03752 0.056305-0.04689 0.08444-0.27197 0.45953-0.5626 0.9659-0.8627 1.5192-0.26258 0.47829-0.53464 0.98475-0.82534 1.538-0.2408 0.47234-0.4999 0.9725-0.75925 1.5087l-0.00971 0.0011c0 0.02814-0.00934 0.03751-0.00934 0.04689-0.037515 0.06565-0.06561 0.14074-0.10312 0.21577l-0.30955 0.64715c-0.11254 0.24383-0.225 0.4877-0.34692 0.7409-0.05627 0.12192-0.12195 0.25318-0.17822 0.38447-0.17818 0.3845-0.35644 0.78765-0.544 1.2003-0.22507 0.5064-0.45004 1.0316-0.6845 1.5849-0.22507 0.5252-0.45026 1.0598-0.67535 1.6225-0.2157 0.53455-0.4314 1.0785-0.65645 1.6412-0.19694 0.5064-0.39392 1.0222-0.60025 1.5474-0.00938 0.02814-0.018645 0.04678-0.028025 0.07492-0.19694 0.5252-0.4033 1.0692-0.60025 1.6225 0 0.0063-0.00345 0.0159-0.00623 0.0249l-0.03132 0.0035c-0.00938 0.08441-0.04678 0.16877-0.074915 0.2438-0.15943 0.4314-0.319 0.87215-0.47843 1.3223 0 0.0094 3.65e-5 0.0093-0.00934 0.0187-0.018755 0.06565-0.046815 0.1313-0.065575 0.18756-0.10316 0.3001-0.19698 0.57215-0.41267 1.2005 0.34699 0.15943 0.6283 0.5815 0.90025 1.0598-0.028135-0.49704-0.23442-0.9567-0.6189-1.3225 1.7256 0.07502 3.2167-0.35626 3.9857-1.6223 0.06565-0.11254 0.13129-0.23452 0.18756-0.35644-0.34699 0.44078-0.78775 0.6284-1.6036 0.5909 1.2004-0.53455 1.8006-1.0504 2.3352-1.9132 0.12191-0.20632 0.25321-0.42198 0.37513-0.6658-1.0503 1.0785-2.2695 1.3878-3.5544 1.1534l-0.01722 2e-3c-0.00365-5e-4 -0.00733-2e-3 -0.01099-2e-3 1.1535-0.14067 2.6821-1.0034 3.6668-2.0632 0.45953-0.48766 0.87225-1.0691 1.2473-1.7443 0.28134-0.5064 0.5533-1.0597 0.8065-1.6787 0.22508-0.54395 0.43147-1.1253 0.6378-1.7536-0.26259 0.14068-0.56265 0.2439-0.90025 0.30956-0.05627 0.0094-0.12196 0.02799-0.17822 0.03736-0.05627 0.0094-0.12192 0.01883-0.18756 0.02821 1.0691-0.41264 1.7537-1.2098 2.2414-2.1852-0.28134 0.19694-0.74095 0.44078-1.2942 0.5627-0.07503 0.01875-0.15009 0.02817-0.22512 0.03755-0.01875 0-0.03747 0.0093-0.05623 0.0093 0.37513-0.15943 0.68455-0.32816 0.9565-0.5345l0.16888-0.14067c0.0844-0.07503 0.15943-0.15009 0.23446-0.22511 0.04689-0.04689 0.09378-0.10309 0.14068-0.15936 0.10316-0.1313 0.20625-0.26262 0.30003-0.41268l0.08444-0.14068c0.03751-0.06565 0.06561-0.1406 0.10312-0.20625 0.15005-0.3001 0.272-0.5722 0.36578-0.80665 0.04689-0.12192 0.09385-0.22508 0.12199-0.32823 0.01876-0.03752 0.02817-0.07492 0.03755-0.1218 0.03752-0.11254 0.06565-0.21581 0.09378-0.30021 0.03751-0.13129 0.05616-0.23434 0.07491-0.30937-0.03751 0.028135-0.07491 0.056305-0.1218 0.08444-0.32824 0.19694-0.88165 0.36564-1.3318 0.45004h-0.01869c-0.02912 0.00582-0.05739 0.01089-0.08426 0.01447 0.8604-0.39781 1.2515-0.76145 1.6316-1.2898 0.10316-0.15005 0.20621-0.30014 0.30937-0.45957 0.30948-0.48766 0.61895-1.0222 0.89095-1.5474 0.26259-0.5158 0.49716-1.0221 0.67535-1.4816 0.11254-0.29072 0.20621-0.5627 0.26248-0.79715 0.05627-0.20632 0.09382-0.41268 0.13133-0.60025 0.347-1.96-0.34692-2.8603-0.34692-2.8603s-0.58205-0.941-1.3536-0.96695zm4.936 5.3185v0.21559h0.62845v1.7163h0.22493v-1.7163h0.62845v-0.21559zm2.551 0v1.9318h0.22493v-0.8534h1.1629v0.8534h0.22512v-1.9318h-0.22512v0.87205h-1.1629v-0.87205zm2.9259 0.00934v1.9318h1.3505v-0.20625h-1.1254v-0.666h0.97535v-0.21559h-0.97535v-0.62845h1.0878v-0.21559zm26.746 4.0702c-3.3292 0-5.2425 2.8509-5.2425 5.505 0 2.7947 2.1382 5.6925 5.1675 5.6925 1.6974 0 3.6574-0.9189 4.3702-2.5695l-0.90025-0.46891c-0.694 1.4348-2.157 2.0537-3.4043 2.0537-2.3445 0-4.1357-2.2132-4.1357-4.6515 0-2.2226 1.4442-4.586 4.0888-4.586 1.191 0 2.5603 0.49708 3.2637 1.9601l0.87205-0.52515c-0.6846-1.4161-2.1194-2.4101-4.0795-2.4101zm25.387 0.05623v0.18756h0.272v0.7783h0.21559v-0.7783h0.28134v-0.18756zm0.91895 0v0.96585h0.21578v-0.6096l0.26266 0.52535h0.13115l0.26266-0.52535v0.6096h0.21577v-0.96585h-0.29087l-0.25314 0.5345-0.25314-0.5345zm-55.595 0.00934-4.6235 11.047h1.1536l1.416-3.4512h4.9704l1.4349 3.4512h1.1627l-4.6233-11.047zm6.696 0v11.047h1.0785v-4.0795h3.5917c1.8944 0 3.1699-1.6975 3.1699-3.4981 0-1.7162-1.3693-3.4699-3.2637-3.4699zm11.863 0-4.6235 11.047h1.144l1.4162-3.4512h4.9609l1.4349 3.4512h1.1816l-4.6233-11.047zm16.552 0v11.047h1.0689v-5.1675h6.546v5.1675h1.0878v-11.047h-1.0878v4.9142h-6.546v-4.9142zm11.197 0v11.047h7.4185v-0.96605h-6.349v-4.2108h5.4115v-0.91895h-5.4115v-3.9857h6.2085v-0.96605zm-38.535 0.96605h3.4417c1.2191 0 2.2414 1.1159 2.2414 2.5039 0 1.3317-0.84405 2.5321-2.1476 2.5321h-3.5355zm-7.3245 0.30937 2.2134 5.458h-4.4828zm18.559 0 2.2132 5.458h-4.4826zm-17.124 12.041v2.3352h0.272v-0.99405h1.0878v-0.25332h-1.0878v-0.8347h1.2098v-0.25314zm21.71 0v2.3352h0.26266v-0.99405h1.0878v-0.25332h-1.0878v-0.8347h1.2191v-0.25314zm-24.336 0.0093c-0.22508 0-0.43136 0.05638-0.6189 0.15954-0.18754 0.10316-0.32834 0.24383-0.44088 0.42202-0.10316 0.17818-0.15936 0.37501-0.15936 0.5907s0.04682 0.41272 0.15936 0.5909c0.10316 0.18756 0.25332 0.3282 0.44088 0.43136 0.18756 0.10316 0.39385 0.15936 0.6189 0.15936 0.2157 0 0.42202-0.05619 0.6096-0.15936 0.18756-0.11254 0.32816-0.25318 0.4407-0.43136 0.10316-0.17818 0.15954-0.3752 0.15954-0.5909s-0.047-0.41253-0.15954-0.5907c-0.10316-0.17819-0.25314-0.31886-0.4407-0.42202-0.18756-0.10316-0.39388-0.15954-0.6096-0.15954zm8.1685 0 0.77845 2.3352h0.272l0.6376-1.9601 0.62845 1.9601v0.0093h0.26248l0.77845-2.3352h-0.272l-0.62825 2.0258-0.6378-2.0258h-0.26266l-0.62825 2.0163-0.6378-2.0256zm11.094 0v2.3352h1.6223v-0.25314h-1.3598v-0.79715h1.1723v-0.25332h-1.1723v-0.7783h1.3225v-0.25332zm8.8905 0c-0.22508 0-0.43136 0.05638-0.6189 0.15954-0.18756 0.10316-0.32816 0.24383-0.4407 0.42202-0.10316 0.17818-0.15954 0.37501-0.15954 0.5907s0.047 0.41272 0.15954 0.5909c0.10316 0.18756 0.25314 0.3282 0.4407 0.43136 0.18756 0.10316 0.39384 0.15936 0.6189 0.15936 0.2157 0 0.42202-0.05619 0.6096-0.15936 0.18756-0.11254 0.32835-0.25318 0.44088-0.43136 0.10316-0.17818 0.15936-0.3752 0.15936-0.5909s-0.0468-0.41253-0.15936-0.5907c-0.10316-0.17819-0.25332-0.31886-0.44088-0.42202-0.17818-0.10316-0.3845-0.15954-0.6096-0.15954zm6.1055 0v2.3352h0.26248v-1.8756l1.3974 1.8756h0.272v-2.3352h-0.26266v1.8756l-1.3974-1.8756zm3.5261 0v2.3352h0.9378c0.22508 0 0.43136-0.04685 0.6189-0.15002 0.17819-0.10316 0.3282-0.24384 0.43136-0.42202 0.10316-0.17818 0.15953-0.3752 0.15953-0.5909s-0.05638-0.41253-0.15953-0.5907c-0.10316-0.17817-0.25318-0.31886-0.43136-0.42202-0.17818-0.10316-0.3845-0.15016-0.6096-0.15954zm9.275 0v2.3352h0.26248v-2.3352zm2.9166 0c-0.22508 0-0.43136 0.05638-0.6189 0.15954s-0.32834 0.24383-0.44088 0.42202c-0.10316 0.17818-0.15936 0.37501-0.15936 0.5907s0.0468 0.41272 0.15936 0.5909c0.10316 0.18756 0.25332 0.3282 0.44088 0.43136s0.39385 0.15936 0.6189 0.15936c0.2157 0 0.42202-0.05619 0.6096-0.15936 0.18756-0.11254 0.32816-0.25318 0.4407-0.43136 0.10316-0.17818 0.15954-0.3752 0.15954-0.5909s-0.047-0.41253-0.15954-0.5907c-0.10316-0.17819-0.25313-0.31886-0.4407-0.42202s-0.39388-0.15954-0.6096-0.15954zm2.6259 0v2.3352h0.26248v-1.8756l1.3974 1.8756h0.272v-2.3351h-0.26266v1.8756l-1.3972-1.8756zm-55.74 0.0075c-0.03018-1e-3 -0.05961-4.65e-4 -0.08774 2e-3 -0.15943 0-0.3001 0.0282-0.42202 0.0751-0.12192 0.05627-0.2157 0.12199-0.28134 0.21577-0.06565 0.09379-0.10312 0.1968-0.10312 0.31871 0 0.14067 0.03748 0.25336 0.10312 0.33776 0.07503 0.09378 0.15954 0.15002 0.25332 0.1969 0.10316 0.0375 0.22504 0.08444 0.38447 0.13133 0.1313 0.0375 0.23434 0.07499 0.30937 0.10312 0.07503 0.02815 0.14068 0.07506 0.18756 0.13133s0.0751 0.13119 0.0751 0.21559c0 0.11254-0.05623 0.19702-0.15002 0.26266-0.10316 0.06564-0.23453 0.09378-0.40334 0.09378-0.1313 0-0.26248-0.02815-0.40315-0.08444-0.14068-0.05627-0.26262-0.14064-0.36578-0.2438l-0.12199 0.23446c0.11254 0.11254 0.2439 0.19683 0.40334 0.26248 0.15943 0.06564 0.31878 0.09378 0.48759 0.09378s0.30959-0.028 0.44088-0.08426c0.1313-0.05627 0.23438-0.13134 0.30003-0.22512 0.06564-0.09378 0.10312-0.20628 0.10312-0.33758 0-0.15005-0.03748-0.2627-0.10312-0.3471-0.07502-0.08441-0.15935-0.15002-0.25314-0.1969-0.09378-0.0375-0.22522-0.09379-0.38465-0.14068-0.1313-0.0375-0.23434-0.07499-0.30937-0.10312-0.07503-0.0375-0.14067-0.07506-0.18756-0.13133s-0.0751-0.12184-0.0751-0.20625c0-0.09378 0.03755-0.16884 0.13133-0.22511 0.0844-0.05627 0.20639-0.08444 0.35644-0.08444 0.09378 0 0.20618 0.01875 0.31871 0.0469 0.11254 0.0375 0.21574 0.08436 0.3189 0.15002l0.11265-0.25314c-0.10316-0.06564-0.21581-0.12202-0.3471-0.15954-0.09847-0.02815-0.19683-0.04565-0.28739-0.0487zm8.39 2e-3v0.25332h0.7596v2.0725h0.26266v-2.0725h0.7596v-0.25332zm8.112 0-1.0409 2.3352h0.28135l0.26248-0.5907h1.2567l0.26266 0.5907h0.29069l-1.0409-2.3351zm2.5977 0v2.3352h0.26266v-0.7409h0.6189c0.0375 0 0.0939-0.0094 0.15954-0.0094l0.4876 0.75025h0.30003l-0.5438-0.7878c0.1688-0.05626 0.29068-0.15005 0.38447-0.28134 0.0844-0.1313 0.13133-0.29068 0.13133-0.47825 0-0.25321-0.08437-0.4407-0.24379-0.5814-0.15943-0.14068-0.38462-0.20643-0.67535-0.20643zm14.78 0v1.3693c0 0.3001 0.08429 0.5439 0.26248 0.7127 0.17818 0.1688 0.41275 0.25314 0.72225 0.25314 0.3001 0 0.5439-0.08433 0.7127-0.25314 0.16881-0.16881 0.25314-0.40323 0.25314-0.7127v-1.3693h-0.26248v1.3693c0 0.22508-0.06565 0.40322-0.18756 0.52515-0.1313 0.12192-0.30025 0.18756-0.5253 0.18756-0.22505 0-0.39385-0.06565-0.52515-0.18756-0.12192-0.12192-0.18756-0.30006-0.18756-0.52515v-1.3693zm11.197 0-1.0409 2.3352h0.28135l0.26266-0.5907h1.2567l0.26248 0.5907h0.29069l-1.0409-2.3352zm2.0538 0v0.25332h0.7596v2.0725h0.26266v-2.0725h0.76895v-0.25332zm-5.927 0.24398h0.6658c0.1688 0 0.32823 0.0374 0.46891 0.12181 0.14067 0.08441 0.25318 0.18756 0.33758 0.32823 0.0844 0.1313 0.12198 0.29076 0.12198 0.45957 0 0.17818-0.0376 0.32824-0.12198 0.46891-0.0844 0.14068-0.19691 0.25321-0.33758 0.32824-0.14068 0.08441-0.3001 0.12199-0.46891 0.12199h-0.6658zm-38.066 0.0094c0.16881 0 0.32824 0.0374 0.46891 0.1218 0.15005 0.07502 0.26252 0.18756 0.34692 0.32824 0.08441 0.14067 0.13133 0.29076 0.13133 0.45956 0 0.16881-0.04693 0.32824-0.13133 0.46891-0.08441 0.14068-0.20625 0.25318-0.34692 0.33758-0.14067 0.08441-0.3001 0.12199-0.46891 0.12199-0.17818 0-0.33758-0.0376-0.47825-0.12199-0.14067-0.08441-0.2627-0.1969-0.3471-0.33758-0.08441-0.14067-0.13115-0.3001-0.13115-0.46891 0-0.1688 0.04674-0.3189 0.13115-0.45956 0.08441-0.14067 0.20643-0.25317 0.3471-0.33758 0.15005-0.08441 0.30944-0.12184 0.47825-0.11246zm28.163 0c0.1688 0 0.32824 0.0374 0.46891 0.1218 0.15005 0.07502 0.26251 0.18756 0.34692 0.32824 0.0844 0.14067 0.13133 0.29076 0.13133 0.45956 0 0.16881-0.04695 0.32824-0.13133 0.46891-0.08441 0.14068-0.20625 0.25318-0.34692 0.33758-0.14068 0.08441-0.3001 0.12199-0.46891 0.12199-0.17819 0-0.33776-0.0376-0.47843-0.12199-0.14068-0.08441-0.26252-0.1969-0.34692-0.33758-0.08441-0.14067-0.13134-0.3001-0.13134-0.46891 0-0.1688 0.04695-0.3189 0.13134-0.45956 0.0844-0.14067 0.20624-0.25317 0.34692-0.33758 0.14067-0.08441 0.30024-0.12184 0.47843-0.11246zm21.813 0c0.16881 0 0.32823 0.0374 0.46891 0.1218 0.15005 0.07502 0.26252 0.18756 0.34692 0.32824 0.08441 0.14067 0.13133 0.29076 0.13133 0.45956 0 0.16881-0.04695 0.32824-0.13133 0.46891-0.0844 0.14068-0.20624 0.25318-0.34692 0.33758-0.14068 0.08441-0.3001 0.12199-0.46891 0.12199-0.17818 0-0.33758-0.0376-0.47825-0.12199-0.14068-0.08441-0.2627-0.1969-0.3471-0.33758-0.08441-0.14067-0.13133-0.3001-0.13133-0.46891 0-0.1688 0.04695-0.3189 0.13133-0.45956 0.08441-0.14067 0.20643-0.25317 0.3471-0.33758 0.14067-0.08441 0.30006-0.12184 0.47825-0.11246zm-33.743 0.0094h0.6189c0.20632 0 0.37524 0.03755 0.48778 0.13133 0.11254 0.08441 0.1687 0.21562 0.1687 0.39381 0 0.17818-0.05616 0.3189-0.1687 0.41268s-0.28146 0.14068-0.48778 0.14068h-0.6189zm-2.729 0.03755 0.52515 1.1816h-1.0409zm28.575 0 0.5253 1.1816h-1.0411z" stroke-width=".5"/></svg>
