<svg width="137" height="32" version="1.1" viewBox="0 0 137 32" xmlns="http://www.w3.org/2000/svg"><path d="m81.094 0v3.745h2.9576v-3.745zm-6.6771 0.14162v25.011h2.9582v-25.011zm-59.546 1.0367c-8.2123 0-14.871 6.6365-14.871 14.822 0 8.1862 6.658 14.822 14.871 14.822 0.18389 0 0.36621-7e-3 0.54836-0.0136-7.3193-1.0946-12.945-7.3184-12.945-14.809 0-7.4901 5.6257-13.714 12.944-14.808-0.18157-7e-3 -0.36392-0.0142-0.54723-0.0142zm2.6234 0.62371c-3.9162 0-7.2653 1.3831-10.05 4.1485-1.7475 1.7594-2.9413 3.7453-3.5841 5.9572h27.266c-0.64738-2.2119-1.8494-4.1978-3.6084-5.9572-2.2069-2.2066-4.7822-3.5313-7.7224-3.9768-0.74367-0.11283-1.5096-0.17165-2.3005-0.17165zm94.427 4.9131c-2.2072 0-3.9107 0.4616-5.1109 1.3834-1.2005 0.92118-1.8003 2.2277-1.8003 3.9214 0 1.3937 0.40662 2.4892 1.2214 3.2874 0.81415 0.7982 2.1381 1.3902 3.9701 1.7759l1.0282 0.24076c1.8328 0.39707 3.0199 0.80911 3.5614 1.2378 0.54065 0.42898 0.81065 1.0453 0.81065 1.849 0 0.86782-0.37416 1.5399-1.1245 2.0173-0.75064 0.47712-1.8215 0.71548-3.2148 0.71548-1.0395 0-2.0899-0.14205-3.1508-0.42602-1.061-0.28424-2.137-0.70921-3.2308-1.278v3.0539c1.1581 0.37502 2.2582 0.65671 3.3033 0.84408 1.0456 0.18708 2.0508 0.28098 3.015 0.28098 2.3143 0 4.1328-0.48843 5.456-1.4627 1.3243-0.97542 1.9867-2.2979 1.9867-3.9701 0-1.4673-0.44238-2.6116-1.3267-3.4312-0.88406-0.82024-2.3768-1.4547-4.4771-1.9051l-1.0118-0.22433c-1.5868-0.35415-2.6417-0.72671-3.1667-1.1177-0.52585-0.39127-0.78741-0.92971-0.78741-1.6151 0-0.90001 0.36603-1.5751 1.1001-2.0252 0.73468-0.45044 1.8356-0.67526 3.3039-0.67526 0.96469 0 1.8965 0.10715 2.7968 0.3212 0.9003 0.21463 1.7682 0.53548 2.6047 0.96416v-2.7968c-0.81473-0.32166-1.704-0.56268-2.6693-0.72453-0.96498-0.16068-1.9936-0.24076-3.0869-0.24076zm-45.369 5.6e-4c-2.8068 0-5.0175 0.84177-6.6301 2.5237-1.6129 1.6828-2.4189 3.9922-2.4189 6.9277 0 2.8935 0.79814 5.1924 2.3951 6.8958 1.5964 1.7037 3.75 2.5554 6.4613 2.5554 0.99717 0 1.9365-0.0963 2.8211-0.28947 0.88377-0.19259 1.7385-0.48154 2.5639-0.86729v-2.7328c-0.8362 0.46117-1.675 0.80667-2.5152 1.0372-0.84142 0.22972-1.6907 0.34443-2.5481 0.34443-1.9184 0-3.408-0.60738-4.4684-1.8241-1.061-1.2159-1.5913-2.9228-1.5913-5.1193 0-2.1962 0.53029-3.9031 1.5913-5.1193 1.0604-1.2162 2.5501-1.8241 4.4684-1.8241 0.85737 0 1.7067 0.11498 2.5481 0.34556 0.84113 0.23058 1.679 0.57553 2.5152 1.0361v-2.7639c-0.81474-0.37503-1.6559-0.65643-2.5237-0.84351-0.86839-0.18737-1.7574-0.28212-2.6688-0.28212zm29.837 0c-1.3182 0-2.4508 0.26061-3.3996 0.7795-0.94786 0.51976-1.7333 1.3161-2.3555 2.3872v-2.7333h-2.9735v24.851h2.9735v-9.5482c0.62127 1.072 1.4067 1.8683 2.3555 2.3872 0.94874 0.52004 2.0813 0.77949 3.3996 0.77949 2.1861 0 3.9626-0.86854 5.3284-2.6042 1.3664-1.7353 2.049-4.0174 2.049-6.8471 0-2.8285-0.68259-5.1109-2.049-6.8471-1.3658-1.7368-3.1423-2.6042-5.3284-2.6042zm-47.846 2e-3c-2.7 0-4.8464 0.86555-6.4375 2.5962-1.5912 1.7301-2.3866 4.069-2.3866 7.0159 0 2.8506 0.83875 5.1109 2.5158 6.7827 1.677 1.6721 3.9516 2.5073 6.8233 2.5073 1.1466 0 2.2764-0.11797 3.3909-0.3535 1.1146-0.23639 2.2026-0.57887 3.2636-1.0293v-2.7973c-1.0508 0.55746-2.1084 0.97605-3.1745 1.2542-1.0668 0.27815-2.168 0.41694-3.3039 0.41694-1.9607 0-3.4898-0.53244-4.5885-1.5992-1.0984-1.0659-1.7123-2.617-1.8405-4.6538h13.599v-1.4457c0-2.6791-0.70455-4.7985-2.1142-6.356-1.409-1.559-3.3245-2.3385-5.7464-2.3385zm79.878 0c-2.6994 0-4.8464 0.86526-6.4375 2.5962-1.5909 1.7301-2.3866 4.069-2.3866 7.0159 0 2.8506 0.83817 5.1109 2.5158 6.7827 1.6765 1.6721 3.9504 2.5073 6.8227 2.5073 1.146 0 2.277-0.11797 3.3909-0.3535 1.1146-0.23639 2.2023-0.57887 3.2636-1.0293v-2.7973c-1.0508 0.55746-2.1084 0.97605-3.1751 1.2542-1.0665 0.27815-2.1668 0.41694-3.3033 0.41694-1.9601 0-3.4907-0.53244-4.5885-1.5992-1.099-1.0659-1.7126-2.617-1.8411-4.6538h13.599v-1.4457c-1e-5 -2.6791-0.70458-4.7985-2.113-6.356-1.409-1.559-3.3251-2.3385-5.7464-2.3385zm-47.327 0.43168v18.003h2.9576v-18.003zm14.569 2.0428c1.5651 0 2.7948 0.61849 3.6896 1.8558 0.89488 1.2373 1.342 2.9439 1.342 5.1193-1e-5 2.1759-0.44725 3.8825-1.342 5.1193-0.89478 1.2376-2.1245 1.8564-3.6896 1.8564-1.5652 0-2.7948-0.61791-3.6891-1.8564-0.89479-1.2367-1.3426-2.9434-1.3426-5.1193 0-2.1753 0.4478-3.8811 1.3426-5.1193 0.89421-1.2373 2.1239-1.8558 3.6891-1.8558zm-47.089 0.0323c1.4572 0 2.6273 0.48156 3.5116 1.4462 0.88376 0.96411 1.3367 2.2558 1.3584 3.8735l-10.545 0.0159c0.14996-1.6927 0.72056-3.0057 1.7119-3.9376 0.99108-0.9325 2.3123-1.3981 3.9626-1.3981zm79.878 0c1.456 0 2.6268 0.48156 3.511 1.4462 0.88463 0.96411 1.337 2.2558 1.359 3.8735l-10.544 0.0159c0.14908-1.6927 0.72059-3.0057 1.712-3.9376 0.99079-0.9325 2.312-1.3981 3.962-1.3981zm-124.95 4.2721c-0.09281 0.55746-0.15596 1.1267-0.18468 1.7102h28.354c-0.029-0.58357-0.0921-1.1528-0.18581-1.7102h-27.983zm-0.18468 3.2981c0.02871 0.58386 0.09157 1.1531 0.18468 1.7102h27.983c0.0934-0.55717 0.15737-1.1264 0.18638-1.7102h-28.355zm0.54325 3.2981c0.64303 2.2058 1.8361 4.183 3.5832 5.93 2.785 2.7856 6.1339 4.1755 10.05 4.1755 0.78283 0 1.5411-0.0583 2.2779-0.16938 2.9497-0.44522 5.5323-1.7784 7.745-4.0061 1.7582-1.7464 2.9599-3.7242 3.6079-5.93h-27.264z"/></svg>
