<svg width="120" height="32" version="1.1" viewBox="0 0 120 32" xmlns="http://www.w3.org/2000/svg"><path d="m12.346 0.0035479c-0.5071 0.0129-1.0061 0.06355-1.4881 0.1517-5.7945 1.0596-9.8715 6.0715-10.216 9.374-0.1694 1.6204 0.7042 2.8339 1.186 3.3692 1.3022 1.4468 3.8975 2.5515 5.566 3.4671-2.4125 2.057-3.5194 3.0607-4.6091 4.205-1.6306 1.7122-2.7782 3.597-2.7817 4.947-0.001235 0.43482-0.070515 1.8209 0.49511 2.9155 0.21271 0.41162 0.8168 1.7849 2.6397 2.8134 1.1651 0.6574 2.8255 0.8994 4.4505 0.6675 5.029-0.71775 11.764-4.9824 16.57-8.955 3.0632-2.5316 5.303-4.9858 5.9495-6.1935 0.52185-0.97465 0.5799-2.7231 0.27721-3.8202-0.85995-3.1168-7.85-9.4995-13.565-12.069-1.3663-0.61425-2.9526-0.91175-4.4739-0.873zm0.49235 0.088265c1.4545 0.02725 2.8853 0.38533 4.1471 1.0054 4.6159 2.2683 12.412 8.642 12.987 11.848 0.71125 3.9625-13.243 14.69-21.732 16.365-3.2933 0.6465-6.1015 0.8233-7.3825-2.6548-1.1106-3.0151 1.0441-5.221 4.2146-8.119 1.3165-1.2033 2.3663-2.1019 3.9457-3.4354 0.09085-0.09085-7.608-2.7449-7.854-5.791-0.25321-3.131 4.704-8.9105 11.051-9.21 0.20837-0.0098 0.41558-0.01215 0.62335-0.00825zm-0.24135 0.6923c-0.28969-4e-3 -0.587 0.00905-0.8937 0.0414-3.1169 0.32847-3.7148 0.7295-6.5385 2.8658-0.94635 0.716-2.6871 2.4581-3.1334 4.525-0.16997 0.78715 0.030254 1.4666 0.59715 1.9432 1.8153 1.5261 4.8541 2.764 7.3465 3.9609 0.7301 0.35057 0.2464 0.9874-0.9309 2.0066-2.9708 2.5719-6.9875 5.7015-7.268 8.0875-0.13213 1.1241 0.25326 2.6523 1.6177 3.434 1.5939 0.91315 4.9015 0.31657 7.111-0.50615 3.2286-1.2022 7.4705-3.8558 10.837-6.464 3.5012-2.7122 6.757-6.156 6.918-6.718 0.19774-0.68995 0.1775-1.3278-0.20412-2.0604-0.5993-1.1505-1.4001-2.0054-2.2604-2.9624-2.3082-2.4335-4.7501-4.5717-7.672-6.2105-1.8463-1.0354-3.4983-1.9132-5.526-1.9432zm74.765 2.6259c-0.0182 0-0.01795 0.03695-0.01795 0.05515v18.341c0.49225 0.03645 1.0396-2.9e-4 1.5501 0.01795v-18.414zm3.8464 0c-0.03645 0.6199 0 1.312 0 1.9501h1.6963v-1.9501zm-77.365 1.2522c0.5369-0.0373 1.0386 0.00835 1.426 0.11447 1.8558 0.50825 4.9423 2.7122 4.667 4.7291-0.3614 2.6476-2.6725 3.7212-5.354 3.3485-1.5634-0.21731-4.6904-1.9787-4.4546-5.0255 0.17011-2.1982 2.1047-3.0547 3.7154-3.1665zm51.95 0.8992c-0.49226 0.18232-1.0386 0.41868-1.5308 0.61925v2.8259h-0.8385v1.295h0.8385v8.5865c0 0.9663 6e-5 1.8967 0.32823 2.5348 0.38287 0.6928 1.3677 0.76525 2.3887 0.69235v-1.3488c-0.40109 0.0182-0.8758-0.0175-1.0399-0.291-0.14584-0.25524-0.12688-0.71235-0.12688-1.1681 0-2.99-0.0185-6.1795 0.01795-9.0235h1.1488v-1.295h-1.1667c0-1.1486-1e-3 -2.2968-0.0193-3.4272zm49.427 0.16412c-0.0365 0.09116-0.019 0.23677-0.0372 0.34617h0.47442v4.2298c0.1094 0.03645 0.27372-2.9e-4 0.40134 0.01795 0.0182-1.4038-0.0185-2.8621 0.0179-4.2477h0.47442v-0.34617zm1.768 0c-0.0365 1.495-0.0179 3.0807-0.0179 4.5939h0.34617c0.0182-1.4221-0.0371-2.9165 0.0358-4.2657 0.18232 1.3856 0.31034 2.8436 0.47442 4.2657h0.5475c0.14586-1.2944 0.30957-2.6978 0.43719-4.0105 0.0182-0.07292 1.7e-4 -0.18248 0.0731-0.2372 0.0365 1.3856-2.9e-4 2.8439 0.0179 4.2477 0.0729 0.03645 0.23677 0.01795 0.34616 0.01795v-4.5939h-0.6744c-0.12762 1.0392-0.21885 2.1339-0.32824 3.1913-0.0365 0.3464-0.055 0.6924-0.14619 1.0205-0.14581-1.422-0.30952-2.8077-0.43715-4.2298zm-102.89 1.7143c-0.37982 0.01315-0.6833 0.12203-0.82885 0.34754-0.7443 1.153-0.39964 1.965 0.29238 2.4852 0.05934-0.13683 0.23086-0.21329 0.47304-0.23583 0.10768-0.01005 0.22708-0.0108 0.35444-3e-3 0.85095 0.05381 2.0149 0.48008 2.0121 0.8647 0.02951-0.0135 0.06502-0.0249 0.08688-0.0414 2.3171-1.7439-0.74415-3.4746-2.39-3.4175zm37.772 1.2302c-0.14635-3e-3 -0.29973-5e-4 -0.45925 0.00825-1.258 0.09116-1.8593 0.6567-2.0963 1.8053-0.21878 1.021-0.14619 2.316-0.14619 3.7016v3.8464c0 1.2762 0.03703 2.5892 0.5475 3.3003 0.43756 0.60165 1.2944 0.8391 2.2425 0.80265 0.9298-0.0182 1.6768-0.34737 2.0232-1.0219 0.49225-0.9845 0.36486-2.242 0.40133-3.6823h-1.6053c-0.09116 1.0392 0.20186 2.5163-0.32685 3.1362-0.30994 0.3464-1.0761 0.36463-1.386 0-0.3464-0.4011-0.32823-1.295-0.32823-2.0425v-2.3707h3.6285c0-1.1121-3e-4 -2.3147 0.01795-3.4451 0-1.1668-0.01785-2.2601-0.43719-3.0258-0.35096-0.67-1.0511-0.99135-2.0756-1.0123zm8.29 0c-0.11304-4e-3 -0.23396-2e-3 -0.36271 0.00825-0.8022 0.05472-1.2765 0.56555-1.6412 1.0578-0.01825-0.25525-0.05456-0.49225-0.09102-0.7475h-1.4219v12.835h1.5308v-8.806c0-0.9298-0.09049-2.0965 0.29238-2.6617 0.32818-0.49227 1.2761-0.47433 1.586 0.01795 0.36463 0.5834 0.27307 1.7319 0.27307 2.6617v8.788h1.5322c0-3.0082 2.85e-4 -6.417-0.01795-9.5715 0-1.8288 0.01575-3.5148-1.6798-3.583zm38.523 0c-0.11304-4e-3 -0.23395-2e-3 -0.36271 0.00825-0.8022 0.05472-1.2765 0.56555-1.6412 1.0578-0.0182-0.25525-0.05458-0.5105-0.09103-0.7475h-1.4219v12.835c0.5105-0.0182 1.0761 0.0185 1.5501-0.01795v-9.134c-5e-6 -0.94805-0.07314-2.1702 0.5103-2.5348 0.47402-0.29171 1.1672-0.10872 1.386 0.29237 0.34641 0.60165 0.23583 1.7319 0.23583 2.6617v8.7325h1.5322c0-2.9535 2.9e-4 -6.4365-0.018-9.5905 0-1.8288 0.0158-3.4975-1.6798-3.5637zm-20.104 0.011c-0.13866-3.95e-4 -0.27982 5e-3 -0.42339 0.01655-0.82045 0.07293-1.476 0.34659-1.786 0.9847-0.32817 0.65635-0.40104 1.7137-0.41926 2.6617-0.0182 0.9663 0 2.0418 0 3.081 0 1.021-0.03645 1.9692 0 3.0631 0.03645 1.5679 0.16294 2.8074 1.1474 3.3361 1.021 0.5287 2.6809 0.36457 3.3554-0.32823 0.6928-0.71105 0.71025-2.1885 0.71025-3.6106v-4.2836c0-1.4403 0.0365-2.9903-0.41926-3.8837-0.36691-0.73385-1.1946-1.0343-2.1652-1.0371zm-7.2115 0.00705c-0.21593-0.0122-0.44099-0.00855-0.6689 0.00965-0.76575 0.07293-1.4402 0.32819-1.7501 0.9116-0.38286 0.6381-0.43661 1.6947-0.47305 2.6245-0.05472 1.021 0 1.9882 0 3.1003 0 1.0392-0.0182 1.9689 0 3.081 0.01825 1.0392 0.09108 2.0233 0.41926 2.6797 0.30994 0.6199 0.94795 0.94765 1.7501 1.0205 0.8569 0.09116 1.7138-0.0366 2.2425-0.49235 0.94805-0.83865 0.8013-2.9528 0.8013-4.776v-2.79c0-1.8049 0.16409-3.9563-0.7475-4.8132-0.35551-0.34184-0.9258-0.51905-1.5736-0.5558zm-27.841 0.0015c-0.1242-0.00635-0.25542-3e-3 -0.39443 0.00825-1.5132 0.12762-1.5308 1.7137-1.5308 3.4092v6.071c0 1.021-5.5e-4 2.0418 0.36409 2.6617 0.5287 0.9116 2.1335 0.8934 2.881 0.16412 0.14586-0.14585 0.25548-0.32798 0.40133-0.5103v2.3514c0 0.9298 0.05463 1.9326-0.32823 2.4066-0.32817 0.4011-1.2215 0.40092-1.495-0.0731-0.30994-0.54695-0.18282-1.4576-0.21928-2.2963h-1.6039c-0.01823 1.2397 0.0364 2.2417 0.41926 2.9527 0.41933 0.7475 1.2401 1.0391 2.3887 1.0026 1.1121-0.03645 1.8043-0.43705 2.1142-1.2757 0.30994-0.78395 0.31031-1.8598 0.31031-3.0631v-13.51h-1.4219c-0.054695 0.23701-0.073565 0.5102-0.12826 0.7654-0.36691-0.5743-0.8876-1.0225-1.757-1.0647zm62.85 0.28134v8.788c0 0.9298 0.0916 2.0783-0.27307 2.6617-0.20055 0.32818-0.6924 0.5285-1.1847 0.34616-0.83865-0.30994-0.65645-1.9148-0.65645-3.0451v-8.7325h-1.5322c-0.0182 0-0.0182 0.0372 0 0.0372v9.534c0 1.7502-0.0176 3.4466 1.6232 3.5196 0.9845 0.05465 1.713-0.41999 2.0412-1.0399 0.0365 0.25525 0.0735 0.5298 0.12825 0.7668 0.4558-0.0182 0.98435 0.01715 1.4219-0.01925v-12.816zm-15.114 0.01795c-0.0182 0-0.01795 0.03695-0.01795 0.05515 0.0182 4.248-0.0185 8.551 0.01795 12.78h1.5129c0.03645-4.248 0.0015-8.5695 0.01925-12.835zm18.268 0c-0.0182 0.0182 0 0.019 0 0.0372 0.49225 1.7685 0.98479 3.5547 1.477 5.3415 0.0547 0.23701 0.19999 0.5649 0.19999 0.76545 0 0.23701-0.16429 0.5471-0.23722 0.8206-0.5652 1.969-1.1118 3.9387-1.677 5.853h1.4591c0.41933-1.7685 0.8202-3.5374 1.2578-5.2875 0.4011 1.7685 0.83845 3.5191 1.2578 5.2875h1.6591c-0.5652-1.9143-1.0939-3.865-1.6591-5.816-0.0547-0.21878-0.23721-0.63935-0.23721-0.8399 0-0.09117 0.0739-0.23647 0.11033-0.3641 0.54695-1.9508 1.057-3.9018 1.604-5.798h-1.4592c-0.36463 1.5679-0.69285 3.1545-1.0758 4.7042-0.36463-1.5679-0.72904-3.1363-1.0936-4.7042zm-65.47 0.9847c0.14585-0.0182 0.47308 1.6e-4 0.63715 0.07309 0.60165 0.30994 0.5834 1.3309 0.5834 2.2425v5.616c0 0.94805-0.01742 1.9508-0.54615 2.2425-0.38286 0.21877-1.0028 0.09096-1.2398-0.23721-0.32817-0.43756-0.29238-1.3673-0.29238-2.2425v-5.0875c0-1.0756-0.09022-2.4607 0.85785-2.6066zm27.088 0.00565c0.9985 0.0253 0.9337 1.343 0.9337 2.4369v5.725c0 0.9298 0.05446 2.0607-0.40133 2.4618-0.27347 0.25525-1.0209 0.29184-1.3308-0.09102-0.36463-0.45579-0.291-1.5309-0.291-2.4424v-5.434c0-1.1303-0.11013-2.4979 0.8744-2.6438 0.07635-0.01025 0.14858-0.0141 0.21515-0.01245zm-19.522 0.01245c1.185-0.10939 1.1116 1.2031 1.1116 2.3335v2.5169c-0.6746-0.0182-1.3851 0.01715-2.0232-0.0193v-2.5514c0-1.0392-0.0182-2.1885 0.9116-2.2797zm26.763 0c1.2033-0.16408 1.1488 1.2215 1.1488 2.4066v5.725c0 0.9116 0.05416 2.0786-0.3834 2.4797-0.21878 0.21878-0.8386 0.29188-1.1667 0.0731-0.51045-0.3464-0.47442-1.4216-0.47442-2.3514v-5.598c0-1.1486-0.12698-2.589 0.87575-2.7348z"/></svg>
