<svg width="90" height="32" version="1.1" viewBox="0 0 90 32" xmlns="http://www.w3.org/2000/svg"><path d="m17.643 0-5.322 0.51005v21.913l5.2655-0.7926v-9.3426l7.077 10.361 5.5495-1.7552-7.2485-9.9651 7.3045-9.4001-5.662-1.3014-7.021 9.3986zm-12.063 5.3395c-0.06009 0.0059-0.1185 0.0339-0.16363 0.079261l-2.0889 2.0876c-0.087816 0.088066-0.10437 0.22447-0.03963 0.3311l2.4455 4.0282c-0.43371 0.72916-0.78065 1.5152-1.0291 2.3445l-4.4896 0.9332c-0.12491 0.025855-0.21477 0.13644-0.21477 0.26463v2.9543c0 0.12491 0.085466 0.23297 0.20582 0.26207l4.3567 1.0649c0.23236 0.96051 0.5928 1.8707 1.0687 2.7076l-2.5222 3.8466c-0.070365 0.10749-0.05512 0.24823 0.035795 0.33877l2.0876 2.0889c0.087816 0.08757 0.2253 0.10535 0.33238 0.0409l3.9514-2.4008c0.77635 0.448 1.6143 0.80026 2.4992 1.0393l0.9217 4.4334c0.02595 0.12563 0.13727 0.21605 0.26462 0.21605h2.953c0.12417 0 0.23243-0.08527 0.26207-0.2071l1.0866-4.4423c0.91216-0.24617 1.7756-0.61315 2.5708-1.0815l3.8939 2.5529c0.10709 0.0705 0.24914 0.05642 0.34005-0.0345l2.0889-2.0876c0.08835-0.08832 0.10327-0.22474 0.03835-0.3311l-1.4216-2.3433-0.46021 0.14446c-0.06705 0.02115-0.13952-0.0035-0.17897-0.06133 0 0-0.9074-1.3284-2.0786-3.0425-1.4002 2.7403-4.2477 4.6175-7.537 4.6175-4.6736 0-8.4631-3.789-8.4631-8.4631 0-3.4383 2.0506-6.3955 4.9946-7.72v-2.1822c-0.5358 0.18744-1.0536 0.41337-1.5456 0.68135-3.6e-4 -3.35e-4 -0.0012-0.0015-0.00255-0.0025l-3.986-2.6155c-0.05369-0.03515-0.11634-0.04835-0.17642-0.0422zm35.661 2.016v18.69h3.963v-6.673l1.6747-1.2017 4.8962 7.8745h4.4999l-6.571-10.419 6.5195-8.2711h-4.3976l-5.0625 6.3535-1.5596 2.1988v-8.5526zm17.386 0v18.69h5.2925c2.1988 0 4.0567-0.36646 5.5735-1.0994 1.5255-0.7329 2.6803-1.8068 3.4644-3.2215 0.78406-1.4233 1.1761-3.1576 1.1761-5.203 0-1.9176-0.37925-3.5624-1.1378-4.9345-0.7585-1.3721-1.8622-2.4204-3.311-3.1448-1.4403-0.7244-3.1704-1.0866-5.19-1.0866zm19.38 0v18.69h10.764v-3.2726h-6.801v-4.8195h6.328v-3.2471h-6.328v-4.1036h6.801v-3.2471zm-15.417 3.2471h2.1093c3.5454 0 5.318 2.007 5.318 6.021 0 4.0993-1.909 6.149-5.727 6.149h-1.7002z" stroke-width=".5"/>
</svg>
