<svg width="162" height="32" version="1.1" xmlns="http://www.w3.org/2000/svg"><path d="m122.63 0c-3.1906 0-5.0144 2.0734-5.0144 5.7887v0.83418h-2.118v1.7235h2.118v11.307h2.2524v-11.307h5.2357v11.307h2.2516v-11.307h3.325v-1.7235h-3.325v-1.1845c0-2.3423 0.9927-3.7157 2.7891-3.7157 0.83117 0 1.3671 0.13465 1.8765 0.32311l0.21437-1.6691c-0.48262-0.18846-1.3941-0.3767-2.1181-0.3767-3.1906 0-5.0136 2.0734-5.0136 5.7887v0.83418h-5.2357v-1.1845c0-2.3423 0.99193-3.7157 2.7884-3.7157 0.83118 0 1.3678 0.13465 1.8773 0.32311l0.21437-1.6691c-0.48262-0.18846-1.3941-0.3767-2.1181-0.3767zm-64.549 0.26951v19.384h3.5122l0.08-1.5348h0.05437c1.1261 1.2654 2.2517 1.8043 4.1017 1.8043 3.4856 0 5.7918-3.1504 5.7918-7.0812 0-3.7961-2.065-6.5957-5.6311-6.5957-1.9037 0-3.0292 0.56507-4.2625 1.8035h-0.05437v-7.7802zm-57.334 0.70913a0.76279 0.76279 0 0 0-0.75184 0.76427v29.49a0.76279 0.76279 0 0 0 0.75184 0.76427h24.129a0.76279 0.76279 0 0 0 0.76427-0.76427v-18.99a0.76279 0.76279 0 0 0-0.22214-0.54214l-10.437-10.488a0.76279 0.76279 0 0 0-0.54291-0.23379zm17.71 0c-0.3001-0.0076-0.59571 0.18029-0.71301 0.45282-0.11731 0.27252-0.04855 0.61253 0.16544 0.82019l6.4404 6.4614c0.20772 0.20806 0.54586 0.27679 0.82019 0.16699 0.27433-0.10976 0.46863-0.39153 0.47068-0.6835v-6.473c7.95e-4 -0.39004-0.35953-0.74553-0.75495-0.74485zm86.931 0.15223c-4.8262 0-8.7946 3.5266-8.7946 9.3957 0 5.8692 3.9684 9.3965 8.7946 9.3965s8.7938-3.5273 8.7938-9.3965c0-5.8692-3.9676-9.3957-8.7938-9.3957zm-51.714 0.10796c-1.1529 0-2.0645 0.94228-2.0645 2.073 0 1.1577 0.91154 2.073 2.0645 2.073 1.1261 0 2.0645-0.91531 2.0645-2.073 0-1.1307-0.93835-2.073-2.0645-2.073zm-15.738 0.16078v18.254h11.771v-2.7728h-8.1779v-15.481zm96.48 0.51184c-0.77755 0-1.3942 0.61964-1.3942 1.4004 0 0.78078 0.61662 1.3996 1.3942 1.3996 0.77756 0 1.3942-0.61883 1.3942-1.3996 0-0.78075-0.61662-1.4004-1.3942-1.4004zm-132.9 0.59495h12.607l9.9946 10.043v17.918h-22.601zm103.88 0.45515c3.5928 0 6.327 2.692 6.327 7.565 0 4.873-2.7342 7.5658-6.327 7.5658s-6.3278-2.6928-6.3278-7.5658c0-4.873 2.7349-7.565 6.3278-7.565zm-24.127 3.2847c-1.716 0.10765-3.3518 1.1575-4.1025 2.6113h-0.05359l-0.08-2.3417h-3.513v13.138h3.593v-4.9538c0-2.6384 0.48299-3.5809 1.3142-4.1732 0.72393-0.51152 1.5814-0.72674 2.7612-0.78058zm7.8027 0c-4.1291 0-6.7829 2.8538-6.7829 7.1884 0 4.2269 2.7343 6.4885 6.7829 6.4885 1.9037 0 3.2447-0.29599 4.5049-0.86136l-0.37515-2.6928c-1.1797 0.4846-2.3868 0.78058-3.6738 0.78058-2.1718 0-3.5661-0.99546-3.7002-3.0416h8.4994c0.10725-0.48464 0.16156-1.2389 0.16156-1.8043 0-3.2576-1.9847-6.0575-5.4167-6.0575zm55.852 0.10718c-4.0218 0-7.0516 2.4507-7.0516 7.0276 0 4.3076 2.7353 6.5421 6.355 6.5421 1.6087 0 2.7615-0.18877 4.0754-0.75418l-0.21438-1.7227c-1.1261 0.51156-2.3333 0.7534-3.4594 0.7534-2.6008 0-4.3969-1.6423-4.3969-5.1153 0-3.2846 1.9569-5.0074 4.5041-5.0074 1.3406 0 2.5206 0.3229 3.4858 0.78058l0.21436-1.7227c-0.80436-0.40383-2.0912-0.78136-3.5122-0.78136zm11.202 0c-3.6196 0-6.2742 3.016-6.2742 7.0276 0 4.4153 2.6545 6.5421 6.2742 6.5421 1.6087 0 2.8152-0.24261 4.0753-0.75418l-0.21437-1.7227c-0.99205 0.4846-2.4133 0.7534-3.5394 0.7534-2.6008 0-4.2897-1.5884-4.3433-4.5499h9.0353c0.0536-0.4846 0.0808-0.88855 0.0808-1.2924 0-3.3384-1.7428-6.0039-5.0944-6.0039zm-104.24 0.16233v13.138h3.593v-13.138zm81.412 0.10718v13.031h2.2516v-13.031zm22.642 1.454c1.9841 0 3.0571 1.6419 3.0571 3.7957h-6.7837c0.32174-2.2884 1.5816-3.7957 3.7266-3.7957zm-91.308 0.94214c2.145 0 3.2171 1.535 3.2171 4.0388 0 2.4769-1.0453 4.0917-3.1635 4.0917-1.85 0-3.0035-1.4532-3.0035-3.7685v-0.59262c0-2.2615 1.0194-3.7693 2.9499-3.7693zm24.066 0c1.5551 0 2.2788 1.2652 2.3324 2.6113h-5.0672c0.26812-1.5077 1.3137-2.6113 2.7348-2.6113zm-44.52 14.684v8.1825h0.91806v-3.0229c0-1.1366 0.66663-1.8183 1.4866-1.8183 0.85277 0 1.061 0.49951 1.061 1.5565v3.2847h0.91806v-3.5798c0-1.3411-0.59041-2.0342-1.7165-2.0342-0.78717 0-1.3557 0.45466-1.7274 1.0229h-0.02175v-3.5915zm92.28 0v3.5348h-0.0217c-0.39359-0.67059-0.96219-0.96621-1.7056-0.96621-1.4213 0-2.3829 1.2273-2.3829 2.9662 0 1.6594 0.86358 2.7619 2.3177 2.7619 0.76531 0 1.3554-0.36386 1.7709-0.96621h0.0217l0.0326 0.85204h0.88622v-8.1825zm-76.316 0.42019c-0.60131 0-1.3014 0.04557-1.9355 0.15922v7.5355c0.53572 0.07959 1.3234 0.12505 1.9138 0.12505 2.2413 0 4.3511-1.3524 4.3511-4.1484 0-2.455-1.6179-3.6715-4.3293-3.6715zm-22.197 0.0567v0.77282h2.219v6.9328h0.91884v-6.9328h2.2408v-0.77282zm71.681 0v7.7056h0.91883v-3.4773h2.6563v-0.77282h-2.6563v-2.6827h3.0284v-0.77282zm39.088 0.21592c-0.31705 0-0.56854 0.26147-0.56854 0.59107 0 0.3296 0.25149 0.59107 0.56854 0.59107 0.31706 0 0.56855-0.26147 0.56855-0.59107 0-0.3296-0.25149-0.59107-0.56855-0.59107zm-88.474 0.5002c2.0882 0 3.2256 1.1594 3.2256 3.012 0 2.1935-1.4654 3.2621-3.2365 3.2621-0.33892 0-0.72104-0.01169-1.1037-0.04583v-6.16c0.33892-0.05681 0.71004-0.06835 1.1146-0.06835zm43.382 0.27262v1.2163h-0.84195v0.72777h0.84195v3.4206c0 1.0002 0.52509 1.4664 1.3779 1.4664 0.44825 0 0.74283-0.04527 0.97242-0.14757l-0.0979-0.69359c-0.18586 0.07955-0.38256 0.1134-0.59029 0.1134-0.53571 0-0.74408-0.31789-0.74408-0.97709v-3.1821h1.2684v-0.72777h-1.2684v-1.2163zm41.105 0v1.2163h-0.84195v0.72777h0.84195v3.4206c0 1.0002 0.52509 1.4664 1.3779 1.4664 0.44825 0 0.74361-0.04527 0.97321-0.14757l-0.0986-0.69359c-0.18586 0.07955-0.38256 0.1134-0.59029 0.1134-0.53571 0-0.7433-0.31789-0.7433-0.97709v-3.1821h1.2676v-0.72777h-1.2676v-1.2163zm-92.374 1.1029c-1.4759 0-2.5584 1.2727-2.5584 2.9662 0 1.8639 1.0825 2.7619 2.5584 2.7619 0.65598 0 1.1483-0.1025 1.6621-0.31845l-0.08777-0.72699c-0.40452 0.20456-0.98392 0.31767-1.4431 0.31767-1.0605 0-1.749-0.67058-1.7709-1.9208h3.6839c0.02187-0.2046 0.0334-0.37479 0.0334-0.54524 0-1.4093-0.71105-2.5344-2.0777-2.5344zm15.535 0c-1.5962 0-2.5476 1.2497-2.5476 2.8637 0 1.6139 0.95135 2.8645 2.5476 2.8645 1.5962 0 2.5468-1.2506 2.5468-2.8645 0-1.6139-0.95059-2.8637-2.5468-2.8637zm6.3278 0c-1.6399 0-2.8753 1.034-2.8753 2.9662 0 1.8185 1.1151 2.7619 2.5911 2.7619 0.65598 0 1.1264-0.07979 1.6621-0.31845l-0.08777-0.72699c-0.45919 0.21595-0.95053 0.31767-1.4097 0.31767-1.0605 0-1.7934-0.69307-1.7934-2.1592 0-1.3866 0.79826-2.1142 1.8369-2.1142 0.54665 0 1.0278 0.13689 1.4214 0.3301l0.08699-0.72777c-0.32799-0.1705-0.85279-0.32932-1.4322-0.32932zm11.137 0c-0.75437 0-1.2353 0.42056-1.607 1.0229h-0.02175l-0.03262-0.90951h-0.88544v5.5006h0.91806v-2.7953c0-1.2388 0.5245-2.0458 1.3445-2.0458 0.68877 0 0.96233 0.49976 0.96233 1.4431v3.3981h0.91884v-2.7953c0-1.2616 0.5245-2.0458 1.3445-2.0458 0.68877 0 0.96233 0.49976 0.96233 1.4431v3.3981h0.91805v-3.6932c0-1.2275-0.54655-1.9208-1.5961-1.9208-0.75437 0-1.3558 0.50008-1.7056 1.2388h-0.03262c-0.20773-0.77285-0.64554-1.2388-1.4874-1.2388zm8.5973 0c-1.476 0-2.5584 1.2727-2.5584 2.9662 0 1.8639 1.0825 2.7619 2.5584 2.7619 0.65597 0 1.1475-0.1025 1.6614-0.31845l-0.087-0.72699c-0.40452 0.20456-0.98392 0.31767-1.4431 0.31767-1.0605 0-1.7498-0.67058-1.7716-1.9208h3.6847c0.0219-0.2046 0.0326-0.37479 0.0326-0.54524 0-1.4093-0.71027-2.5344-2.0769-2.5344zm6.0435 0c-0.78717 0-1.3557 0.45466-1.7274 1.0229h-0.02175l-0.0326-0.90951h-0.88544v5.5006h0.91804v-3.0229c0-1.1366 0.66663-1.8183 1.4866-1.8183 0.85277 0 1.061 0.49951 1.061 1.5565v3.2847h0.91806v-3.5798c0-1.3411-0.59041-2.0342-1.7165-2.0342zm16.9 0c-1.5962 0-2.5476 1.2497-2.5476 2.8637 0 1.6139 0.95136 2.8645 2.5476 2.8645s2.5476-1.2506 2.5476-2.8645c0-1.6139-0.95136-2.8637-2.5476-2.8637zm12.503 0c-0.78718 0-1.3557 0.45466-1.7274 1.0229h-0.0217l-0.0326-0.90951h-0.88544v5.5006h0.91806v-3.0229c0-1.1366 0.66741-1.8183 1.4874-1.8183 0.85277 0 1.0602 0.49951 1.0602 1.5565v3.2847h0.91805v-3.5798c0-1.3411-0.59041-2.0342-1.7165-2.0342zm11.491 0c-0.53571 0-1.0719 0.09037-1.6404 0.31767l0.0878 0.72777c0.53572-0.21595 0.97311-0.31845 1.4214-0.31845 0.80903 0 1.148 0.48847 1.148 1.2614v0.15922c-0.25145-0.04545-0.49191-0.06757-0.87456-0.06757-1.3448 0-2.3619 0.69273-2.3619 1.8975 0 1.1252 0.79849 1.7507 1.6513 1.7507 0.69971 0 1.2785-0.37521 1.5627-0.96621h0.0225l0.0326 0.85204h0.88544v-3.7274c0-1.2388-0.71027-1.8866-1.9348-1.8866zm12.114 0c-1.5962 0-2.5476 1.2497-2.5476 2.8637 0 1.6139 0.95137 2.8645 2.5476 2.8645s2.5476-1.2506 2.5476-2.8645c0-1.6139-0.95136-2.8637-2.5476-2.8637zm6.5033 0c-0.78718 0-1.3557 0.45466-1.7274 1.0229h-0.0217l-0.0326-0.90951h-0.88621v5.5006h0.91883v-3.0229c0-1.1366 0.66663-1.8183 1.4866-1.8183 0.85277 0 1.061 0.49951 1.061 1.5565v3.2847h0.91806v-3.5798c0-1.3411-0.59041-2.0342-1.7165-2.0342zm-82.755 0.1134v3.5798c0 1.3411 0.59041 2.035 1.7165 2.035 0.78717 0 1.3557-0.45462 1.7274-1.0229h0.02175l0.03262 0.90874h0.88544v-5.5006h-0.91806v3.0229c0 1.1366-0.66663 1.819-1.4866 1.819-0.85277 0-1.061-0.50028-1.061-1.5573v-3.2847zm43.924 0v3.5798c0 1.3411 0.59041 2.035 1.7165 2.035 0.78717 0 1.3557-0.45462 1.7274-1.0229h0.0217l0.0326 0.90874h0.88621v-5.5006h-0.91883v3.0229c0 1.1366-0.66663 1.819-1.4866 1.819-0.85277 0-1.061-0.50028-1.061-1.5573v-3.2847zm27.579 0v5.5006h0.91883v-5.5006zm-95.977 0.61359c0.80904 0 1.2458 0.69308 1.2458 1.6023h-2.7658c0.1312-0.96605 0.64537-1.6023 1.52-1.6023zm15.611 0c1.1042 0 1.5852 0.98876 1.5852 2.1367 0 1.1479-0.48102 2.1367-1.5852 2.1367s-1.5852-0.9888-1.5852-2.1367c0-1.1479 0.48101-2.1367 1.5852-2.1367zm25.985 0c0.80903 0 1.2466 0.69308 1.2466 1.6023h-2.7658c0.1312-0.96605 0.64459-1.6023 1.5192-1.6023zm23.021 0c1.1042 0 1.5852 0.98876 1.5852 2.1367 0 1.1479-0.48101 2.1367-1.5852 2.1367s-1.5852-0.9888-1.5852-2.1367c0-1.1479 0.48101-2.1367 1.5852-2.1367zm18.034 0c0.84184 0 1.5301 0.75038 1.5301 1.8074v0.65942c0 0.9547-0.56811 1.8066-1.5084 1.8066-1.0605 0-1.6404-0.86346-1.6404-2.125 0-1.2957 0.55815-2.1484 1.6186-2.1484zm18.075 0c1.1042 0 1.5852 0.98876 1.5852 2.1367 0 1.1479-0.48101 2.1367-1.5852 2.1367s-1.5852-0.9888-1.5852-2.1367c0-1.1479 0.48102-2.1367 1.5852-2.1367zm-11.83 1.9775c0.27333 0 0.51378 0.03421 0.73243 0.06835v0.47767c0 1.0911-0.53638 1.7499-1.3126 1.7499-0.55758 0-0.93981-0.42067-0.93981-1.0913 0-0.7274 0.44858-1.2047 1.52-1.2047z"/></svg>
