<svg width="113" height="32" version="1.1" viewBox="0 0 113 32" xmlns="http://www.w3.org/2000/svg"><path d="m13.552 0v0.0039063c-0.76351-0.020001-1.5388 0.14541-2.211 0.50781-0.71436 0.38501-1.2996 0.99956-1.6602 1.7266-0.36037 0.72681-0.50011 1.5488-0.52736 2.3594-0.02684 0.79601 0.052331 1.587 0.082031 2.3828 0.03076 0.82821 0.012858 1.6627 0.082031 2.4883 0.022041 0.26601 0.055591 0.52986 0.054691 0.79691-4.005e-4 0.132-0.013826 0.26644-0.015625 0.39844-0.0036 0-0.00419 0.03125-0.00781 0.03125-0.10274 0.25501-0.23074 0.49487-0.3711 0.73046-0.27436 0.34261-0.55081 0.68396-0.82421 1.0274-0.3043 0.38221-0.60351 0.76826-0.91016 1.1485-0.37628 0.46662-0.76671 0.93716-1.0117 1.4844-0.21049 0.47002-0.30892 0.98216-0.45313 1.4766-0.16372 0.56141-0.38307 1.1001-0.63281 1.6289-0.23059 0.48862-0.48771 0.96891-0.74221 1.4453-0.18515 0.34661-0.37331 0.69856-0.43751 1.086-0.050661 0.30661-0.019221 0.62521 0.058596 0.92581-0.0088 0.028-0.019399 0.02734-0.027344 0.02734-0.14346 0.17401-0.24243 0.36497-0.33594 0.54296-0.18701 0.35541-0.35842 0.62551-0.50001 0.68751-0.20293 0.088-0.57696 0.09719-0.98831 0.11719-0.4113 0.02-0.88596 0.0511-1.2656 0.3711-0.22521 0.19001-0.38095 0.431-0.43751 0.69141-0.056541 0.26041-0.025277 0.51356 0.027344 0.79296 0.15644 0.82921 0.34539 1.7525-0.019531 2.4961-0.12568 0.25641-0.29112 0.54196-0.39453 0.85941-0.10346 0.31701-0.13731 0.70691 0.070311 1.0547 0.14558 0.24381 0.34157 0.416 0.54296 0.50001 0.20139 0.084 0.37063 0.10199 0.58986 0.16797 0.2734 0.08 0.89261 0.27928 1.1641 0.36328 1.3384 0.41621 2.5623 0.62716 3.8477 1.0274 0.24523 0.076 0.54641 0.23691 0.87891 0.37891 0.33251 0.1426 0.70726 0.27257 1.1172 0.22656 0.85991-0.096 1.8021-0.57546 2.2656-1.3633 0.11822-0.20081 0.19004-0.4099 0.24219-0.62111 0.41097-0.082 0.82416-0.17188 1.2422-0.17188 0.12 0 0.24007 5.37e-4 0.35938-0.01953 0.33129 0.038 0.66591 0.05907 1 0.03906 0.04106-0.0016 0.08019 0 0.1211 0 0.08604 0.0204 0.17153 0.01953 0.25781 0.01953 0.58591 0.034 1.1736 0.09169 1.7539 0.17969 0.51041 0.076 1.014 0.17488 1.5156 0.29688 0.12692 0.03 0.25555 0.06177 0.38282 0.09375 0.0439 0.17 0.09111 0.34191 0.19141 0.50391 0.24846 0.39961 0.63626 0.64271 1.0078 0.80471 0.52741 0.23001 1.1243 0.34391 1.7188 0.25391 0.48875-0.072 0.93806-0.27959 1.3242-0.55861 0.38155-0.27541 0.68426-0.59961 0.98046-0.88281 0.34622-0.33081 0.71306-0.63461 1.1055-0.89061 0.58581-0.38221 1.257-0.67261 1.9297-1.0156 0.39563-0.20181 0.82971-0.43894 1.1641-0.83596 0.15234-0.18 0.27368-0.38587 0.35938-0.60546l0.0156-0.04688c0.0615-0.26141 0.019-0.53476-0.11328-0.76956-0.0958-0.16999-0.22305-0.29652-0.34764-0.39452-0.12372-0.0984-0.24473-0.17028-0.34375-0.23828-0.21115-0.144-0.41296-0.31419-0.62501-0.4922-0.21275-0.17801-0.40934-0.34725-0.56251-0.53126-0.15198-0.182-0.26316-0.38603-0.30078-0.58206-0.02286-0.12-0.02246-0.27475-0.03906-0.46876-0.0184-0.21781-0.06258-0.44236-0.14844-0.66016-0.05814-0.14801-0.1407-0.30141-0.27735-0.44141-0.17118-0.1742-0.37159-0.26422-0.55471-0.32422 0.12728-0.27321 0.2298-0.56066 0.28516-0.85546 0.13724-0.73121 0.07278-1.486-0.05469-2.2188-0.17387-0.99941-0.46725-1.9709-0.83986-2.9141-0.27409-0.69381-0.59486-1.3802-1.043-1.9766-0.43853-0.58381-0.99226-1.0776-1.4219-1.668-0.22626-0.31101-0.42076-0.64701-0.65626-0.94921-0.095442-0.19801-0.18988-0.39575-0.28125-0.59376-0.28368-0.61781-0.53896-1.2493-0.87501-1.8399-0.05208-0.091401-0.10754-0.18153-0.16406-0.26953-0.04302-0.56501-0.10011-1.1336-0.12891-1.6992-0.057781-1.1342 0.012007-2.287-0.28516-3.3828-0.14506-0.53441-0.37824-1.0486-0.67581-1.5156-0.34863-0.54716-0.79096-1.0335-1.3164-1.4141-0.83831-0.60741-1.875-0.91361-2.9102-0.93361zm38.745 3.6026c-1.3182 0-2.3867 0.99966-2.3867 2.2383 0 1.2273 1.0686 2.2276 2.3867 2.2276 1.3068 0 2.375-1.0003 2.375-2.2276 0-1.2387-1.0682-2.2383-2.375-2.2383zm-37.495 0.90526c0.04868 0 0.09601-4.772e-4 0.14453 0.019531 0.19375 0.025 0.38272 0.10103 0.54691 0.20703 0.32837 0.21261 0.55911 0.55641 0.68751 0.92581 0.11902 0.34021 0.15289 0.70271 0.13281 1.0625-0.016 0.28201-0.06864 0.56351-0.1875 0.82031-0.02916 0.062001-0.08358 0.10997-0.1211 0.16797-0.1232-0.042001-0.24662-0.077561-0.33985-0.10156-0.1008-0.026-0.1938-0.077376-0.29297-0.10938 0.08018-0.072201 0.1603-0.14619 0.21094-0.24219 0.06436-0.122 0.1037-0.25463 0.1211-0.39063 0.03112-0.23941-0.0042-0.48873-0.11328-0.70311-0.11074-0.21461-0.30088-0.38866-0.52736-0.47266-0.07378-0.026-0.1485-0.046876-0.22656-0.046876-0.02596-0.0012-0.05181-0.0016-0.07813 0-0.11146 0.02-0.22193 0.04547-0.31641 0.10547-0.09458 0.060401-0.17104 0.14237-0.23438 0.23438-0.12658 0.184-0.18241 0.40591-0.19141 0.62891-0.0054 0.108 0.02377 0.21431 0.04297 0.32032h-0.0039c-0.18997-0.1012-0.40051-0.20925-0.64061-0.28125h-0.0039c-0.08764-0.35761-0.12354-0.72611 0-1.0703 0.12142-0.33821 0.37181-0.62451 0.66796-0.82811 0.0919-0.062001 0.18506-0.12016 0.28906-0.16016 0.1367-0.054001 0.28677-0.076221 0.4336-0.074221v-0.011719zm-4.0821 0.21875v0.00781c0.14238-0.02 0.2822 0.025843 0.41016 0.089846 0.12782 0.062001 0.24438 0.14991 0.34375 0.25391 0.20524 0.21121 0.35325 0.47822 0.44532 0.75781 0.08764 0.26601 0.12109 0.54401 0.12891 0.82421-0.07732 0.02-0.16103 0.019058-0.23438 0.039063-0.1024 0.036-0.18705 0.098531-0.28516 0.14453 7.1e-5 -0.152-0.02196-0.30322-0.06641-0.44923-0.06132-0.19801-0.16503-0.38553-0.32422-0.51956-0.07608-0.064001-0.16504-0.11863-0.26172-0.14063-0.04818-0.0204-0.09902-0.019531-0.14844-0.019531-0.04942 0-0.09547 0.015161-0.14063 0.035156-0.10026 0.046401-0.1796 0.13838-0.23047 0.23438-0.05066 0.098001-0.07952 0.2045-0.09766 0.3125-0.03964 0.23921-0.03526 0.49055 0.04688 0.71876 0.05422 0.15 0.14132 0.28434 0.25 0.40235 0.0178 0.02 0.04294 0.026875 0.0625 0.046875-0.07342 0.069001-0.16398 0.12703-0.23047 0.20703-0.06986 0.050001-0.12469 0.11588-0.19141 0.17188-0.0608-0.087601-0.12815-0.16563-0.16797-0.26563-0.12852-0.3194-0.15877-0.6726-0.18359-1.0156-0.02738-0.37901-0.053756-0.76871 0.066406-1.1289 0.060261-0.18 0.1582-0.35047 0.29688-0.48048 0.13884-0.1306 0.32203-0.20656 0.51171-0.22656zm21.577 9.765e-4v23.273h14.466v-3.5342h-10.25v-19.739h-4.2159zm-19.511 2.5225c0.14576 0 0.2908 0.022499 0.42578 0.062501 0.16142 0.048601 0.32414 0.12666 0.50391 0.22266 0.17492 0.094001 0.36057 0.20278 0.55471 0.30078 0.34654 0.17201 0.71171 0.29063 1.086 0.39063-0.12144 0.04-0.21099 0.10216-0.28125 0.16016-0.07058 0.058001-0.11998 0.11434-0.16016 0.15235h-0.0039c-0.11928 0.116-0.25783 0.22203-0.40625 0.33203-0.32677 0.24381-0.65026 0.46366-0.99221 0.59766-0.22324 0.088001-0.47023 0.15113-0.73046 0.20313-0.32692 0.066001-0.64181 0.10156-0.94141 0.10156-0.14791 0-0.29721-0.024594-0.4336-0.058596-0.13634-0.038001-0.26323-0.092061-0.375-0.16407-0.1015-0.064001-0.21678-0.16162-0.36719-0.26563-0.1255-0.087001-0.28656-0.16494-0.47266-0.21094 0.0124-0.072001 0.02272-0.1515 0.03516-0.1875 0.02436-0.072001 0.07981-0.156 0.15625-0.25 0.1344-0.166 0.29249-0.31169 0.46876-0.4297l0.04297-0.03125 0.03125-0.039063c0.29584-0.34761 0.6899-0.61561 1.1211-0.76561 0.24163-0.086001 0.49555-0.1211 0.73831-0.1211zm2.6485 1.7813c0.0231 0.03 0.05911 0.048221 0.08985 0.074221 0.09012 0.086001 0.19904 0.14016 0.32813 0.16016-0.0072 0.054001-0.01713 0.13281-0.01953 0.13281-0.0036 0-0.04165 0.046125-0.10938 0.078126-0.072 0.034-0.17906 0.063186-0.32031 0.11719-0.64621 0.23761-1.071 0.70956-1.5039 0.97656-0.2275 0.1402-0.48239 0.24622-0.74611 0.32422-0.28381 0.082-0.56471 0.12757-0.82811 0.10157-0.22279-0.0246-0.4387-0.10075-0.60941-0.21875-0.10666-0.074-0.20925-0.21956-0.3086-0.35157 0.13456 0.024 0.26876 0.0625 0.40235 0.0625h0.0039c0.38825 0.02 0.76031-0.04328 1.1094-0.11328 0.27708-0.0562 0.56546-0.12428 0.85156-0.23828 0.43826-0.17201 0.81491-0.4299 1.1602-0.68751 0.15644-0.118 0.31758-0.24063 0.47266-0.39063 0.0106-0.028001 0.019-0.027344 0.02734-0.027344zm0.81251 0.94921c0.07756 0.17792 0.15494 0.35626 0.23047 0.53516 0.23458 0.55701 0.54051 1.0838 0.79296 1.6328 0.34999 0.76141 0.59276 1.5696 0.71486 2.3985 0.4582 0.47301 0.84216 1.0203 1.1289 1.6133 0.83291 1.7221 0.82451 3.7256 0.59766 5.6251-0.0036 0.032-0.01202 0.06566-0.01563 0.09766-0.40768-0.09902-0.81856-0.05656-1.2031 0.01953-0.10666 0.038-0.2159 0.03909-0.3125 0.1211-0.21058 0.18201-0.30246 0.42644-0.33594 0.64846-0.0321 0.2154-0.01451 0.40641-0.0039 0.56641 0.06612 0.92541 0.06812 1.851-0.02344 2.7656-0.05814 0.056-0.11322 0.11978-0.17188 0.17578-0.67776 0.65641-1.3821 1.3023-2.2149 1.7461-1.4894 0.79361-3.321 0.81521-4.879 0.16797-0.36057-0.70941-0.95681-1.3124-1.2774-1.8164-0.34009-0.53501-0.71756-1.2045-1.0899-1.7617l-1.4102-2.1094c-0.063281-0.0934-0.1454-0.18544-0.22266-0.27344-0.046231-0.55221-0.061406-1.109-0.00781-1.6602 0.11288-1.1518 0.43125-2.2771 0.89846-3.336 0.30825-0.69881 0.67956-1.369 1.1094-2-0.041241-0.39861-2e-3 -0.80351 0.11328-1.1875 0.18942-0.63401 0.57306-1.1915 0.95706-1.7305 0.22173-0.31101 0.44965-0.62751 0.55081-0.99611 0.09012-0.32901 0.07528-0.67381 0.08594-1.0156 0.06382 0.07 0.13473 0.11141 0.19531 0.19141 0.22556 0.29061 0.45022 0.67151 0.85156 0.95311 0.28471 0.19981 0.61461 0.30975 0.94531 0.34375 0.38661 0.04 0.76256-0.02109 1.1055-0.1211 0.31712-0.094 0.62621-0.22434 0.91406-0.40235 0.54666-0.33721 0.94096-0.75016 1.375-0.91016 0.0944-0.036 0.22747-0.06863 0.38282-0.14063 0.07202-0.034 0.14722-0.08463 0.21875-0.14063zm51.666 0.33789c-2.6137 0-4.4097 1.2502-5.2051 3.1934h-0.2041v-2.9658h-3.9317v17.454h4.1134v-10.228c0-2.5228 1.5229-3.9766 3.6934-3.9766 2.125 0 3.3975 1.397 3.3975 3.7266v10.478h4.1143v-11.114c0.01135-4.1819-2.3753-6.5686-5.9776-6.5686zm-17.682 0.22754v17.454h4.1134v-17.454zm27.852 0v11.114c0 4.1933 2.3866 6.5686 5.8186 6.5686 2.6137 0 4.4546-1.3756 5.2501-3.3301h0.18164v3.1026h3.9893v-17.454h-4.1143v10.114c0 2.6591-1.8977 3.9776-3.7158 3.9776-1.9773 0-3.2949-1.3984-3.2949-3.6143v-10.477h-4.1143zm18.466 0 5.1826 8.7266-5.3186 8.7276h4.3633l3.6592-6.2841 3.6934 6.2841h4.3292l-5.3516-8.7276 5.2606-8.7266h-4.3516l-3.5801 6.4426-3.5225-6.4426h-4.3643zm-91.616 11.421c0.18008 0.0066 0.37883 0.07395 0.57716 0.18946 0.26441 0.158 0.51826 0.40664 0.67971 0.64846l1.4063 2.1094c0.34859 0.52181 0.72186 1.1857 1.0781 1.7461 0.47723 0.75041 1.238 1.5217 1.4141 2.1485 0.15058 0.53601 0.12496 0.97026-0.14063 1.4219-0.29721 0.50501-1.0996 0.95346-1.7305 1.0235-0.20045 0.0238-0.46372-0.05369-0.75781-0.17969-0.2941-0.124-0.60806-0.29244-0.94921-0.39844-1.3384-0.41681-2.5622-0.63146-3.8477-1.0313-0.2613-0.082001-0.87306-0.27919-1.1719-0.36719-0.26121-0.076001-0.43666-0.10663-0.51956-0.14063-0.082841-0.0332-0.1085-0.04904-0.20313-0.20703-0.078051-0.132-0.077586-0.25665-0.007813-0.47266 0.070401-0.21601 0.2205-0.48223 0.35938-0.76561 0.50261-1.0257 0.22658-2.1334 0.074221-2.9414-0.045505-0.24101-0.050806-0.40372-0.027344-0.51171 0.023461-0.1088 0.065921-0.18088 0.20313-0.29688 0.15234-0.128 0.45527-0.17922 0.83986-0.19922 0.38457-0.02 0.82106 0.0024 1.2383-0.17969 0.47861-0.20981 0.66391-0.66991 0.84376-1.0117 0.089961-0.17 0.17704-0.32388 0.25781-0.42188 0.080701-0.098 0.14064-0.12844 0.21094-0.14844 0.055301-0.01195 0.11283-0.01588 0.17285-0.01367zm13.921 0.53321c0.0256-0.0014 0.05429-1e-3 0.08203 0h0.03906c0.07538 0 0.15908 0.0152 0.25782 0.03516 0.13652 0.02 0.26323 0.0425 0.39454 0.0625-0.02968 0.20781-0.08281 0.4155-0.06641 0.62111 0.02542 0.32081 0.10732 0.68576 0.36719 0.98441 0.21036 0.24201 0.48536 0.37713 0.74611 0.45313 0.44658 0.134 0.92516 0.12257 1.3672-0.02344 0.68901-0.23081 1.2943-0.68326 1.7071-1.2813 0.06472-0.094 0.10131-0.22203 0.15625-0.33203 0.016 0.012 0.0503 0.01119 0.0625 0.03125 0.04356 0.043 0.08892 0.11702 0.125 0.20703 0.05458 0.138 0.08776 0.29694 0.10156 0.46095 0.0124 0.146 0.0094 0.32877 0.05078 0.54296 0.0679 0.35281 0.24305 0.65186 0.44923 0.89846 0.20494 0.24521 0.43763 0.4411 0.65236 0.62111 0.21383 0.18001 0.43539 0.36516 0.68361 0.53516 0.11662 0.081 0.22353 0.14694 0.30469 0.21094 0.08036 0.064 0.13581 0.12559 0.16797 0.1836 0.03886 0.0702 0.04505 0.1622 0.03125 0.24219-0.05636 0.134-0.1295 0.265-0.22266 0.375-0.22462 0.26661-0.56401 0.46816-0.94141 0.66016-0.64561 0.32901-1.3426 0.62461-1.9961 1.0508-0.43798 0.28581-0.83661 0.61866-1.2071 0.97266-0.31675 0.30281-0.59651 0.60421-0.90236 0.82521-0.30736 0.22181-0.65836 0.3796-1.0156 0.4336-0.43444 0.066-0.90166-0.02304-1.3281-0.20703-0.29682-0.13-0.55096-0.30872-0.68751-0.52831-0.13742-0.22101-0.18316-0.52941-0.1836-0.86721-8.5e-4 -0.60301 0.11322-1.2237 0.22656-1.8633 0.0944-0.53161 0.1831-1.0725 0.24219-1.6211 0.10772-0.99801 0.11017-1.9996 0.03906-2.9922-0.0124-0.168-0.02363-0.30806-0.0078-0.41406 0.016-0.101 0.06032-0.17694 0.09766-0.21094 0.0343-0.03 0.10894-0.06641 0.20703-0.06641z"/></svg>
