<svg width="112" height="32" version="1.1" xmlns="http://www.w3.org/2000/svg"><path d="m0 0v32h112v-32zm80.94 4h3.9336l-6.041 21.652h-3.9356zm8.119 0h3.9356l-6.045 21.652h-3.9356zm-47.01 7.1855c5.02 0 7.467 3.4372 7.467 7.408 0 4.539-3.2226 7.406-7.6855 7.406-4.307 0-7.281-2.6798-7.281-7.219 0-4.16 2.48-7.5955 7.5-7.5955zm57.76 0c3.006 0 5.547 1.5772 5.547 4.8242v6.1445c0 0.819 0.30994 1.1035 0.96095 1.1035a2.064 2.064 0 0 0 0.5879-0.0957l0.0937 2.1758c-0.743 0.41-1.6418 0.6621-2.5098 0.6621-1.859 0-2.8824-1.1039-3.0684-2.8379-0.805 1.45-2.2302 2.8379-4.4922 2.8379-2.015 0-4.3086-1.1034-4.3086-4.0664 0-3.498 3.3158-4.3184 6.508-4.3184a17.978 17.978 0 0 1 2.293 0.12696v-0.47266c0-1.45-0.0309-3.1836-2.293-3.1836-0.836 0-1.4886 0.06315-2.1386 0.41016l-0.46484 1.6074-3.1914-0.34766 0.4961-3.2774c2.448-1.009 3.6874-1.293 5.9805-1.293zm-82.71 2e-3c2.015 0 3.8746 0.97565 4.5566 3.0566 0.774-1.892 2.3547-3.0566 4.5547-3.0566 2.51 0 4.8028 1.544 4.8028 4.916v6.461h1.7988v3.0898h-5.826v-7.9745c0-2.458-0.8067-3.4043-2.3867-3.4043-1.922 0-2.6953 1.387-2.6953 3.373v4.9472h1.8594v3.0898h-5.8575v-8.006c0-2.458-0.8067-3.4043-2.3867-3.4043-1.921 0-2.6953 1.387-2.6953 3.373v4.9472h2.664v3.0898h-8.49v-3.0898h1.8594v-8.035h-1.8594v-3.0898h5.8575v2.1426c0.837-1.513 2.2922-2.4258 4.2442-2.4258zm34.955 0.2832h12.242l0.30859 2.1426-7.746 8.9825h4.5234l0.6504-2.2051 3.1602 0.31446-0.8672 4.9804h-12.178l-0.40234-2.1426 7.6835-8.9845h-4.3692l-0.61915 2.207-2.8808-0.3164zm16.084 0h4.1836v5.1035h-4.1836zm-26.154 2.8047c-2.046 0-3.3164 1.5436-3.3164 4.2226 0 2.459 1.1162 4.3496 3.2852 4.3496 2.076 0 3.4394-1.6691 3.4394-4.4121 0-2.868-1.5182-4.1602-3.4082-4.1602zm57.39 5.201c-1.425 0-2.664 0.40812-2.664 1.9532 0 0.914 0.43262 1.6406 1.6406 1.6406v-2e-3c1.426 0 2.9441-1.0403 3.0371-3.4043-0.65-0.095-1.3636-0.1875-2.0136-0.1875zm-31.236 1.1016h4.1836v5.1075h-4.1836z"/></svg>
