<svg width="150" height="32" version="1.1" xmlns="http://www.w3.org/2000/svg"><path d="m76.875 0v8.8398h0.54102v-4.4512c0.354-0.36887 0.67901-0.64371 0.97461-0.82812 0.2956-0.18443 0.61334-0.27734 0.95508-0.27734 0.47593-0.0013468 0.82243 0.14838 1.0371 0.45117 0.21465 0.30278 0.31999 0.76703 0.31641 1.3926v3.7129h0.54102v-3.7871c0.001796-0.76131-0.14378-1.3291-0.43555-1.7031-0.29177-0.37396-0.74082-0.5596-1.3477-0.55859-0.40166 0.0061955-0.76588 0.10797-1.0938 0.30469-0.32788 0.19674-0.64397 0.45211-0.94726 0.76562v-1.3047-2.5566h-0.54102zm-60.955 0.17383c-8.7929 0-15.92 7.1233-15.92 15.912 0 1.1194 0.11782 2.2113 0.33789 3.2656 1.3988-0.38021 2.8692-0.58398 4.3887-0.58398 2.4353 0 4.7473 0.52212 6.834 1.459 2.7312-1.9472 6.078-3.0938 9.6895-3.0938 2.2612 0 4.4191 0.44942 6.3848 1.2637 0.010415 0.004041 0.01906 0.009542 0.029296 0.013672 0.081345 0.040091 0.13867 0.12226 0.13867 0.2207 0 0.13597-0.1105 0.24805-0.24805 0.24805-0.004894 0-0.2421-0.017938-0.35547-0.02539-0.39141-0.028105-0.78961-0.042969-1.1875-0.042969-5.5819 0-10.597 2.0489-13.639 6.207-0.048531 0.065825-0.1453 0.19922-0.14648 0.19922-0.0444 0.056002-0.11282 0.091797-0.18945 0.091797-0.062879 0-0.11947-0.023181-0.16211-0.0625-0.007677-0.004714-0.013246-0.010709-0.019531-0.017578-2.886-2.7135-6.6879-3.7884-10.955-3.8633 2.1787 6.1928 8.0768 10.635 15.018 10.635 8.7929 0 15.922-7.1243 15.922-15.912 1.97e-4 -8.7894-7.127-15.914-15.92-15.914zm40.342 0.56445-2.8535 8.1016h0.56641l0.95898-2.7773h3.209l0.94727 2.7773h0.58984l-2.8535-8.1016h-0.56445zm0.25781 0.5293h0.048828c0.14037 0.4926 0.28315 0.96298 0.42969 1.4141 0.14652 0.45112 0.30378 0.91455 0.46875 1.3887l0.51562 1.5117h-2.877l0.51562-1.5117c0.16497-0.47412 0.32222-0.93756 0.46875-1.3887 0.14652-0.45108 0.2893-0.92146 0.42969-1.4141zm6.5742 1.5234c-0.36478 0.0084402-0.71647 0.098586-1.0566 0.27148-0.34018 0.17291-0.65628 0.37736-0.94726 0.61328h-0.03711l-0.048828-0.73828h-0.4668v8.5703h0.54102v-2.1523-1.0938c0.30815 0.22926 0.6108 0.40691 0.9082 0.5332 0.29739 0.12628 0.58389 0.18961 0.86133 0.19141 0.71646-0.0074076 1.3244-0.28679 1.8242-0.83984 0.49977-0.55305 0.7614-1.3342 0.7832-2.3438-9e-6 -0.92704-0.19638-1.6582-0.58984-2.1934-0.39344-0.53509-0.98456-0.80734-1.7715-0.81836zm5.5664 0c-0.48467 0.013334-0.91869 0.10252-1.2988 0.26953-0.38013 0.16702-0.6765 0.33135-0.89062 0.49219l0.24609 0.40625c0.20057-0.15779 0.464-0.30959 0.78906-0.45508 0.32506-0.1455 0.68834-0.22412 1.0918-0.23438 0.56507 0.021774 0.94552 0.22087 1.1387 0.59766 0.19314 0.37681 0.27705 0.80092 0.25195 1.2715-1.3046 0.14038-2.268 0.38499-2.8887 0.73438-0.62067 0.34939-0.92868 0.84576-0.92383 1.4902 0.013289 0.55714 0.1829 0.96881 0.50977 1.2324 0.32685 0.26359 0.7304 0.39295 1.2109 0.39062 0.38831-0.0079464 0.75989-0.099924 1.1113-0.27539 0.35144-0.17547 0.67821-0.38706 0.98047-0.63477h0.023438l0.0625 0.76367h0.45508v-3.7754c0.009742-0.64884-0.12787-1.1853-0.41016-1.6113-0.28229-0.42599-0.7679-0.64648-1.459-0.66211zm5.4414 0c-0.74158 0.0058812-1.3691 0.27636-1.8848 0.8125-0.51565 0.53614-0.78436 1.3012-0.80664 2.2969 0.016387 0.98389 0.27165 1.7438 0.76758 2.2773 0.49593 0.53357 1.1334 0.80413 1.9121 0.81055 0.375-0.0044894 0.71968-0.078441 1.0332-0.22266 0.31353-0.14422 0.59558-0.33263 0.84766-0.56445l-0.2832-0.36914c-0.2039 0.18956-0.43774 0.3485-0.70312 0.47656-0.26538 0.12808-0.55458 0.1941-0.86914 0.19922-0.65397-0.011807-1.1728-0.25287-1.5547-0.72266-0.38194-0.46978-0.57748-1.0984-0.58594-1.8848 0.013828-0.79282 0.21911-1.4257 0.61719-1.9004 0.39805-0.47465 0.90711-0.71841 1.5234-0.73047 0.28741 0.0040406 0.54441 0.063657 0.77344 0.17969 0.229 0.11604 0.43789 0.26516 0.62695 0.44727l0.32031-0.38086c-0.19366-0.1916-0.43121-0.35756-0.71094-0.5-0.27972-0.14242-0.62078-0.21744-1.0234-0.22461zm10.789 0c-0.68267 0.008979-1.2764 0.28472-1.7793 0.83008-0.50282 0.54535-0.76617 1.3052-0.79102 2.2793 0.019215 0.97314 0.28431 1.7294 0.79688 2.2676 0.51256 0.53818 1.1563 0.81238 1.9316 0.82031 0.4247-0.0064199 0.78362-0.068066 1.0762-0.18359 0.29252-0.11552 0.55327-0.24672 0.78125-0.39453l-0.2207-0.41797c-0.21979 0.16189-0.46094 0.28856-0.7207 0.38281-0.25975 0.094266-0.54902 0.14248-0.86719 0.14453-0.67217-0.013603-1.206-0.25373-1.6016-0.7207-0.39552-0.46697-0.60257-1.0785-0.62305-1.8359h4.2539c0.011807-0.073771 0.018925-0.14693 0.021485-0.2207 0.002244-0.073771 0.004355-0.14888 0.003906-0.22266-0.006645-0.87222-0.20843-1.5426-0.60547-2.0137-0.39703-0.47108-0.94877-0.70944-1.6562-0.71484zm0.011719 0.4668c0.53485 8.979e-4 0.95629 0.19269 1.2637 0.57617 0.30738 0.38346 0.46258 0.954 0.46875 1.7109h-3.7617c0.075311-0.71389 0.30202-1.2719 0.68164-1.6738 0.37961-0.4019 0.82972-0.60635 1.3477-0.61328zm-21.895 0.011719c0.6696 0.01486 1.1499 0.25595 1.4414 0.72266 0.2915 0.46671 0.43439 1.0702 0.42773 1.8105-0.011044 0.81202-0.20482 1.4619-0.58008 1.9512-0.37528 0.48927-0.86729 0.74112-1.4746 0.75391-0.22952 0.0026937-0.4919-0.055225-0.78906-0.17383-0.29714-0.1186-0.61491-0.31407-0.95508-0.58789v-3.5059c0.35553-0.31481 0.69111-0.55496 1.0098-0.7207 0.31865-0.16572 0.62588-0.24871 0.91992-0.25zm6.9805 2.2871v2.0039c-0.35861 0.3143-0.69975 0.55271-1.0215 0.71484-0.32174 0.16215-0.65034 0.24337-0.98438 0.24414-0.34762 0.0040406-0.63765-0.086284-0.87305-0.27148-0.23541-0.1852-0.35769-0.48787-0.36719-0.9082-0.016163-0.46543 0.22224-0.84497 0.71484-1.1367 0.4926-0.29176 1.3363-0.50688 2.5312-0.64648zm39.918 2.0371c-1.2573 0.013828-2.189 0.38873-2.793 1.127-0.60399 0.73857-0.90221 1.7579-0.89844 3.0586v2.002l-1.7168 0.13086v1.6113h1.7168v10.895h2.1309v-10.895h2.3828v0.001953h1.7168v10.896h2.1328v-10.896h2.6777v-1.7402h-2.6777v-2.0039c-0.00134-0.8072 0.14413-1.4158 0.43555-1.8262 0.29144-0.41071 0.73507-0.61615 1.332-0.61719 0.23509 0 0.47324 0.027892 0.71485 0.078125 0.24159 0.051957 0.47975 0.1304 0.71484 0.23438l0.46875-1.6406c-0.28927-0.11992-0.61381-0.21923-0.97461-0.29688-0.36079-0.077291-0.73759-0.11637-1.1309-0.11914-1.2573 0.013828-2.189 0.38873-2.793 1.127-0.60398 0.73857-0.90416 1.7579-0.90039 3.0586v2.002h-1.4219-2.6777v-2.002c-0.00134-0.8072 0.14412-1.4155 0.43555-1.8262 0.29143-0.41036 0.73508-0.61615 1.332-0.61719 0.2351 0 0.4752 0.027888 0.7168 0.078125 0.2416 0.051957 0.47975 0.12845 0.71484 0.23242l0.4668-1.6367c-0.28928-0.11992-0.61382-0.21923-0.97461-0.29688-0.3608-0.077291-0.73759-0.11637-1.1309-0.11914zm-85.688 0.74219c0.25605 0.0038294 0.51219 0.018481 0.77148 0.042969 1.1744 0.11121 2.2813 0.42914 3.2852 0.91211 0.061303 0.031426 0.12385 0.062104 0.18555 0.095703 0.061303 0.030439 0.089843 0.082819 0.089843 0.14648 0 0.091172-0.05873 0.17703-0.16602 0.16406-0.055607-0.0057016-0.1512-0.021036-0.21289-0.029297-0.17684-0.02788-0.35673-0.051066-0.53711-0.068359-3.247-0.30613-6.2686 0.5951-8.2402 2.8789-0.082525 0.084492-0.15498 0.089794-0.23633 0.005859-1.5674-1.7773-3.7995-2.5659-6.3613-2.8086-0.91269-0.086651-1.8093-0.042584-2.668 0.11719-0.003142 0-0.00586 1.573e-4 -0.009765 0.0019531-0.008261 0-0.017512 0.0019531-0.027344 0.0019531-0.091761 0-0.16602-0.074448-0.16602-0.16602 0-0.05325 0.026315-0.099433 0.064453-0.12891 0.015714-0.0088443 0.031535-0.018118 0.046875-0.025391 1.5983-0.83626 3.4468-1.2374 5.375-1.0547 1.3984 0.13244 2.699 0.55606 3.8457 1.207 1.4657-0.84916 3.1686-1.3198 4.9609-1.293zm96.227 0.091797c-0.42578 0.0069138-0.77647 0.13088-1.0527 0.37695-0.27627 0.24607-0.41995 0.57855-0.42969 1 0.00974 0.41036 0.15341 0.74126 0.42969 0.99219 0.27627 0.25058 0.62695 0.37944 1.0527 0.38672 0.42577-0.006914 0.77648-0.13614 1.0527-0.38672 0.27627-0.25093 0.41992-0.58183 0.42968-0.99219-0.00969-0.42145-0.15341-0.75393-0.42968-1-0.27628-0.24608-0.627-0.3714-1.0527-0.37695zm-75.852 0.62305c-2.1804 0.024243-3.9289 0.80208-5.248 2.334-1.3191 1.5319-1.996 3.6738-2.0312 6.4277 0.035243 2.772 0.71218 4.9448 2.0312 6.5176 1.319 1.5728 3.0678 2.372 5.248 2.4004v0.001953c2.1814-0.027745 3.9369-0.82954 5.2637-2.4023 1.3266-1.5725 2.0066-3.7456 2.043-6.5176-0.036365-2.7425-0.71635-4.8832-2.043-6.4199-1.3267-1.5368-3.0822-2.3165-5.2637-2.3418zm51.877 0c-2.1804 0.024243-3.9289 0.80208-5.248 2.334-1.3191 1.5319-1.996 3.6738-2.0312 6.4277 0.035243 2.772 0.71219 4.9448 2.0312 6.5176 1.319 1.5728 3.0678 2.372 5.248 2.4004v0.001953c2.1814-0.027745 3.9369-0.82954 5.2637-2.4023 1.3266-1.5725 2.0066-3.7456 2.043-6.5176-0.03632-2.7425-0.71635-4.8832-2.043-6.4199-1.3267-1.5368-3.0822-2.3165-5.2637-2.3418zm45.855 1.6211v0.42969h1.3164v3.3438h0.4668v-3.3438h1.3281v-0.42969h-3.1113zm3.752 0v3.7734h0.45313v-1.9785l-0.06055-1.2051h0.04883l1.0215 2.5938h0.41796l1.0195-2.5938h0.04882l-0.06054 1.2051v1.9785h0.45508v-3.7734h-0.63868l-0.61523 1.5488-0.38086 1.0566h-0.05078l-0.38086-1.0566-0.63867-1.5488h-0.63868zm-101.48 0.27539c1.5411 0.020786 2.7631 0.63625 3.6641 1.8438 0.90084 1.2075 1.3608 2.881 1.3809 5.0215-0.020068 2.1582-0.48002 3.8613-1.3809 5.1094-0.90088 1.248-2.1229 1.8861-3.6641 1.9121-1.5412-0.027745-2.7612-0.66406-3.6621-1.9121-0.90084-1.2481-1.3608-2.9512-1.3809-5.1094 0.020023-2.1405 0.48002-3.814 1.3809-5.0215 0.90084-1.2075 2.1209-1.8226 3.6621-1.8438zm51.877 0c1.5411 0.020786 2.7632 0.63625 3.6641 1.8438 0.90084 1.2075 1.3608 2.881 1.3808 5.0215-0.02006 2.1582-0.48001 3.8613-1.3808 5.1094-0.90088 1.248-2.1229 1.8861-3.6641 1.9121-1.5412-0.027745-2.7612-0.66406-3.6621-1.9121-0.90085-1.2481-1.3608-2.9512-1.3809-5.1094 0.019979-2.1405 0.48001-3.814 1.3809-5.0215 0.90084-1.2075 2.1209-1.8226 3.6621-1.8438zm-25.422 2.5215c-1.4989 0.017284-2.806 0.61108-3.918 1.7773-1.1121 1.1666-1.6962 2.7932-1.752 4.8789 0.041169 2.0837 0.62846 3.7025 1.7617 4.8535 1.1332 1.151 2.5654 1.7353 4.2969 1.752 0.85589-0.010416 1.6276-0.13891 2.3145-0.38672 0.68687-0.24746 1.3018-0.55257 1.8457-0.91406l-0.75391-1.4043c-0.46589 0.30291-0.95674 0.54269-1.4746 0.71875-0.51787 0.17606-1.076 0.26572-1.6719 0.26953-1.2237-0.013828-2.2072-0.4142-2.9531-1.1992-0.74591-0.78467-1.1652-1.8663-1.2578-3.2461h8.5273c0.025994-0.1577 0.045588-0.33712 0.058594-0.53711 0.012974-0.19962 0.019531-0.41031 0.019531-0.63281-0.008665-1.8282-0.44577-3.2691-1.3125-4.3203-0.86674-1.0515-2.1096-1.5882-3.7305-1.6094zm57.775 0c-1.6755 0.013828-3.0966 0.59338-4.2617 1.7402-1.1652 1.1468-1.7719 2.7842-1.8223 4.916h-0.00195c0.03735 2.1065 0.60684 3.7318 1.707 4.873 1.1002 1.1413 2.5081 1.7189 4.2227 1.7324 0.75947-0.003592 1.4885-0.15179 2.1894-0.43945 0.70097-0.28767 1.3405-0.68732 1.918-1.1992l-0.96094-1.4043c-0.37867 0.34901-0.81753 0.64558-1.3164 0.89062-0.49891 0.24468-1.0488 0.37207-1.6484 0.38281-1.175-0.020787-2.1147-0.46637-2.8184-1.3359-0.70367-0.86924-1.0642-2.0357-1.082-3.5 0.02173-1.4778 0.3954-2.6555 1.1191-3.5352 0.7237-0.87964 1.6682-1.3317 2.834-1.3535 0.50269 0.006914 0.95939 0.11192 1.3711 0.31641 0.41166 0.20414 0.80307 0.47174 1.1758 0.80274l1.0664-1.3789c-0.42526-0.41556-0.93897-0.76793-1.543-1.0566-0.604-0.2887-1.3202-0.4387-2.1484-0.45117zm9.4062 0c-1.4989 0.017284-2.804 0.61108-3.916 1.7773-1.1121 1.1666-1.6962 2.7932-1.752 4.8789h-0.00195c0.04121 2.0837 0.62846 3.7025 1.7617 4.8535 1.1332 1.151 2.5654 1.7353 4.2969 1.752 0.85589-0.010416 1.6276-0.13891 2.3144-0.38672 0.68687-0.24746 1.3018-0.55257 1.8457-0.91406l-0.75391-1.4043c-0.46588 0.30291-0.95674 0.54269-1.4746 0.71875s-1.076 0.26572-1.6719 0.26953c-1.2237-0.013828-2.2072-0.4142-2.9531-1.1992-0.74592-0.78467-1.1652-1.8663-1.2578-3.2461h8.5293c0.02599-0.1577 0.04364-0.33712 0.05664-0.53711 0.01297-0.19962 0.01953-0.41031 0.01953-0.63281-0.00867-1.8282-0.44577-3.2691-1.3125-4.3203-0.86675-1.0515-2.1096-1.5882-3.7305-1.6094zm-78.547 0.001953c-0.74484 0.013828-1.4575 0.18829-2.1406 0.52344-0.68309 0.33515-1.3129 0.74957-1.8887 1.2441h-0.078125l-0.18164-1.4551h-1.7695v17.967h2.1328v-4.2637l-0.050781-2.2109c0.58503 0.45852 1.1689 0.81626 1.7539 1.0703 0.58503 0.25404 1.1708 0.3829 1.7559 0.38672 1.4902-0.017374 2.7611-0.61433 3.8125-1.7969 1.0514-1.1826 1.5993-2.8547 1.6465-5.0156-0.004624-1.9866-0.43067-3.5525-1.2773-4.6973-0.8467-1.1448-2.0848-1.7287-3.7148-1.752zm24.064 0c-0.86404 0.013828-1.639 0.21966-2.3242 0.61719-0.68526 0.39754-1.3231 0.90356-1.9141 1.5156h-0.078125l-0.18164-1.8203h-1.7676v12.637h2.1309v-9.1523c0.62024-0.63875 1.1947-1.1232 1.7207-1.4531 0.52597-0.32995 1.105-0.49631 1.7383-0.49805 0.82772-0.006914 1.4346 0.26068 1.8203 0.80274 0.38568 0.54241 0.5766 1.4022 0.57227 2.5781v7.7227h2.1328v-8.0078c0.005163-1.6165-0.30456-2.8434-0.92969-3.6797-0.62513-0.83631-1.5993-1.2572-2.9199-1.2617zm35.605 0.3125v12.637h2.1309v-12.637h-2.1309zm-48.254 1.375c0.99456 0.006914 1.7612 0.3519 2.3008 1.0371 0.53952 0.6852 0.8138 1.6756 0.82031 2.9688h-6.7617c0.15492-1.2817 0.57437-2.2689 1.2559-2.959 0.68145-0.69005 1.4758-1.0392 2.3848-1.0469zm67.182 0c0.99455 0.006914 1.7612 0.3519 2.3008 1.0371 0.53953 0.6852 0.8138 1.6756 0.82031 2.9688h-6.7617c0.15493-1.2817 0.57438-2.2689 1.2559-2.959 0.68146-0.69005 1.4758-1.0392 2.3848-1.0469zm-79.143 0.10742c1.1852 0.020831 2.0383 0.44724 2.5605 1.2832 0.5222 0.83595 0.77839 1.9598 0.76758 3.3711-0.020562 1.5742-0.36322 2.8007-1.0273 3.6797-0.66412 0.87859-1.5272 1.324-2.5879 1.3379-0.42144 0.003592-0.89771-0.096173-1.4297-0.30273-0.53197-0.20622-1.0866-0.54723-1.6641-1.0234v-6.6309c0.62025-0.56078 1.2058-0.98656 1.7578-1.2773 0.55197-0.29113 1.0938-0.43611 1.623-0.4375z"/></svg>
