<svg width="136" height="32" version="1.1" xmlns="http://www.w3.org/2000/svg"><path d="m22.058 0.5c-1.2933 0-1.6687 1.6667-3.2109 1.6667-1.4844 0-2.5868-1.2444-3.9757-1.2444-1.3333 0-2.2022 0.90889-2.8733 2.7778 0 0-1.8689 5.2711-2.1089 6.0356a1.4289 1.4289 0 0 0-0.049045 0.43099c0 2.0489 8.067 8.7665 18.876 8.7665v0.0091c2.78 0 6.8021-0.57354 6.8021-3.8802a3.1111 3.1111 0 0 0-0.06901-0.75998l-1.6554-7.191c-0.38222-1.5822-0.71788-2.2999-3.4957-3.6888-2.1556-1.1022-6.8511-2.9223-8.24-2.9223zm70.345 7.0977-3.7778 0.81771v4.6515c-0.96169-0.5452-2.0504-0.82764-3.1558-0.81814-3.5978 0-6.4267 2.78-6.4267 6.3333-0.04355 3.5105 2.8004 6.3748 6.3112 6.3559 1.1922 0.0057 2.3548-0.37047 3.3177-1.0734l-0.0087 0.91971h3.74zm40.604 0.81337-3.7778 0.81771v3.1823h-2.5087v3.1558h2.5v5.4444c0 2.6422 1.5888 3.9266 4.4866 3.9266 0.89218-0.0222 1.779-0.14785 2.6424-0.3737v-3.0642c-0.55186 0.17489-1.1277 0.26191-1.7066 0.25781-1.1933 0-1.6358-0.37344-1.6358-1.4957v-4.6953h3.4579v-3.1558h-3.4579zm-82.395 0.00434v16.36h4.02v-5.9601h3.0599l3.0868 5.9601h4.5l-3.5998-6.5447c1.8717-0.76122 3.0924-2.5836 3.0842-4.6042 0-2.9444-2.3133-5.2114-5.7778-5.2114zm47.456 0-0.01562 16.367h4.02v-6.411h6.7309v6.4045h4.0312v-16.36h-4.0156v6.2869h-6.7309v-6.2869zm-88.991 3.3424c-3.7378 0.18667-8.5755 0.85346-8.5755 5.1246 0 6.9956 16.576 15.618 29.7 15.618 10.062 0 12.6-4.5512 12.6-8.1445 0-2.8267-2.4445-6.0354-6.8511-7.951h-0.0043c0.38444 1.82 0.38455 2.0109 0.38455 2.2509 0 3.1111-3.4977 4.8381-8.0955 4.8381-10.391 0.0067-19.493-6.0823-19.493-10.107a4.1 4.1 0 0 1 0.3355-1.6289zm45.56 0.09332h3.9757c1.3333 0 2.0799 0.84012 2.0799 1.8468 0 1.0067-0.74653 1.8464-2.0799 1.8464h-3.9757zm65.694 0.33333c-1.8933 0-3.7644 0.44436-5.7778 1.3555l1.3555 2.7821c1.4489-0.60889 2.6667-0.9822 3.74-0.9822 1.5556 0 2.3598 0.60679 2.3598 1.8468v0.60677c-0.91584-0.23707-1.8582-0.3551-2.8042-0.35113-3.18 0-5.0955 1.3334-5.0955 3.7179 0 2.1733 1.7288 3.8312 4.4866 3.8312l4e-3 -0.0069c1.3333 0 2.4092-0.28012 3.4136-0.9579v0.74913h3.7374v-7.9245c0-3.0133-2.0308-4.6667-5.4197-4.6667zm-48.751 0.01779c-3.5647-0.05379-6.4748 2.8374-6.4444 6.4023l-0.0043 0.0065c0 3.6 2.9443 6.4045 6.7287 6.4045 2.08 0 3.6-0.5622 5.1667-1.8711l-2.5022-2.2222c-0.58444 0.60889-1.4486 0.93533-2.4753 0.93533-1.3215 0.03722-2.5301-0.74264-3.0404-1.9622h8.8112v-0.93967c0-3.9267-2.64-6.7535-6.24-6.7535zm-0.077691 3.0755c1.1911 0 2.1955 0.77113 2.5933 1.9622h-5.1554c0.37333-1.2289 1.3087-1.9622 2.5621-1.9622zm14.498 0.17101c0.96075-0.01948 1.8936 0.32329 2.6133 0.96007v4.322c-0.70424 0.6654-1.6449 1.0224-2.6133 0.99132-1.8222 0-3.2491-1.3555-3.2491-3.1311v-0.0091c0-1.7778 1.4025-3.1332 3.2491-3.1332zm33.502 4.418c0.75658 0.0044 1.5099 0.09833 2.2444 0.27995v1.589c-0.7238 0.39534-1.5373 0.59644-2.362 0.5842-1.2133 0-1.9401-0.46674-1.9401-1.2378 0-0.81778 0.81995-1.2153 2.0577-1.2153z"/></svg>
