<svg width="177" height="32" version="1.1" viewBox="0 0 177 32" xmlns="http://www.w3.org/2000/svg"><path d="m48.551 0.0023621c-0.34887 0.029337-0.65469 0.324-0.65469 0.71214 0 1.3543 0.06807 3.2993 0.06891 5.0704-0.96023-0.97789-2.5776-1.5948-3.81-2.161-1.3996-0.64184-2.8436-1.1863-4.3138-1.6441-2.9597-0.91659-6.0229-1.4811-9.1034-1.7869-3.494-0.34865-7.0479-0.18238-10.488 0.52834-5.6659 1.1745-11.234 3.8996-15.462 7.8844-2.5951 2.4447-4.6321 5.9204-4.7699 9.4479-0.19659 4.9928 1.2032 7.6724 3.7739 10.436 4.0997 4.4038 12.923 5.0204 16.497-0.20182 1.608-2.3506 1.9562-5.5384 0.78924-8.1369-1.1669-2.5968-3.8492-4.474-6.6929-4.5697-2.207-0.07309-4.5589 1.0507-5.4049 3.0914-0.64519 1.5584-0.27778 3.4831 0.89754 4.6928 0.45786 0.47214 1.0786 0.85844 1.7557 0.70719 0.39905-0.08905 0.73204-0.38924 0.79254-0.79419 0.08905-0.59734-0.43302-0.98359-0.75479-1.4423-0.58049-0.82749-0.46416-2.0699 0.26254-2.773 0.61329-0.59394 1.5224-0.77044 2.3759-0.76794 0.79474 0.0017 1.6067 0.14403 2.2923 0.54474 0.96359 0.56709 1.6045 1.6053 1.8263 2.7025 0.66119 3.279-2.0057 5.9424-5.6199 6.1514-1.8491 0.10921-3.7302-0.3756-5.1734-1.5375-3.6553-2.9404-4.5503-8.9504-0.37247-12.159 3.9661-3.0454 8.9734-2.2604 11.926-0.67769 2.3624 1.266 4.1233 3.338 5.4574 5.6279 0.66959 1.1518 1.2395 2.3547 1.7688 3.577 0.50909 1.1753 0.98444 2.3599 2.0035 3.221 0.67459 0.57129 1.5085 0.55134 2.3924 0.55134h5.0439c0.68554 0 0.51889-0.45727 0.22316-0.75969-0.66874-0.68384-1.6307-0.83849-2.5203-1.0829-2.0339-0.55949-1.8263-3.2522-1.2634-3.2522 1.818 0 1.8759 0.05462 3.4688 0.03446 2.2986-0.03192 2.9934-0.16571 4.7913 0.49882 0.96109 0.3562 1.8852 1.2958 2.4875 2.1544 0.31504 0.45282 0.57659 0.89139 0.72359 1.3291 0.10417 0.31084 0.23812 0.71974 0.54474 0.88444 0.0168 0.0092 0.03238 0.01793 0.05087 0.02297 0.56289 0.20499 2.01 0.17065 2.01 0.17065h2.6615c0.22767 0.0034 2.2278-0.0029 2.1774-0.22644-0.24111-1.0695-1.4768-1.2602-2.4186-1.8197-0.86784-0.51749-1.6912-1.1044-2.0642-2.1134-0.19491-0.52089-0.07923-1.7216 0.25597-2.1594 0.24447-0.31672 0.60379-0.52719 0.99109-0.61204 0.42929-0.09157 0.87519-0.01251 1.3045 0.03118 0.52929 0.05377 1.0509 0.14942 1.5785 0.21495 1.0182 0.13274 2.0467 0.18524 3.0733 0.15752 1.6945-0.04704 3.3934-0.31697 4.9996-0.86474 1.1215-0.37637 2.2264-0.88504 3.18-1.5933 1.0837-0.80569 0.79859-0.72954-0.30027-0.61694-1.3156 0.13442-2.6428 0.15361-3.9626 0.07547-1.2316-0.07141-2.4467-0.21549-3.5606-0.78759-0.87709-0.45282-1.6295-0.90654-2.3251-1.608-0.10417-0.10585-0.16937-0.41625 0.02135-0.61369 0.18483-0.19155 0.57559-0.07952 0.69574 0.02297 1.2131 1.014 3.0228 1.8487 4.8963 1.9395 1.0132 0.05041 1.9986 0.0683 3.0126 0.02462 0.50659-0.02352 1.272-0.01957 1.7803-0.02462 0.26212-0.0033 0.97729 0.07297 1.1108-0.20511 0.0403-0.08065 0.0362-0.17508 0.0328-0.26582-0.1487-4.0544-0.44861-8.6274-4.6912-10.565-3.1656-1.4475-7.9109-3.6889-9.9154-4.619-0.11614-0.055239-0.23649-0.075419-0.35278-0.065639zm55.914 0.76789c-1.1341 0-2.0527 0.91854-2.0527 2.0527v13.801c0 3.2941 0.87378 5.7844 2.6221 7.4709 1.7491 1.6861 4.2977 2.5285 7.6449 2.5285 3.3445 0 5.8904-0.84244 7.6399-2.5285 1.7483-1.6861 2.6237-4.1767 2.6237-7.4709v-13.801c0-1.1341-0.92019-2.0527-2.0543-2.0527-1.1325 0-2.0527 0.91854-2.0527 2.0527v13.307c0 2.3834-0.49996 4.138-1.5014 5.2654s-2.5514 1.6917-4.6551 1.6917c-2.1053 0-3.6586-0.56429-4.66-1.6917-1.0014-1.1274-1.4997-2.8821-1.4997-5.2654v-13.307c0-1.1341-0.92104-2.0527-2.0543-2.0527zm36.226 0c-1.9776 0-3.7064 0.34248-5.1884 1.0272-1.4828 0.68384-2.6201 1.6094-3.4048 2.7747-0.78634 1.1669-1.1781 2.4592-1.1781 3.8789 0 1.3433 0.30948 2.482 0.93198 3.4195 0.61999 0.93924 1.6161 1.7244 2.9847 2.3579 1.3677 0.63429 3.2047 1.1656 5.5114 1.5965 2.307 0.43182 3.9221 0.92549 4.847 1.4833 0.92578 0.55784 1.3882 1.2921 1.3882 2.2037 0 1.1417-0.51245 2.0226-1.5408 2.6434-1.0249 0.62084-2.4388 0.93199-4.2383 0.93199-1.9012 0-3.4912-0.35418-4.7716-1.0649-0.73089-0.40577-1.3844-0.94339-1.9641-1.6129-0.72924-0.84599-2.0383-0.86684-2.8272-0.07712l-7e-3 0.0082c-0.72249 0.72084-0.77814 1.8921-0.0968 2.6516 2.1692 2.4212 5.4044 3.6312 9.7039 3.6312 1.9768 0 3.7206-0.29862 5.2294-0.89424 1.508-0.59479 2.6779-1.4498 3.5147-2.5646 0.83758-1.1157 1.2569-2.4096 1.2569-3.8806 0-1.3677-0.30407-2.5143-0.91229-3.4392-0.60909-0.92499-1.5776-1.6985-2.9092-2.3185-1.3299-0.62169-3.1246-1.135-5.3804-1.5407-2.4078-0.43266-4.081-0.94264-5.0179-1.5391-0.93839-0.59564-1.4078-1.3997-1.4078-2.4137 0-1.0888 0.48117-1.9838 1.4439-2.6811 0.96358-0.69559 2.3193-1.0452 4.0693-1.0452 1.7743 0 3.1944 0.34164 4.2596 1.0272 0.57294 0.36881 1.0933 0.85854 1.5637 1.4718 0.69394 0.89724 2.005 1.0154 2.8485 0.25597 0.79559-0.71744 0.86509-1.947 0.14931-2.7451-0.86364-0.96444-1.8464-1.7277-2.947-2.2906-1.6357-0.83674-3.6067-1.2552-5.9119-1.2552zm-56.144 0.006553c-1.9768 0-3.7064 0.34332-5.1884 1.0272-1.4836 0.68384-2.6176 1.6102-3.4031 2.7763-0.78549 1.1652-1.1781 2.4575-1.1781 3.8773 0 1.3433 0.30784 2.4853 0.93034 3.4212 0.62084 0.93839 1.617 1.7253 2.9847 2.3579 1.3685 0.63429 3.2071 1.1656 5.5134 1.5965 2.3061 0.43098 3.9212 0.92634 4.847 1.4833 0.92499 0.55699 1.3882 1.2913 1.3882 2.2037 0 1.1409-0.51334 2.0209-1.5391 2.6418-1.0274 0.62169-2.4413 0.93199-4.2399 0.93199-1.902 0-3.4921-0.35418-4.7716-1.0649-0.73004-0.40493-1.3861-0.94174-1.9641-1.6113-0.72924-0.84684-2.0383-0.86769-2.8288-0.07712l-0.0066 0.0082c-0.72249 0.72084-0.77814 1.8905-0.09681 2.65 2.1692 2.422 5.4044 3.6312 9.7054 3.6312 1.9768 0 3.7197-0.29862 5.2279-0.89424 1.508-0.59479 2.6796-1.4514 3.5164-2.5663 0.83674-1.114 1.2552-2.408 1.2552-3.8773 0-1.3685-0.30407-2.5151-0.91229-3.4409-0.60909-0.92579-1.5768-1.6977-2.9092-2.3185-1.3299-0.62169-3.1238-1.1333-5.3804-1.5391-2.4078-0.43266-4.0801-0.94509-5.0179-1.5407-0.93839-0.59564-1.4062-1.4005-1.4062-2.4153 0-1.0888 0.48117-1.983 1.4439-2.6795 0.96359-0.69644 2.3202-1.0452 4.0693-1.0452 1.7726 0 3.1936 0.34332 4.258 1.0272 0.57464 0.36881 1.0949 0.85939 1.5654 1.4718 0.69224 0.89894 2.0034 1.0171 2.8469 0.25761 0.79644-0.71829 0.86509-1.9479 0.14931-2.7451-0.86359-0.96526-1.8456-1.7293-2.9453-2.2922-1.6349-0.83589-3.6075-1.2552-5.9134-1.2552zm79.194 0.3167c-2.8564 0-5.1819 2.3245-5.1819 5.1834v14.836c0 2.8581 2.3254 5.1819 5.1819 5.1819h11.389c0.99133 0 1.7951-0.80209 1.7951-1.7934 0-0.99219-0.80374-1.7951-1.7951-1.7951h-11.389c-0.87794 0-1.5916-0.71449-1.5916-1.5933v-5.7529h10.992c0.94428 0 1.7098-0.76629 1.7098-1.7114 0-0.94514-0.76549-1.7114-1.7098-1.7114h-10.992v-5.6609c0-0.87874 0.71369-1.5933 1.5916-1.5933h11.389c0.99133 0 1.7951-0.80289 1.7951-1.7951 0-0.99134-0.80374-1.7951-1.7951-1.7951zm-105.99 5.0094c0.33048-0.01135 0.67094 0.02098 1.0157 0.10173 1.4038 0.32849 2.52 1.4422 2.8502 2.8469 0.64859 2.7589-1.8305 5.2394-4.5894 4.5911-1.4047-0.32932-2.52-1.443-2.8502-2.8469-0.56604-2.4126 1.2604-4.6134 3.5738-4.6928zm1.672 3.303c-0.26485 1.05e-4 -0.53024 0.10303-0.73019 0.31012-0.4503 0.44778-0.39703 1.2228 0.16081 1.5933 0.34109 0.22599 0.79684 0.22599 1.1371 0 0.55614-0.37049 0.61024-1.1446 0.1608-1.5933-0.19995-0.20667-0.46369-0.31023-0.72854-0.31012z"/></svg>
