<svg id="buggie-wave-hand-overlay" width="0" height="0" version="1.1" viewBox="0 0 80 360" xmlns="http://www.w3.org/2000/svg" opacity="0">
 <g id="buggie-wave-hand-top">
  <path d="m48.38 152.33 2e-3 8.9688-0.01172-0.0293-6.3359-1.5664c-5.7205-1.4154-7.0419 8.3932-1.0586 8.9844l7.4082 0.73242 2e-3 3.7559-10.121-0.35157c-6.8406-0.23788-7.8816 10.855 0.46484 10.08l9.6582-0.89648 2e-3 4.25-4.168 0.43945c-7.973 0.83745-6.3587 10.687 1.5977 9.9746 2.3548-0.21089 9.7892-0.45318 10.762-9.6992 0.4536-4.3127-3.167-5.1374-4.7266-5.2969l-0.01367-0.0449c1.925-0.0317 7.4603-0.55812 7.9766-5.6699 0.65521-6.4871-8.2305-6.127-8.2305-6.127s6.6642-0.86863 6.6465-6.5273c-0.02128-6.7818-9.8535-10.977-9.8535-10.977z" fill="#fff"/>
  <path d="m48.39 151.18v2.2559c0.77282 0.36914 2.5396 1.2692 4.2988 2.625 2.347 1.8087 4.5358 4.334 4.5449 7.2422 0.0076 2.4366-1.3286 3.689-2.8027 4.5078-1.0204 0.56675-2.0199 0.82734-2.5586 0.9414l-10.797-1.0664c-1.2229-0.12084-1.9414-0.6494-2.4199-1.3965-0.47852-0.74709-0.66938-1.7608-0.54688-2.7285s0.5549-1.8561 1.1641-2.3887c0.60916-0.53261 1.3407-0.68905 2.5215-0.50586 2.3643 0.3668 3.7901 0.67233 7.5469 0.83594-3.379-1.7937-4.8226-2.224-7.0664-2.7793-0.85012-0.21041-1.6639-0.20531-2.3984-0.0332-0.73453 0.17212-1.3897 0.51297-1.9199 0.97656-1.0605 0.92719-1.6571 2.2608-1.832 3.6426-0.17492 1.3818 0.06985 2.8442 0.84766 4.0586 0.77781 1.2143 2.1365 2.1446 3.9062 2.3086 3.6804 0.34114 7.3959 0.80171 11.064 1.0586 0.64585 0.0452 2.2058 0.17132 3.6855 0.66992 0.95855 0.32297 1.8393 0.81426 2.416 1.498 0.57667 0.68379 0.92048 1.5514 0.7793 2.9492-0.13443 1.3309-0.63297 2.2055-1.3242 2.8789-0.69125 0.67342-1.6036 1.1474-2.5508 1.4199-1.4154 0.40731-2.982 0.51176-4.3691 0.64062l-11.941 1.1094c-1.8698 0.17371-3.0343-0.3008-3.7734-1.0078-0.73911-0.70702-1.092-1.722-1.0625-2.8066 0.02947-1.0847 0.4572-2.2015 1.2051-3.002 0.74788-0.80043 1.7846-1.3497 3.2227-1.2676 3.2983 0.18827 7.8048 0.084 11.938-0.58593-5.0317-0.86742-8.5096-1.2953-11.869-1.4121-1.9808-0.0689-3.6416 0.71206-4.752 1.9004s-1.7017 2.7506-1.7441 4.3125c-0.04243 1.5619 0.48023 3.1593 1.6797 4.3066 1.1995 1.1474 3.0365 1.7687 5.3398 1.5547l13.064-1.2148c0.48822 0.0612 1.1428 0.18946 1.7734 0.47656 0.59111 0.26924 1.1155 0.65295 1.4707 1.209 0.35523 0.55604 0.58171 1.3107 0.45703 2.4961-0.45861 4.3603-2.3156 6.3544-4.3477 7.4648s-4.2732 1.233-5.5098 1.3438c-3.5797 0.32059-5.3688-1.5344-5.6777-3.4336-0.30898-1.8992 0.77263-3.8959 4.3203-4.5566 2.1748-0.40508 3.0373-0.66331 6.3145-1.9707-3.1637-0.069-4.5391-0.32275-6.6152-8e-3 -4.3582 0.66119-6.4767 3.8894-5.9941 6.8555 0.48255 2.966 3.4554 5.4974 7.832 5.1055 1.1183-0.10015 3.7722-0.20473 6.2891-1.5801 2.5169-1.3754 4.8631-4.126 5.377-9.0117 0.1626-1.5459-0.1479-2.8235-0.75976-3.7812-0.33415-0.52303-0.74907-0.92615-1.1914-1.2617 1.124-0.35625 2.3017-0.91652 3.2715-1.8613 0.99505-0.96939 1.7381-2.35 1.916-4.1113 0.18642-1.8457-0.33516-3.3663-1.2402-4.4394s-2.1238-1.7076-3.3047-2.1055c-0.23941-0.0807-0.42131-0.0659-0.6582-0.12891 1.788-1.0633 3.6347-2.9859 3.625-6.082-0.01216-3.8735-2.7495-6.8361-5.3242-8.8203s-5.5195-3.2969-5.5195-3.2969z" fill="#000000"/>
 </g>
</svg>
