<svg id="buggie-wave" width="250" height="360" version="1.1" viewBox="0 0 250 360" xmlns="http://www.w3.org/2000/svg" opacity="0">
	<g id="antenna-left">
		<path d="m93.92 105.22c-0.0333-0.0492-0.39974-31.938-10.25-57.834-7.7413-20.206-20.781-36.338-43.753-31.713l-0.37314-1.8397c24.214-4.9041 38.184 12.44 45.882 32.886 9.9996 26.336 10.364 58.428 10.374 58.48z" fill="#000000"/>
		<path d="m38.67 14.257c0.77762 2.0469-0.25104 4.3377-2.2988 5.1157-2.046 0.77729-4.3371-0.25231-5.1147-2.2992-0.77729-2.046 0.25231-4.3371 2.2982-5.1143 2.0478-0.77797 4.3381 0.25193 5.1153 2.2978z" fill="#5a222f" stroke="#000000" stroke-width="2"/>
	</g>
	<g id="antenna-right">
		<path d="m97.08 91.022c0.0678-0.05468 2.9978-49.828 36.258-62.628 9.3018-3.5339 20.919-4.0711 35.329 0.2256l-0.54327 1.7992c-14.104-4.1995-25.25-3.6362-34.118-0.26714-15.845 6.0042-24.653 21.168-29.462 34.963-4.8046 13.776-5.5887 26.002-5.588 26.03z" fill="#000000"/>
		<path d="m174.04 29.154c0.77762 2.0469-0.25104 4.3377-2.297 5.115-2.0469 0.77764-4.3371-0.25232-5.1147-2.2992-0.77729-2.046 0.2514-4.3367 2.2982-5.1143 2.0459-0.77728 4.3363 0.2526 5.1136 2.2985z" fill="#5a222f" stroke="#000000" stroke-width="2"/>
	</g>
	<g>
		<g stroke="#000000" stroke-width="2">
			<path d="m98.71 169.62c-24.156 7.1e-4 -43.737 25.6-43.737 57.177 0 0 88.127 0.23887 87.481 0-8e-5 -31.579-19.584-57.18-43.74-57.177z" fill="#000000"/>
			<path d="m144.91 241.61c-0.31725-58.135-22.563-64.492-46.733-64.179-17.964 0.23244-45.667 9.5976-44.157 63.654 0.72109 25.813 25.056 40.336 45.295 40.435 20.198 0.0987 45.74-13.447 45.595-39.91z" fill="#c7584d"/>
			<path d="m143.15 106.56c5.5699-12.664 3.8116-31.187-5.0026-41.348-4.7376-5.4614-11.641-9.4212-23.423-1.5128-8.3701 5.6183-11.767 19.373-11.767 19.373-3.7103-1.401-8.8229-1.223-12.88 0.0038 0 0-4.4338-11.355-9.8324-16.218-8.8214-7.9461-16.893-9.4696-27.082 2.4947-7.714 9.058-10.362 26.868-4.4844 37.89 2.3504 4.4069-2.0581 6.1886-2.2988 21.535-0.21279 13.59 8.6192 21.103 25.798 29.779 1.2483 0.6305 6.793 2.8204 10.811 4.2342l-0.74177 18.474c9.4666 5.6568 19.26 7.3478 29.844-0.53371l0.41665-18.649c4.2777-1.7587 8.8539-4.3869 10.386-5.2604 13.55-7.7272 24.066-14.463 23.859-29.184-0.23886-17.064-5.766-16.162-3.6037-21.079z" fill="#f6bd6d"/>
		</g>
		<g fill="#000000">
			<path d="m102.37 82.706 1.5664 0.54731c-1.2305 3.5287-1.829 11.443-2.3769 15.064-1.3421-6.6849 0.25285-13.972 0.81045-15.611z"/>
			<path d="m94.17 148.41c-7.5594 0.32579-13.926-2.4423-19.854-6.9713 6.6762 3.5638 21.216 6.5718 27.306 4.4243-1.8847 2.8049-5.5661 2.4538-7.4525 2.5471z"/>
			<path d="m81.4 161.23-0.41174 1.8218c2.4908 0.36359 9.3649 1.6759 14.423 0.0431-4.7648 0.25852-9.4091-0.66459-14.011-1.8649z"/>
		</g>
		<path d="m111.07 178.31c-5.1814 3.6032-10.057 4.0301-14.369 4.1688-4.3117 0.13871-7.5662-1.3062-11.614-4.3612-1.2749-0.96208-4.2694-2.2544-6.5783 0.55132-1.6921 2.0562-0.38646 4.7422 1.7434 6.5499 4.6809 3.9734 11.157 5.763 16.842 5.5801 5.6852-0.18293 12.279-2.5428 18.136-6.5435 2.3593-1.6114 3.6313-4.8023 1.8528-6.7446-1.9709-2.1522-4.3026-0.39065-6.0132 0.79892z" fill="#ffffff" stroke="#000000" stroke-width="2"/>
		<g fill="#000000">
			<path d="m90.85 83.197-1.532 0.6373c1.4332 3.4514 1.7819 10.545 2.539 14.128 0.48623-7.7809-0.35528-13.161-1.007-14.765z"/>
			<path d="m96.25 105.01c-4.8045-0.0518-7.9022 0.77333-14.692 7.1051 5.3662-3.7744 10.179-5.108 14.72-4.9882 4.5407 0.11982 8.846 1.7157 13.096 3.9587-4.571-5.4826-8.4529-6.0253-13.123-6.076z"/>
			<path d="m139.85 104.56c-1.7215 3.5631-4.7114 6.9219-13.78 8.0913-8.4519 1.0899-15.777-2.4375-17.221-16.675-0.80097-7.8959 2.1781-15.939 5.0757-21.18 1.9406-3.51 6.3044-7.0605 10.275-6.663 5.7488 0.57536 10.669 4.5792 14.86 17.327 1.4255 4.3361 2.6319 15.288 0.79025 19.1z"/>
		</g>
		<path d="m113.79 75.106c2.722-5.9277 6.7493-10.844 12.489-11.252 9.2986-0.66014 12.984 11.683 14.575 20.134 1.2976 6.8969 3.0794 15.136-0.99548 20.57-2.7174 3.6237-7.0769 5.2428-11.176 6.2826-12.713 3.2244-16.788-6.9242-18.179-14.397-1.3145-7.0625 0.35868-14.961 3.2869-21.338z" fill="#ffffff"/>
		<ellipse transform="matrix(.9767 -.21463 .16107 .98694 0 0)" cx="107.88" cy="116.61" rx="9.9361" ry="14.663" fill="#000000"/>
		<ellipse transform="matrix(.9767 -.21463 .16107 .98694 0 0)" cx="105.14" cy="113.45" rx="4.1128" ry="5.8531" fill="#ffffff"/>
		<path d="m54.17 106.02c1.7215 3.5631 4.7113 6.9219 13.78 8.0913 8.4518 1.0899 15.777-2.4375 17.221-16.675 0.80096-7.8959-2.1781-15.939-5.0757-21.18-1.9406-3.51-6.3044-7.0605-10.275-6.663-5.7487 0.57536-10.669 4.5791-14.86 17.327-1.4255 4.3361-2.6319 15.288-0.79026 19.1z" fill="#000000"/>
		<path d="m80.22 76.56c-2.722-5.9277-6.7493-10.844-12.489-11.252-9.2986-0.66013-12.984 11.683-14.575 20.134-1.2976 6.8968-3.0794 15.136 0.99549 20.57 2.7174 3.6237 7.0769 5.2428 11.176 6.2826 12.713 3.2245 16.788-6.9242 18.179-14.397 1.3145-7.0625-0.35868-14.961-3.2869-21.338z" fill="#ffffff"/>
		<ellipse transform="matrix(-.9767 -.21463 -.16107 .98694 0 0)" cx="-84.471" cy="76.073" rx="9.9361" ry="14.663" fill="#000000"/>
		<ellipse transform="matrix(-.9767 -.21463 -.16107 .98694 0 0)" cx="-81.251" cy="72.491" rx="4.1128" ry="5.8531" fill="#ffffff"/>
	</g>
	<g stroke="#000000">
		<path d="m188.71 324.99s-0.3103-12.089 8.9367-16.211c13.809-6.1556 22.745 0.88233 27.799 10.964-1.5847 10.337-6.4428 13.496-47.038 27.851-4.7066-4.3433-5.6607-7.698-7.6773-16.34-0.26348-1.1291-2.4917-0.73875-3.6201-2.8657-3.7998-7.1622 18.376-13.448 19.344-7.8849l3.8013-3.8029c-1.4908 2.6078-1.9445 5.3809-1.5462 8.2899z" fill="#986a44" stroke-width="2"/>
		<path d="m137.14 271.34c16.459 8.0505 32.026 24.398 39.319 49.682" fill="none" stroke-linecap="round" stroke-width="12"/>
		<path d="m128.84 270.43-5.3928 4.3391 6.333 8.0638 17.909-17.979-7.2836-5.1792-5.8392 5.4321" fill="#c7584d" stroke-width="2"/>
		<path d="m169.84 329.82 0.20152 1.2219c2.3699 0.74236 5.0929-0.0593 6.7512-1.787-2.4731 0.76602-4.8668 1.1391-6.9528 0.56518z" fill="#000000"/>
		<path d="m174.26 343.72c28.551-10.776 44.871-14.897 49.288-27.637" fill="none" stroke-width="2"/>
		<path d="m188.07 324.06c-0.0139 1.7226 0.14602 3.1763 1.3601 4.3997-0.0981-1.4558-0.19638-2.4284-0.18603-4.375z" fill="#000000"/>
	</g>
	<g id="buggie-arm" stroke="#000000" stroke-width="2">
		<path d="m130.39 198.55c20.181-4.0952 34.663-11.25 44.166-21.378 9.5032-10.128 13.547-23.038 13.612-36.843l-13.729-2.3072c-0.0551 11.605-3.0995 20.944-10.357 28.679-7.2573 7.7344-19.205 14.059-37.81 17.835" fill="#c7584d"/>
		<path d="m195.59 145.97-29.628-3.4298 4.5401-4.1084c-4.3974-2.7435-6.37-7.1236-9.419-10.955-2.1179-5.9232-3.2943-7.8107-3.3748-13.585-0.0957-6.8664 5.0864-7.3862 8.2645-0.71936l2.3258 8.1906 2.2696 1.4494 0.37508-9.8764 2.7936-20.856c0.95233-7.1099 9.3866-6.5469 9.0287 1.3318l-1.2243 22.149 7.9967-23.49c2.5824-7.5857 11.483-3.6863 8.7289 3.6531l-6.7567 21.987 8.9189-15.485c3.1113-5.4018 9.8973-0.32807 6.9783 5.1488l-8.3728 15.709c-0.18936 6.5108-4.3549 14.192-5.8352 17.223z" fill="#ffffff"/>
	</g>
	<path d="m132.15 189.38 2.8628 3.7978 3.9511 11.81 2.4822 11.118-23.569 1.6131-7.8217-25.91z" fill="#c7584d"/>
</svg>
