<svg id="buggie-wave-hand" width="0" height="0" version="1.1" viewBox="0 0 80 360" xmlns="http://www.w3.org/2000/svg" opacity="0">
 <path d="m40.395 150.88c-6.4011 0.09329-11.927 3.0923-17.91 5.625l-4.3926-5.4375-3.6172 31.953 5.0312-1.5117 3.293 13.396 9.4961 6.959c3.1383 2.2997 8.3538-3.1619 4.8223-6.0352l-6.9414-5.6484 0.11914-3.457c1.763 1.1057 5.2847 2.4537 8.8418 3.6445-0.80474 3.0345 1.6902 6.7479 6.6836 6.3008 2.3548-0.21089 9.7889-0.45321 10.762-9.6992 0.4536-4.3127-3.167-5.1374-4.7266-5.2969l-0.013672-0.04492c1.925-0.0317 7.4603-0.55815 7.9766-5.6699 0.65521-6.4871-8.2305-6.127-8.2305-6.127s6.6642-0.86868 6.6465-6.5273c-0.02122-6.7626-9.7884-10.949-9.8438-10.973v-0.02343c-2.8527-1.0555-5.4913-1.4642-7.9961-1.4277z" fill="#fff"/>
 <path d="m40.381 149.88c-2.0401 0.0285-3.9899 0.33665-5.875 0.82421-4.0666 1.0518-7.8461 2.9021-11.723 4.5742l-3.916-4.8438c-0.55778-0.69007-1.6712-0.36599-1.7715 0.51563l-3.6152 31.955c-0.08069 0.71315 0.59389 1.2766 1.2812 1.0703l4.0234-1.2109 3.043 12.377c0.0561 0.22734 0.19019 0.42779 0.37891 0.56641l9.4961 6.959c1.0433 0.76452 2.3173 0.88444 3.4219 0.58984 1.1046-0.29461 2.0854-0.95939 2.834-1.8164 0.7486-0.85702 1.2791-1.9247 1.334-3.0898 0.05492-1.1652-0.44829-2.4085-1.5449-3.3008l-6.5547-5.334 0.046875-1.3438c2.3683 1.3763 4.1752 2.1804 6.7969 2.873-0.039056 0.4347-0.029325 0.87237 0.041016 1.3047 0.48255 2.966 3.4554 5.4974 7.832 5.1055 1.1183-0.10015 3.7722-0.20471 6.2891-1.5801 2.5169-1.3754 4.8631-4.126 5.377-9.0117 0.1626-1.5459-0.14791-2.8236-0.75977-3.7812-0.33415-0.52303-0.74908-0.92617-1.1914-1.2617 1.124-0.35625 2.3017-0.91655 3.2715-1.8613 0.99505-0.96939 1.7381-2.35 1.916-4.1113 0.18642-1.8457-0.3352-3.3664-1.2402-4.4394s-2.1238-1.7076-3.3047-2.1055c-0.23941-0.0807-0.42131-0.06589-0.6582-0.1289 1.788-1.0633 3.6347-2.9859 3.625-6.082-0.01216-3.8735-2.7495-6.8361-5.3242-8.8203-2.5747-1.9842-5.5195-3.2969-5.5195-3.2969-2.633-0.97423-4.7676-1.2283-7.1289-1.2891-0.29516-0.00759-0.58941-0.00993-0.88086-0.00585zm0.16602 2.0664c2.4823 0.01618 5.1006 0.46942 7.8438 1.4844 0.77282 0.36914 2.5396 1.2692 4.2988 2.625 2.347 1.8087 4.5358 4.334 4.5449 7.2422 0.0076 2.4366-1.3286 3.689-2.8027 4.5078-1.0204 0.56675-2.0199 0.82734-2.5586 0.9414l-10.797-1.0664c-1.2229-0.12084-1.9414-0.64939-2.4199-1.3965-0.47852-0.74709-0.66938-1.7608-0.54688-2.7285s0.55486-1.8561 1.1641-2.3887c0.60916-0.53261 1.3407-0.68905 2.5215-0.50586 2.3643 0.3668 3.7901 0.67232 7.5469 0.83593-3.379-1.7937-4.8226-2.224-7.0664-2.7793-0.85012-0.21041-1.6639-0.20532-2.3984-0.03321-0.73453 0.17212-1.3897 0.51298-1.9199 0.97657-1.0605 0.92718-1.6571 2.2608-1.832 3.6426-0.17492 1.3818 0.069847 2.8442 0.84766 4.0586 0.77781 1.2143 2.1366 2.1446 3.9062 2.3086 3.6804 0.34114 7.3944 0.80171 11.062 1.0586 0.64585 0.04519 2.2058 0.17132 3.6855 0.66992 0.95855 0.32297 1.8393 0.8143 2.416 1.498 0.57667 0.68379 0.92048 1.5514 0.7793 2.9492-0.13443 1.3309-0.63299 2.2055-1.3242 2.8789-0.69125 0.67342-1.6036 1.1474-2.5508 1.4199-1.4154 0.40731-2.982 0.51177-4.3691 0.64063l-11.939 1.1094c-1.8698 0.17371-3.0343-0.30081-3.7734-1.0078-0.73911-0.70702-1.092-1.722-1.0625-2.8066 0.02947-1.0847 0.45718-2.2015 1.2051-3.002 0.74788-0.80042 1.7846-1.3497 3.2227-1.2676 3.2983 0.18827 7.8043 0.08399 11.938-0.58594-5.0317-0.86742-8.5097-1.2953-11.869-1.4121-1.9808-0.0689-3.6416 0.71205-4.752 1.9004s-1.7017 2.7506-1.7441 4.3125c-0.04243 1.5619 0.48022 3.1593 1.6797 4.3066 1.1995 1.1474 3.0365 1.7687 5.3398 1.5547l13.064-1.2148c0.48822 0.0612 1.1428 0.18947 1.7734 0.47657 0.59111 0.26924 1.1155 0.65293 1.4707 1.209 0.35523 0.55604 0.58171 1.3107 0.45703 2.4961-0.45861 4.3603-2.3156 6.3544-4.3477 7.4648s-4.2732 1.233-5.5098 1.3438c-3.5797 0.32059-5.3688-1.5344-5.6777-3.4336-0.30898-1.8992 0.77265-3.896 4.3203-4.5566 2.1748-0.40508 3.0373-0.66331 6.3145-1.9707-3.1637-0.069-4.5391-0.32256-6.6152-0.00781-2.7622 0.41906-4.6213 1.8698-5.4922 3.6309-3.0494-0.76809-4.4737-1.394-7.7539-3.4512-0.65259-0.40764-1.5018 0.0436-1.5293 0.8125l-0.11914 3.457c-0.01116 0.31275 0.12472 0.61269 0.36719 0.81054l6.9434 5.6465c0.66911 0.5444 0.83664 1.0614 0.80859 1.6562-0.02804 0.59497-0.33535 1.2893-0.8418 1.8691-0.50644 0.57982-1.1979 1.027-1.8438 1.1992-0.64584 0.17225-1.1988 0.11385-1.7246-0.27149l-9.2031-6.7441-3.207-13.045c-0.13681-0.55503-0.71019-0.88267-1.2578-0.71875l-3.5781 1.0762 3.1758-28.07 2.8906 3.5781c0.28083 0.34666 0.75728 0.46537 1.168 0.29101 4.2015-1.7788 8.1031-3.7376 12.131-4.7793 1.7622-0.45574 3.6103-0.70789 5.541-0.69531z" fill="#000"/>
</svg>
