<svg width="512" height="300" version="1.1" viewBox="0 0 512 300" xmlns="http://www.w3.org/2000/svg" role="img" aria-label="[title + description]">
 <title>Buggie following fox tracks</title>
 <desc>Buggie, the Bugzilla's mascot, dressed up in a Detective's outfit, consisting of a shirt and brown suit, with brown shorts, short brown shoes and a deerstalker hat, bent over with its left hand on its knee, and a loupe in its right hand, looking down at five fox prints arranged in a line. It has a concerned expression on its face.</desc>
 <g stroke-linecap="round" stroke-linejoin="round">
  <g fill="none" stroke="currentColor" stroke-width="2">
   <path d="m244.95 249.88c-0.76781 4.6e-4 -1.511 0.23736-1.7188 0.84182-0.32991 0.95985 1.0394 1.9961 2.0117 2.2871 0.84152 0.2521 2.2349 0.12586 2.541-0.69728 0.3044-0.81887-0.65498-1.841-1.4609-2.1777-0.37796-0.15798-0.88086-0.25436-1.373-0.25398zm-5.3496 0.50979c-0.80861 0.0189-1.7025 1.951-4.0078 2.8438-3.2454 1.2567-7.8242 1.5986-7.8242 2.5508 0 1.0134 3.569 0.57309 7.0762 0.53907 3.1868-0.0302 6.5896 0.42471 7.1445-0.24038 0.51828-0.62101-1.1484-1.682-1.6484-2.9473-0.45429-1.1494 0.32765-2.5284-0.6211-2.7344-0.0395-8e-3 -0.0794-0.0113-0.11913-0.0113zm8.8692 1.6856c-0.20947 4e-3 -0.39592 0.068-0.52149 0.21884-0.37823 0.45396 0.0486 1.3568 0.53711 1.6894 0.46437 0.31634 1.379 0.3583 1.6816-0.11528 0.26135-0.40872-0.13807-1.0597-0.51953-1.3594-0.29446-0.23131-0.77784-0.44111-1.1777-0.43359zm-1.8672 3.5156c-0.74657 0.0113-1.4577 0.25096-1.6602 0.83985-0.32992 0.95984 1.0394 1.9961 2.0117 2.2871 0.84152 0.2521 2.235 0.12624 2.541-0.69725 0.30441-0.81887-0.65497-1.839-1.4609-2.1758-0.39308-0.16441-0.92083-0.2623-1.4316-0.25399zm3.4336 2.3555c-0.20946 4e-3 -0.39592 0.068-0.52148 0.21884-0.37823 0.45396 0.0486 1.3568 0.53711 1.6894 0.46437 0.31634 1.3771 0.3583 1.6797-0.11528 0.26136-0.40872-0.1361-1.0597-0.51757-1.3594-0.29447-0.23131-0.77784-0.44107-1.1777-0.43359zm-15.807 1.0879c-0.76782 4.2e-4 -1.511 0.23736-1.7188 0.84178-0.32992 0.95985 1.0374 1.9961 2.0098 2.2871 0.55145 0.16516 1.34 0.16932 1.9043-0.0801-0.23954 0.47716 0.15636 1.271 0.60742 1.5781 0.46438 0.31635 1.379 0.3583 1.6816-0.11527 0.26136-0.40876-0.13806-1.0597-0.51953-1.3594-0.32953-0.25889-0.89313-0.49099-1.3144-0.42187 0.0784-0.0873 0.13977-0.18633 0.18164-0.29896 0.30441-0.81887-0.65497-1.839-1.4609-2.1758-0.37797-0.15798-0.87891-0.25625-1.3711-0.25587zm9.1426 0.15043c-0.74657 0.0113-1.4577 0.25096-1.6602 0.83985-0.32991 0.95985 1.0394 1.9961 2.0117 2.2871 0.84152 0.2521 2.235 0.12624 2.541-0.69728 0.3044-0.81887-0.65498-1.839-1.4609-2.1758-0.39308-0.16441-0.92083-0.2623-1.4316-0.25399zm3.3223 2.5371c-0.19793 8e-3 -0.37428 0.0748-0.49414 0.21884-0.37822 0.45396 0.0486 1.3568 0.53711 1.6894 0.46437 0.31634 1.379 0.35829 1.6816-0.11528 0.26136-0.40872-0.13806-1.0596-0.51953-1.3594-0.30149-0.23697-0.79982-0.45195-1.2051-0.43362z"/>
   <path d="m312.97 239.1c-0.20182-0.062-0.41507-0.09-0.60794-0.0748-0.56114 0.0446-1.328 0.47434-1.3483 0.91333-0.31181-0.64358-1.2851-0.66089-2.238-0.55544-0.77239 0.0854-1.8715 0.32315-1.7667 0.94152 0.15911 0.91963 1.214 0.95195 2.3489 0.76509 0.67014-0.10999 1.7579-0.382 1.7335-0.89503 0.3239 0.49436 1.5188 0.57467 2.1867 0.35905 0.33864-0.10961 0.64909-0.46394 0.56821-0.74955-0.0881-0.30993-0.46224-0.57759-0.87636-0.70447zm5.1947 2.7877c-0.19351-0.0559-0.39651-0.0805-0.58042-0.0658-0.56115 0.0446-1.328 0.47429-1.3484 0.91328-0.31105-0.64357-1.2843-0.66258-2.237-0.55714-0.7731 0.0854-1.8746 0.32391-1.7676 0.94322l2e-3 -3e-3c0.15836 0.92119 1.2117 0.9555 2.3473 0.76853 0.67011-0.11036 1.7578-0.38207 1.7334-0.89507 0.32428 0.49387 1.5191 0.57457 2.1868 0.35906 0.33827-0.10961 0.65-0.46564 0.56908-0.75122-0.0896-0.31748-0.4792-0.58855-0.9047-0.71169zm1.1738 3.0334c0-0.17348-0.4151-0.0899-0.6079-0.0745-0.56118 0.0446-1.3281 0.47429-1.3484 0.91328-0.31105-0.64358-1.2842-0.66259-2.2371-0.55714-0.77242 0.0854-1.8723 0.32504-1.7676 0.94322 0.15912 0.9196 1.214 0.95195 2.349 0.76513 0.67011-0.10999 1.7557-0.38276 1.7313-0.89579 0.32352 0.49493 1.5207 0.57551 2.1889 0.35981 0.33865-0.1096 0.64804-0.46666 0.56701-0.75194-0.0881-0.31029-0.87512-0.34696-0.87512-0.70204zm-17.21-4.35c-0.57207-0.18066-1.1246-0.14476-1.6777 0.24794-1.5159 1.0751 1.1969 2.3251 2.248 4.2343 1.0939 1.9867 0.59856 4.6181 2.6806 4.8758 1.195 0.14778 0.41291-1.4473 1.3701-2.3276 1.0071-0.9259 3.7176-1.1668 3.5119-2.1723-0.24869-1.2176-2.6899-1.2194-4.2143-2.2243-1.4972-0.98695-2.7474-2.2644-3.9187-2.6339zm14.398 7.7805c-0.20258-0.062-0.4151-0.0899-0.60793-0.0748-0.56107 0.0446-1.328 0.4743-1.3483 0.91329-0.31143-0.64347-1.2843-0.66255-2.2371-0.5571-0.77307 0.0854-1.8745 0.3239-1.7676 0.94322l2e-3 -3e-3c0.15836 0.92115 1.2117 0.95547 2.3473 0.76853 0.67015-0.11036 1.7579-0.38211 1.7334-0.8951 0.32391 0.49432 1.5188 0.57467 2.1868 0.35905 0.33827-0.1096 0.64996-0.46571 0.56916-0.75133-0.0881-0.30992-0.46315-0.57585-0.87731-0.70273z"/>
   <path d="m360.89 259.84c-1.3381 0.0151-3.2714 0.82072-3.1526 1.9161 0.11112 1.0235 2.1026 1.2169 3.2941 1.1972 0.89321-0.0151 2.2449-0.18709 2.6691-0.81056 0.40989 0.59312 1.6619 0.85909 2.4666 0.72915 0.66875-0.1081 1.4844-0.69381 1.4053-1.2768-0.0915-0.67687-1.1938-1.1454-1.9832-1.1191-0.63039 0.0189-1.4895 0.34848-1.8514 0.81389-0.36321-0.78153-1.6807-1.3984-2.6553-1.4464-0.0627-3e-3 -0.12699-4e-3 -0.19275-3e-3zm-7.5434 3.198c-0.23509-1.1e-4 -0.46579 0.068-0.69774 0.22904-1.2003 0.83184 1.3559 2.2458 1.5704 3.8695 0.21581 1.6344-1.902 3.4784-0.51493 4.0747 1.9182 0.82458 2.2377-1.85 4.3594-3.2099 1.5084-0.96681 2.7783-0.19616 2.6258-1.5041-0.19842-1.7023-0.83538-0.87314-3.2508-1.4549-1.746-0.42051-2.9599-2.0038-4.0921-2.0043zm12.913 1.2497c-1.3381 0.0151-3.2715 0.82242-3.1526 1.9178 0.11112 1.0235 2.1046 1.2169 3.296 1.1972 0.89287-0.0151 2.2424-0.18747 2.6671-0.81056 0.4097 0.59327 1.6638 0.85743 2.4686 0.72749 0.66875-0.1081 1.4844-0.69385 1.4053-1.2769-0.0918-0.67688-1.1958-1.1437-1.9851-1.1174-0.63084 0.0189-1.4899 0.34772-1.8514 0.81389-0.36321-0.78154-1.6807-1.4001-2.6553-1.4481-0.0627-3e-3 -0.12699-4e-3 -0.19276-3e-3zm0.14929 3.1183c-1.3381 0.0151-3.2714 0.82243-3.1525 1.9178 0.11112 1.0235 2.1026 1.2169 3.2941 1.1972 0.89284-0.0151 2.2424-0.18747 2.6671-0.81056 0.40974 0.59327 1.6638 0.85742 2.4686 0.72748 0.66875-0.10809 1.4844-0.69384 1.4053-1.2769-0.0915-0.67688-1.1938-1.1437-1.9831-1.1175-0.63012 0.0189-1.4892 0.34696-1.8515 0.81222-0.36322-0.78134-1.6808-1.3984-2.6553-1.4464-0.0627-3e-3 -0.12699-4e-3 -0.19276-3e-3zm-4.4222 3.3897c-1.3346 0.0412-3.2027 0.83868-3.0858 1.9161 0.11112 1.0235 2.1046 1.2168 3.2961 1.1971 0.89284-0.0151 2.2424-0.18747 2.6671-0.81052 0.4097 0.59327 1.6618 0.85908 2.4666 0.72914 0.66875-0.10809 1.4864-0.69551 1.4073-1.2785-0.0915-0.67688-1.1958-1.1437-1.9851-1.1175-0.63039 0.0189-1.4895 0.34847-1.8515 0.81392-0.36283-0.78157-1.6806-1.3984-2.6553-1.4464-0.0835-4e-3 -0.17045-8e-3 -0.25927-3e-3z"/>
   <path d="m434.32 233.32c-0.90486 0.0151-1.7308 0.25209-1.8363 0.97296-0.15799 1.0775 1.7885 1.3826 2.8602 1.5753 0.9255 0.1663 2.4725 0.47743 2.9915-0.17764 0.16856 0.59943 1.1564 1.0781 1.8054 1.2618 0.83569 0.2366 2.2336 0.31862 2.5591-0.4865 0.22904-0.5667-0.4998-1.2455-1.0564-1.4981-0.90867-0.41235-2.583-0.65427-3.1552 0.0741-0.16479-0.78682-1.5434-1.3275-2.4077-1.5274-0.4856-0.11225-1.1415-0.20523-1.7606-0.19465zm-6.4077 1.6911c-0.0419 6e-4 -0.0835 3e-3 -0.12661 8e-3 -1.2094 0.18066-0.2691 3.3876-1.7545 3.966-2.6599 1.0361-5.9204 0.98744-4.1915 2.3321 2.3586 1.8344 4.9286 0.0918 6.6332-0.50351 2.611-0.91166 8.1056-0.17613 8.2316-2.2455 0.0922-1.5154-3.2389-0.2109-5.0888-0.54365-1.6404-0.2948-2.4076-3.0307-3.7034-3.0147zm11.635 3.024c-0.95917-8e-3 -1.8703 0.2143-1.9814 0.97296-0.15798 1.0775 1.7901 1.384 2.8618 1.5769 0.92546 0.1663 2.4725 0.47584 2.9915-0.17915 0.16857 0.59943 1.1549 1.0797 1.8039 1.2633 0.83569 0.2366 2.2352 0.31861 2.5606-0.4865 0.22941-0.56667-0.50132-1.2455-1.0579-1.498-0.90864-0.41235-2.5814-0.6556-3.1537 0.0726-0.16516-0.78671-1.5436-1.3259-2.4077-1.5258-0.44829-0.10355-1.0415-0.19162-1.617-0.19615zm-1.8146 2.9189c-0.95917-8e-3 -1.8703 0.2143-1.9814 0.97296-0.15799 1.0774 1.79 1.3841 2.8617 1.5768 0.92546 0.1663 2.4725 0.47592 2.9915-0.17915 0.16856 0.59944 1.1549 1.0796 1.8038 1.2633 0.83569 0.2366 2.2336 0.31861 2.5591-0.4865 0.22904-0.56666-0.49976-1.2455-1.0563-1.498-0.90803-0.41205-2.5803-0.65526-3.1537 0.071-0.1663-0.78595-1.5456-1.3246-2.4093-1.5244-0.44829-0.10356-1.04-0.19162-1.6154-0.19616zm-7.1521 2.1251c-0.95913-8e-3 -1.8688 0.2143-1.9799 0.97296-0.15798 1.0775 1.79 1.3841 2.8618 1.5769 0.92549 0.1663 2.4709 0.47588 2.9899-0.17915 0.16857 0.59955 1.1564 1.0797 1.8054 1.2634 0.83565 0.2366 2.2337 0.31862 2.559-0.4865 0.22942-0.5667-0.49977-1.2471-1.0564-1.4996-0.90867-0.41239-2.583-0.65431-3.1552 0.0741-0.16516-0.78671-1.5436-1.326-2.4078-1.5259-0.44825-0.10356-1.0414-0.19163-1.617-0.19616z"/>
   <path d="m496.96 261.06c-0.39076 0.00194-0.79813 0.09548-1.0859 0.23243-0.49123 0.23361-1.0495 0.79952-1.0312 1.3027-0.71494-0.41657-2.0222-0.13907-2.7754 0.20703-0.66124 0.3038-1.498 1.0301-1.1953 1.6797 0.3771 0.80897 1.9306 1.0174 2.8008 0.72265 0.82388-0.28016 1.7785-1.2241 1.6211-2.0039 0.53341 0.24528 1.3892 0.12083 1.8828-0.12695 0.57332-0.2878 1.2098-1.0596 0.84961-1.5977-0.20225-0.30212-0.62354-0.41821-1.0664-0.41602zm6.502 0.7793c-0.45292 0.00618-0.94847 0.16653-1.2656 0.36914-0.4508 0.28794-0.92267 0.91606-0.83594 1.418l-0.00195-0.00195c-0.76024-0.3385-2.0059 0.08405-2.6992 0.51367-0.60869 0.3772-1.3322 1.1953-0.94531 1.8125h-0.00196c0.4819 0.76868 2.0401 0.80912 2.8555 0.41797 0.77362-0.37102 1.5808-1.4239 1.3184-2.1875 0.55828 0.1888 1.3836-0.02886 1.8359-0.33203 0.52456-0.3514 1.0453-1.1962 0.61719-1.6953-0.19793-0.23082-0.52468-0.31925-0.87696-0.31445zm3.8418 2.5059c-0.50394 0.00305-1.079 0.24974-1.4082 0.5293-0.40313 0.3427-0.77766 1.0326-0.61328 1.5254-0.79575-0.25505-1.9637 0.3142-2.584 0.82617-0.54339 0.4483-1.1354 1.353-0.66601 1.9258h0.00195c0.5845 0.71346 2.1191 0.57233 2.8633 0.08594 0.70637-0.46322 1.3488-1.6179 0.97266-2.3516 0.57599 0.12636 1.3585-0.18811 1.7598-0.54493 0.46375-0.4128 0.85399-1.3196 0.36133-1.7695-0.17899-0.16346-0.42353-0.22816-0.6875-0.22656zm-18.645 2.5352c-0.47067-0.00453-0.86487 0.18409-1.166 0.66601-0.97739 1.5641 2.6072 2.0397 4.4844 3.7891 1.8558 1.7294 1.9872 4.7421 4.0254 4.7461 0.9654 0.0019 0.42211-2.1795 1.2715-2.8281 1.5145-1.1565 3.0975-2.3163 2.4453-3.7871-0.7266-1.638-2.788 0.77006-5.1738-0.02734-2.3714-0.79252-4.4747-2.545-5.8867-2.5586zm17.172 4.2226c-0.50469-0.00656-1.0856 0.23107-1.4219 0.50391-0.41072 0.33381-0.80339 1.0129-0.65234 1.5078-0.79079-0.26508-1.9699 0.27932-2.6016 0.77734-0.5543 0.4372-1.1693 1.3294-0.71289 1.9102 0.5684 0.72348 2.1085 0.61001 2.8652 0.13867 0.71965-0.44869 1.3931-1.5887 1.0332-2.3281 0.57343 0.13483 1.3621-0.16197 1.7715-0.50977 0.47444-0.4033 0.88502-1.3013 0.40234-1.7598-0.17538-0.1666-0.41923-0.2368-0.6836-0.24024z"/>
  </g>
  <g stroke="#000">
   <g stroke-width="2">
    <g>
     <path d="m160.47 173.6-13.967 0.95229 1.5354 22.596 13.967-0.95225z" fill="#f6bd6d"/>
     <path d="m160.47 172.24-15.36 0.6923 1.6886 16.427 15.36-0.6923z" fill="#fff"/>
     <path d="m160.41 167.22-16.693 0.6887 1.8351 16.343 16.693-0.6887z" fill="#865e3c"/>
    </g>
    <g fill="#63452c">
     <path d="m166.71 265.09c8.6801 0.71996 8.275 1.6922 16.852 7.4078 1.5233 3.0387 2.1737 5.624 0.16921 7.7205-2.1628 2.2622-8.6954 5.2015-20.993 1.9446 0 0-3.3225-1.5236-3.7816-2.8619l-0.55004 2.5332c-0.50651 2.3327-21.754 1.1239-22.208-1.289-3.3672-10.441-1.8573-16.954 0.97341-25.542 9.2938 0.53979 18.305 1.5351 25.369 5.6691z"/>
     <path d="m155.89 261.04 2.4551-3.8884-4.8275-2.4893-1.826 2.8417"/>
     <path d="m46.957 272.4c2.0849 7.4414 4.9976 6.1692 11.903 13.882 2.9613 2.198 0.9414 9.7092-2.1405 8.8534-10.841 1.0727-26.746-0.57823-29.874-18.248 0 0-1.5368-5.0547-0.45882-6.2937l-2.8291 1.0775c-2.6051 0.99221-11.099-15.062-8.9476-16.962 8.53-9.4758 15.856-12.16 25.985-14.951 4.6258 8.6388 8.6409 17.307 8.4474 26.18z"/>
    </g>
    <ellipse transform="matrix(.78563 -.6187 -.6187 -.78563 0 0)" cx="202.17" cy="-181.99" rx="4.7452" ry="4.6927" fill="#5a222f"/>
    <ellipse transform="matrix(.78563 -.6187 -.6187 -.78563 0 0)" cx="183.14" cy="-159.2" rx="4.7452" ry="4.6927" fill="#5a222f"/>
    <path d="m271.94 14.008c0.67343-5.6844-10.374-9.4749-17.021 8.9979 0.78134-19.821-6.605-18.602-10.019-13.978" fill="none"/>
   </g>
   <path d="m119.02 198.54c38.793 0.9885 54.681 16.237 26.889 58.513" fill="none" stroke-width="12"/>
   <path d="m162.85 193.78-0.41243 3.9202 3.378 5.8011 4.8658 9.3924 0.32425 10.683c0.16973 5.5923-5.8502 8.2101-8.2559 3.4368l-0.05-11.728-5.6241-6.9197-2.8793 5.5098 0.99777 7.2999c0.50317 3.6813-7.5857 3.7838-7.4182-0.62669l-1.5698-10.235 1.1007-9.0102-3.4303-6.8453z" fill="#fff" stroke-width="2"/>
   <path d="m86.439 200.36c10.766 25.676-24.898 37.206-43.229 47.578" fill="none" stroke-width="12"/>
   <g stroke-width="2">
    <path d="m153.9 100.39 27.035 29.602 1.0977 10.642-12.975 1.2768z" fill="#fff"/>
    <path d="m260.97 81.517c2.4037-11.995 6.2526-28.827-10.611-24.171" fill="#f6bd6d"/>
    <path d="m258.37 141.24c15.809-35.595 6.5858-83.462-29.517-98.074-19.779-8.0046-51.914 8.7523-56.796 29.523-1.1093 4.7202-1.5653 9.3128-1.4405 13.755 0.0827 2.9435-2.8772 6.6821-5.4302 8.5706-2.463 1.8219-10.343 7.9686-15.878 8.7243-3.5308 0.48215 8.8519 15.891 13.707 23.472 1.4584 2.2775 3.1197 6.2782 4.6853 5.1292 3.7266-2.7349 10.037-7.3403 11.697-8.7624 3.0062-2.5756 7.119-0.62412 8.8924 1.1601 11.368 11.437 27.109 23.43 43.882 27.968 9.2018 2.4896 22.329-2.7543 26.199-11.466z" fill="#f6bd6d"/>
   </g>
   <path d="m261.66 65.402s3.2842-2.2671 3.8664-8.1196c2.0523-20.633-2.2078-29.968-9.7115-34.278-7.3476-4.2201-19.628-6.8737-32.33 2.0593-5.3589 3.7688-5.7325 8.0999-5.7325 8.0999s2.3485 8.2309 6.974 8.6796c19.613 1.9025 22.653 9.0834 30.382 21.356 2.5183 3.999 6.5512 2.2027 6.5512 2.2027z" fill="#865e3c" stroke-width="2"/>
   <g stroke-width="2">
    <path d="m254.58 58.325c1.3971-13.776 12.399-17.055-3.4682-28.775-14.771-10.91-11.933 0.034-25.442 11.881" fill="#63452c"/>
    <path d="m220.92 40.955s-15.792-5.8677-16.267-8.4591c-0.43901-2.3967 12.535-1.8931 12.535-1.8931 0.63132 4.4244 4.7751 7.7122 8.8559 10.888z" fill="#865e3c"/>
    <path d="m250.91 57.66s13.704 18.529 15.971 17.803c2.0979-0.67128-2.9042-12.865-2.9042-12.865-4.4227 0.46594-10.193-4.0488-13.067-4.9385z" fill="#865e3c"/>
   </g>
  </g>
  <g transform="matrix(3.7795 0 0 3.7795 -78.934 -740.87)">
   <path d="m81.28 207.4c7.1401-0.36257 8.1841 3.7122 5.947 9.9851" fill="#f6bd6d"/>
   <path d="m81.041 207.17 0.44397 0.57698c1.7596-0.0893 2.9357 0.0147 3.9528 0.42369 1.0171 0.40898 1.6872 1.028 2.0957 1.8496 1.1132 2.4246 0.02007 5.21-0.05664 7.4531 1.129-3.1658 1.4619-5.8158 0.53125-7.6875-0.46532-0.93583-1.2562-1.6583-2.373-2.1074s-2.7837-0.60042-4.5941-0.50849z" fill="#000"/>
  </g>
  <g transform="matrix(-2.2696,-3.0222,-3.0222,2.2696,1061,40.302)">
   <path d="m131.43 184.8c-0.43733 0.98835-1.2674 1.9596-4.0101 2.53-2.5562 0.53165-4.8831-0.18551-5.6796-3.8939-0.44172-2.0566 0.26826-4.2614 1.0232-5.7258 0.50561-0.98071 1.7509-2.0422 2.9746-2.0524 1.7715-0.0148 3.3752 0.89744 4.974 4.134 0.54384 1.1009 1.1857 3.9507 0.71784 5.0081z" fill="#000"/>
   <path d="m122.73 177.79c0.68418-1.6402 1.7925-3.0517 3.5368-3.3251 2.8257-0.44296 4.2601 2.7016 4.9569 4.8817 0.56862 1.7791 1.3187 3.8978 0.2087 5.4471-0.74021 1.0331-2.0323 1.5858-3.2594 1.9783-3.8055 1.2172-5.304-1.3381-5.9155-3.2663-0.57791-1.8223-0.26347-3.9513 0.47252-5.7156z" fill="#fff"/>
   <ellipse transform="rotate(-16.132)" cx="69.16" cy="209.57" rx="3.0325" ry="3.8969" fill="#000"/>
   <ellipse transform="rotate(-16.132)" cx="68.325" cy="208.73" rx="1.2552" ry="1.5556" fill="#fff"/>
  </g>
  <g stroke="#000" stroke-width="2">
   <path d="m126.56 193.65 7.4713-4.3442 7.139 5.3166-22.377 15.041-8.9371-9.6309 6.8248-2.0631" fill="#63452c"/>
   <path d="m169.73 227.29c1.6395 1.1357 4.5487-0.59656 4.4737-2.6435l0.38011-12.115-9.817-10.877" fill="none"/>
   <path d="m168.5 150.53c5.1554-15.928-8.4943-44.715-24.609-49.252-38.761-10.913-76.84 16.673-82.66 49.261-3.0468 17.06 9.5501 44.916 25.929 50.577 28.61 9.888 72.018-21.786 81.34-50.586z" fill="#865e3c"/>
   <path d="m159.54 142.89-3.2368-8.1734 5.6227-6.3841 3.9026 6.485z" fill="#63452c"/>
   <path d="m168.36 133.16-3.5566 2.545-4.9683 6.8285-1.0122 25.775c4.3847-5.7872 7.752-11.84 9.6719-17.771 1.595-4.9279 1.3863-11.086-0.13478-17.377z" fill="#fff"/>
   <path d="m144.09 98.966 13.773-2.5007 15.04 28.628 1.0977 10.642-12.975 1.2768z" fill="#fff"/>
   <path d="m159.92 142.88-8.6476 2.748 2.3096 28.36 5.3655-5.8719z" fill="#63452c"/>
   <ellipse cx="164.83" cy="143.24" rx="1.7817" ry="1.8499" fill="#77767b"/>
   <ellipse cx="163.4" cy="151.9" rx="1.5426" ry="1.5731" fill="#77767b"/>
   <ellipse cx="146.94" cy="173.53" rx="1.793" ry="1.8282" fill="#63452c"/>
   <ellipse cx="139.29" cy="179.7" rx="2.0123" ry="2.1627" fill="#63452c"/>
   <path d="m135.88 117.53c-8.5588 8.8586-15.54 18.178-15.845 26.826-0.30501 8.6481 4.1178 16.152 10.15 21.88 12.065 11.455 32.426 19.569 50.489 27.365l6.5386-12.776c-18.235-7.8697-38.83-16.621-47.387-24.746-4.2784-4.0623-5.9297-7.4014-5.7948-11.228 0.13497-3.8264 4.2104-9.5936 11.396-17.031" fill="#f6bd6d"/>
   <path d="m211.43 198.16c-1.4459 2.3994 5.1038 4.3287 8.1369 1.2006 2.043-2.1069-1.2031-11.157-2.5204-13.914" fill="#fff"/>
   <g fill="#5e5c64">
    <path d="m215.92 184.95c5.2545 2.9331 13.656 4.8326 23.124 4.8325 15.918-2.3e-4 28.821-5.3697 28.821-11.993l0.0388-6.8175m-51.984 13.978-4.2899-3.4462c-0.91466-1.1695-1.409-2.418-1.409-3.7146l0.0389-6.8175h57.644"/>
    <ellipse cx="239.09" cy="170.97" rx="28.822" ry="11.993"/>
    <path d="m185.1 203.62 33.867-19.042c3.59-2.4207-1.0446-6.7261-3.3144-5.9026l-32.833 16.648"/>
   </g>
   <ellipse transform="rotate(-15.368)" cx="124.52" cy="241.09" rx="1.4192" ry="4.3025" fill="#3d3846"/>
   <ellipse cx="239.25" cy="172.45" rx="25.089" ry="9.4205" fill="#99c1f1"/>
   <path d="m183.83 202.66c-1.6187-2.7724-2.6369-6.9999-1.2117-7.6757 3.5821-1.6992 4.6025-3.054 6.6578 10.207 0.45398 2.9297 6.1449 3.3882 7.845 2.348 1.3258-0.81116 3.5818-2.3528 2.7792-5.9594 2.8196 2.7082 5.2944 3.7413 7.5369 2.3309 2.7087-1.7038 1.6252-4.9855 1.7576-7.6394 1.2607 2.282 4.1555 2.2612 6.4207 1.1287 2.0289-1.0146 2.6697-3.7666 2.4484-5.6731-0.86689-7.4614-3.7228-11.28-6.6792-14.915-4.8718-3.3763-16.737-1.4656-20.611 1.2351l-1.3761-3.6143-14.16 23.536 3.8586-0.504z" fill="#fff"/>
  </g>
  <g>
   <path d="m137.21 116.13c-8.5588 8.8586-16.875 19.577-17.18 28.225-0.30501 8.6481 4.1161 16.153 10.148 21.881 6.0564 5.7505 9.8513 9.1668 18.758 13.598 2.9406 1.4632 11.838 7.7742 15.68 11.653l8.9199-16.611c-13.968-6.1919-27.263-12.673-33.715-18.799-4.2783-4.0623-5.9299-7.4001-5.7949-11.227 0.13497-3.8264 6.066-11.553 13.252-18.99" fill="#865e3c" stroke="#000" stroke-width="2"/>
   <path d="m179.83 177.21-8.3828 17.342-5.7482-4.7884 7.8036-14.793z" fill="#fff" stroke="#000" stroke-width="2"/>
   <path d="m190.69 113.53 1.6904 16.351 1.9857-0.20674c-8e-3 -5.2317-0.8712-12.147-3.6762-16.144z" fill="#000"/>
  </g>
  <g fill="#63452c" stroke="#000" stroke-width="2">
   <path d="m73.175 124.88c-6.0813 7.6526-10.301 16.46-11.945 25.666-3.0467 17.06 9.5488 44.915 25.928 50.576 12.661 4.3759 28.221 0.60919 42.441-7.4434-26.861-7.1434-52.344-47.423-56.424-68.799z"/>
   <path d="m93.917 201.02 8.4593 1.7698-0.75451 10.524-27.783-9.644 3.393-9.0816 6.4527 3.0327"/>
   <path d="m41.387 258.18 7.5005-7.6768 6.203 7.9095-5.2947 3.4265c-0.15795 3.9323-0.57645 4.0718-2.0861 8.4652"/>
  </g>
  <g fill="none" stroke="#000" stroke-width="2">
   <path d="m44.461 263.15c-0.23293-3.4717-2.1883-8.719-4.1303-7.2285-7.1063 5.4541 1.2294 4.996 4.1303 7.2285z"/>
   <path d="m45.471 263.93c2.8991-0.47531 7.5385 0.41689 6.6219 2.6731-3.3541 8.2549-4.3156-0.2143-6.6219-2.6731z"/>
   <path d="m47.316 270.88-8.9057-2.8246"/>
   <path d="m48.482 275.48-9.4827 0.55881"/>
   <path d="m40.085 264.72 6.9934 8.8351"/>
   <path d="m40.48 272.8 9.8312 6.4997"/>
   <path d="m167.81 267.67-1.397-3.0194"/>
   <path d="m174.91 269.16-1.4509-2.5989"/>
   <path d="m172.06 266.06 4.8e-4 2.925"/>
   <path d="m159.07 259.44c-1.9175 1.9796-3.8603 5.8233-1.8202 6.0584 7.4652 0.86018 2.2265-3.3238 1.8202-6.0584z"/>
   <path d="m165.72 264.18-0.74543 3.2635"/>
   <path d="m134.35 272.81c2.3201 6.0229 9.247 3.1401 20.417 5.2872 14.899 2.8639 21.155 2.2058 29.426 2.0358"/>
   <path d="m18.714 249.8c17.025 46.019 25.4 42.716 40.989 42.508"/>
  </g>
 </g>
</svg>
