<?xml version="1.0" encoding="UTF-8"?>
<!-- Created with Inkscape (http://www.inkscape.org/) -->
<svg id="SVGRoot" width="128px" height="128px" version="1.1" viewBox="0 0 128 128" xmlns="http://www.w3.org/2000/svg" xmlns:xlink="http://www.w3.org/1999/xlink">
 <defs>
  <clipPath id="clipPath10738-7">
   <rect x="248" width="128" height="128" ry="0"/>
  </clipPath>
  <linearGradient id="linearGradient7720-5" x1="86" x2="86" y1="32" gradientTransform="matrix(4,0,0,4,-8,0)" gradientUnits="userSpaceOnUse">
   <stop stop-color="#eea849" offset="0"/>
   <stop stop-color="#f46b45" offset="1"/>
  </linearGradient>
 </defs>
 <g transform="translate(-248)" clip-path="url(#clipPath10738-7)">
  <rect x="248" width="128" height="128" ry="16" fill="url(#linearGradient7720-5)" stroke-linecap="round" stroke-linejoin="round" stroke-width="12"/>
  <g stroke-width=".125">
   <path d="m335.48 59.856c-5.8316-4.2149-11.644-7.4131-13.818-8.5648 1.7509 4.0529 2.3978 7.2339 2.4174 7.259-0.0123-0.0018-1.7659-3.8818-4.3238-8.6224-2.5541-4.7496-6.6276-10.096-12.625-12.66-2.0354-0.8715-3.9001-1.2229-5.6065-1.2229-6.2351-0.02185-10.641 4.8188-12.439 7.2891-0.59939 0.81572-0.89168 1.3309-0.89168 1.3336l-0.12475 0.21926-0.22872 0.10308c-1.9279 0.85241-4.17 3.192-5.9355 4.8082-5.1624 4.6834-8.3085 10.57-8.3085 16.962 0 2.3456 0.42264 4.7671 1.3364 7.2425 1.6648 4.4985 4.5109 8.0569 8.3058 10.98 4.3366 3.5139 4.0936 13.022 4.165 13.098v10.048c0.10031 0.1048 0.1878 0.20442 0.30091 0.31802 0.32599 0.32405 0.70495 0.67208 1.1432 1.0226 1.6432 1.3166 4.0094 2.6086 6.9652 2.6086 1.8785-2e-3 4.014-0.52113 6.4044-1.9246l0.13946 0.0176c1.0549-7.2365 3.4782-11.091 7.3359-12.995 3.879-1.9064 8.8735-1.889 15.148-2.1465 6.231-0.24198 12.298-1.2352 16.865-3.7098 4.563-2.4889 7.6625-6.3285 8.2545-12.625 0.0187-0.22496 0.0245-0.45195 0.0245-0.67806 0.0868-5.8641-7.1195-12.878-14.506-18.16" fill="#f6bd6d"/>
   <path d="m274 128 9.4736-17.251s-16.459-7.2201-24.78 17.052v0.1992z"/>
   <path d="m309.83 44.719c0.24534 0.60424 0.42325 1.2554 0.56575 1.9251-0.0765-0.5865-0.18838-1.1566-0.34688-1.6995-0.0746-0.07294-0.14373-0.15418-0.21893-0.22581"/>
   <path d="m316.13 56.652c-0.40127-4.1298-2.82-8.4641-5.9588-11.584 2.8616 3.3666 4.892 7.9384 4.892 12.097 0 7.77-4.2204 11.151-10.65 11.096-4.0479-0.02987-6.688-0.79376-8.4105-2.093 1.7732 2.1444 4.8356 3.2798 10.422 2.7842 6.5248-0.57978 10.47-4.4212 9.7048-12.3"/>
   <path d="m299.44 40.95c-0.0184 0.0044-0.0363 0.01312-0.0487 0.01749-0.14255 0.14064-0.27767 0.29351-0.41166 0.4477 0.15235-0.15898 0.30033-0.32235 0.46363-0.46416"/>
   <path d="m310.04 44.906c3e-3 0.01312 4e-3 0.02187 6e-3 0.03493 0.0427 0.03931 0.0808 0.08429 0.12107 0.12448-0.0427-0.05504-0.0844-0.11006-0.1297-0.16205" fill="#fff"/>
   <path d="m310.17 45.069c-0.0427-0.04501-0.0801-0.0843-0.12107-0.12448 0.15845 0.54375 0.27035 1.1136 0.34736 1.6996 0.0618 0.47582 0.1064 0.95978 0.1064 1.458 0 4.952-3.1045 8.966-6.9348 8.966-3.8301 0-6.9351-4.014-6.9351-8.966 0-2.6649 0.90807-5.0452 2.3359-6.6871 0.13392-0.15418 0.26916-0.30705 0.41166-0.44726 0.2722-0.26775 0.55596-0.51619 0.85737-0.72972-5.4118 0.83678-7.4668 6.7604-7.4668 13.958 0 5.09-0.0428 9.5061 3.2304 11.974 1.722 1.2994 4.3622 2.0596 8.4105 2.0935 6.4295 0.05504 10.65-3.3264 10.65-11.096 0-4.1581-2.0304-8.7302-4.892-12.097" fill="#fff"/>
   <path d="m296.64 48.101c0 4.9519 3.105 8.9659 6.9351 8.9659s6.9346-4.014 6.9346-8.9659c0-1.1272-0.16821-2.2015-0.4624-3.1951-2.4612-2.8382-5.5169-4.7804-8.4516-4.7804-0.47463 0-0.91958 0.04501-1.351 0.11138-2.1479 1.5234-3.605 4.4729-3.605 7.8642"/>
   <path d="m304.72 45.87c0 1.9159-1.2874 3.4691-2.8744 3.4691-1.5884 0-2.8745-1.5532-2.8745-3.4691 0-1.9155 1.286-3.4692 2.8745-3.4692 1.587 0 2.8744 1.5536 2.8744 3.4692" fill="#fff"/>
   <path d="m285.35 107.53 1e-3 -1e-3c-8.8e-4 -8.8e-4 -1e-3 -8.8e-4 -1e-3 -8.8e-4z" fill="#231e1f"/>
   <path d="m303.65 110.66c0.0485-0.0299 0.10096-0.0617 0.15221-0.0952l-0.65835-0.98454c-0.3137 0.20923-0.62122 0.3983-0.92642 0.57803l0.9589 0.11269s0.17493 0.14064 0.47338 0.38875" fill="#231e1f"/>
   <path d="m286.34 108.28 1.3706 0.16245-0.30153-0.0347z" fill="#f6bd6d"/>
   <path d="m320.63 49.061c0.73474 0.37431 3.7962 1.9539 7.6255 4.2369-0.74985-4.699-6.188-10.594-9.4188-13.475-1.13-1.0147-2.0294-1.2915-2.7335-1.2939-0.70318-0.0023-1.2722 0.29134-1.6785 0.6-0.29845 0.22669-0.48193 0.44049-0.55963 0.5382l-0.0623 0.1354c3.0441 2.7569 5.2525 6.1326 6.8276 9.2588" fill="#f6bd6d"/>
   <path d="m315.16 95.901s-6.9346-5.7461-15.851-2.9719c0 0 11.89-0.39659 13.276 3.9619z"/>
  </g>
  <path d="m341.63 22.72c0 1.7259-1.3992 3.1258-3.1242 3.1258-1.7258 0-3.1251-1.4-3.1251-3.1258 0-1.725 1.3992-3.1251 3.1251-3.1251 1.7251 0 3.1242 1.4001 3.1242 3.1251z" fill="#5f122b" stroke="#000" stroke-width="1.6062"/>
  <g stroke-width=".125">
   <path d="m306.25 111.77c0-0.97403-0.71505-1.7646-1.5975-1.7646-0.58899 0-1.0971 0.35515-1.3748 0.87885-2.7161 1.701-5.2282 2.3821-7.4502 2.3821h-0.0121c-4.8014-0.0219-8.0971-2.9824-9.5776-4.6426l0.0618-0.58716-0.96618 0.37083-1.2628 0.66883-0.40916 0.26075-0.22262 1.114 0.32722 0.66199-0.0365 0.0448c0.55963 0.60306 1.5065 1.5362 2.8094 2.4815 2.1804 1.5825 5.2849 3.1461 9.0139 3.1439 2.7591-3e-3 5.8834-0.61673 9.3072-3.0058 0.78-0.11749 1.393-1.1126 1.393-2.0065" fill="#fff"/>
   <path d="m349.96 78.694c-0.59206 6.2974-3.692 10.137-8.2545 12.626-4.5671 2.4741-10.635 3.4669-16.866 3.7092-6.2735 0.25808-11.268 0.24021-15.148 2.1465-3.858 1.9041-6.2809 5.7585-7.3364 12.995l-0.13882-0.0176c-2.3904 1.4031-4.526 1.9224-6.4044 1.9248-2.9562 0-5.3224-1.2924-6.9658-2.6091-0.43851-0.3503-0.81663-0.69853-1.1428-1.0224l-1.3706-0.1616 1.0691 0.12582 0.30154 0.0347c-0.11377-0.1136-0.20064-0.21317-0.30154-0.31802v-10.047c-0.0715-0.07426 0.17191-9.5831-4.1649-13.098-3.7945-2.9234-6.6405-6.4816-8.3058-10.98-0.91357-2.4755-1.3359-4.897-1.3359-7.2425 0-6.393 3.1461-12.28 8.3085-16.962 1.7655-1.6159 4.0076-3.956 5.9355-4.8084l0.22879-0.10264 0.12474-0.21926c0-0.0024 0.29234-0.51802 0.89119-1.3336 1.7979-2.4705 6.204-7.3135 12.439-7.2892 1.7069 0 3.5716 0.35118 5.6065 1.2233 5.9978 2.5638 10.072 7.91 12.626 12.66 2.5574 4.7405 4.3095 8.6205 4.3234 8.6228-0.0187-0.02187-0.66613-3.2066-2.417-7.259 2.1731 1.151 7.9865 4.3494 13.818 8.5642 7.387 5.2821 14.594 12.296 14.506 18.16 0 0.22581-6e-3 0.45254-0.0245 0.67756m-44.369 34.046c-0.0734 0.19526-0.17979 0.37216-0.30885 0.51317-0.67657 0.73293-1.7132 1.1561-2.5949 1.5825-1.523 0.73475-3.0102 1.4406-4.6911 1.7244-0.80245 0.13499-1.6342 0.22271-2.4494 0.22447-3.7291 2e-3 -6.8336-1.5614-9.014-3.1439-1.2502-0.90719-2.1625-1.7951-2.7298-2.3986-6e-3 -0.0299-0.0121-0.055-0.0187-0.0826-0.48196-1.862 1.7562-2.4834 2.3739-2.6182 1.4425 1.6434 4.7725 4.7044 9.6654 4.7278 2.1685 0 4.3585-0.62817 6.2442-1.6822 0.59817-0.3328 1.254-0.69308 1.782-1.1318 0.10459-0.0874 0.6748 0.22624 0.76764 0.27739 0.30032 0.16378 0.58165 0.37781 0.80655 0.63768 0.32538 0.37259 0.33578 0.91829 0.16576 1.3711m8.2699-73.071c0.0777-0.09784 0.26118-0.31099 0.55964-0.5382 0.40678-0.3088 0.97535-0.6025 1.679-0.60005 0.70366 0.0023 1.6035 0.2791 2.7331 1.2938 3.2308 2.8819 8.669 8.7765 9.4188 13.475-3.8288-2.2829-6.8902-3.8618-7.6255-4.2368-1.5751-3.1261-3.7834-6.502-6.8276-9.2588zm22.526 18.935c-2.292-1.6548-4.6742-3.1979-6.8789-4.5451-0.31618-5.6204-6.4099-11.932-9.88-15.118-1.2772-1.1588-2.4855-1.6054-3.5295-1.6004-1.99 0.02187-3.0766 1.4671-3.2262 1.662-1.5161-1.2393-3.2171-2.325-5.133-3.1562-2.2101-0.9479-4.2931-1.3482-6.2159-1.3482-8.6054 0.06115-13.66 7.7709-14.536 9.1851-2.2961 1.1323-4.4555 3.4709-6.1216 4.9705-5.4002 4.8948-8.8145 11.187-8.8145 18.108 0 2.5321 0.45933 5.1399 1.4315 7.7778 1.7714 4.7959 4.8311 8.6095 8.8122 11.67 1.6355 1.2179 2.6398 4.197 3.0921 6.8789 0.46912 2.6749 0.46665 4.987 0.47095 4.9935v9.3062c-4.298 0.47488-3.1962 4.3286-3.1962 4.3286l0.0734 0.11616c-3e-3 1e-3 -6e-3 2e-3 -6e-3 3e-3 1.5051 1.6539 6.1596 6.1152 12.819 6.1381h0.0121c3.2206 0 6.8775-1.1268 10.755-4.0515 0.26047-0.1424 0.50032-0.36256 0.50032-0.36256l6e-3 -0.0133c0.0245-0.0176 0.0485-0.0299 0.0722-0.055-6e-3 -4e-3 -0.0187-0.0176-0.0245-0.0219l0.0123-0.0219s1.0115-3.5606-2.82-4.1586c1.1158-6.2681 3.2125-9.1695 6.3156-10.723 3.353-1.6859 8.2152-1.7517 14.521-1.9879 6.3504-0.2551 12.62-1.2406 17.539-3.8959 4.924-2.6365 8.4612-7.0705 9.0579-13.846 0.0245-0.27515 0.0363-0.54554 0.0363-0.81569-0.0825-7.0531-7.7041-13.985-15.145-19.414"/>
   <path d="m318.16 128c-1.4896-4.9085-7.3294-10.896-11.268-14.51-4.0959 3.2638-7.9554 4.4825-11.337 4.4825h-0.0121c-6.6592-0.0219-11.314-4.4848-12.819-6.1381-8.3026 3.7734-12.47 13.649-13.419 16.165z" fill="#c7584d"/>
   <path d="m269.97 128c0.4422-1.1396 1.3794-3.3379 2.8762-5.8029 2.1172-3.4916 5.3402-7.4561 9.75-9.5941 1.808 1.8936 6.4136 5.9766 12.955 6.0115h0.0121c3.4134 2e-3 7.2714-1.1968 11.307-4.2976 3.842 3.5432 9.2139 9.2134 10.672 13.682h1.2292c-1.5299-5.1999-7.4776-11.213-11.469-14.901l-0.3743-0.34325-0.39936 0.31712c-4.0108 3.1941-7.727 4.3516-10.966 4.354h-0.0121c-6.376-0.013-10.924-4.3366-12.378-5.9432l-0.29355-0.32059-0.39329 0.17734c-8.7701 4.0225-12.94 14.375-13.785 16.66z"/>
  </g>
  <g transform="matrix(.125 0 0 .125 248 -5.173e-8)" stroke="#000" stroke-width="12.85">
   <path d="m368.58 300.57c57.45-113.84 176.37-250.86 338.35-132.3" fill="none"/>
   <path d="m351.76 312.71c56.766-172.84 79.69-384.36-78.891-409.03" fill="none"/>
   <path d="m277.09-98.898c0 13.807-11.194 25.006-24.994 25.006-13.806 0-25.001-11.2-25.001-25.006 0-13.8 11.194-25.001 25.001-25.001 13.801 0 24.994 11.201 24.994 25.001z" fill="#5f122b"/>
  </g>
 </g>
</svg>
