<svg width="3200" height="512" version="1.1" viewBox="0 0 3200 512" xmlns="http://www.w3.org/2000/svg" xmlns:xlink="http://www.w3.org/1999/xlink">
 <defs>
  <linearGradient id="linearGradient61465" x2="0" y2="512" gradientTransform="matrix(1.0667 0 0 1 1.2213e-6 .00023973)" gradientUnits="userSpaceOnUse">
   <stop stop-color="#006cbf" offset="0"/>
   <stop stop-color="#006cbf" offset=".018938"/>
   <stop stop-color="#006cbf" stop-opacity="0" offset=".19214"/>
   <stop stop-color="#006cbf" stop-opacity="0" offset="1"/>
  </linearGradient>
 </defs>
 <rect width="3200" height="512" fill="#006cbf" stroke-linecap="round" stroke-linejoin="bevel" stroke-width="3.2689"/>
 <g fill="none" stroke="#005c99">
  <g stroke-linecap="round" stroke-linejoin="round" stroke-width="2">
   <path d="m-0.2994 473h3200.6"/>
   <ellipse cx="311.71" cy="322.39" rx="27.313" ry="44.417"/>
   <path d="m372.28 322.78 70.777-50.595"/>
   <rect x="2165.7" y="320.85" width="184.56" height="151.85"/>
   <rect x="2593.3" y="341.71" width="222" height="130.99"/>
   <rect x="2350.3" y="320.85" width="58.095" height="151.85"/>
   <rect x="2546.4" y="341.71" width="46.847" height="130.99"/>
   <rect x="2923.5" y="240.91" width="85.412" height="231.79"/>
   <rect x="3008.9" y="240.91" width="87.321" height="231.79"/>
   <rect x="3022" y="255.7" width="24.576" height="41.705"/>
   <rect x="3061.3" y="255.7" width="24.576" height="41.705"/>
   <rect x="3022" y="309.51" width="24.576" height="41.705"/>
   <rect x="3061.3" y="309.51" width="24.576" height="41.705"/>
   <rect x="3022" y="363.33" width="24.576" height="41.705"/>
   <rect x="3061.3" y="363.33" width="24.576" height="41.705"/>
   <rect x="3022" y="417.15" width="24.576" height="41.705"/>
   <rect x="3061.3" y="417.15" width="24.576" height="41.705"/>
   <rect x="2934.6" y="255.48" width="15.037" height="41.794"/>
   <rect x="2958.7" y="255.48" width="15.037" height="41.794"/>
   <rect x="2934.6" y="309.41" width="15.037" height="41.794"/>
   <rect x="2958.7" y="309.41" width="15.037" height="41.794"/>
   <rect x="2934.6" y="363.34" width="15.037" height="41.794"/>
   <rect x="2958.7" y="363.34" width="15.037" height="41.794"/>
   <rect x="2934.6" y="417.27" width="15.037" height="41.794"/>
   <rect x="2958.7" y="417.27" width="15.037" height="41.794"/>
   <rect x="2982.7" y="255.48" width="15.037" height="41.794"/>
   <rect x="2982.7" y="309.41" width="15.037" height="41.794"/>
   <rect x="2982.7" y="363.34" width="15.037" height="41.794"/>
   <rect x="2982.7" y="417.27" width="15.037" height="41.794"/>
   <rect x="2174.2" y="334.44" width="15.821" height="34.797"/>
   <rect x="2199.5" y="334.44" width="15.821" height="34.797"/>
   <rect x="2174.2" y="379.34" width="15.821" height="34.797"/>
   <rect x="2199.5" y="379.34" width="15.821" height="34.797"/>
   <rect x="2174.2" y="424.25" width="15.821" height="34.797"/>
   <rect x="2199.5" y="424.25" width="15.821" height="34.797"/>
   <rect x="2224.8" y="334.44" width="15.821" height="34.797"/>
   <rect x="2224.8" y="379.34" width="15.821" height="34.797"/>
   <rect x="2224.8" y="424.25" width="15.821" height="34.797"/>
   <rect x="2250.1" y="334.44" width="15.821" height="34.797"/>
   <rect x="2250.1" y="379.34" width="15.821" height="34.797"/>
   <rect x="2250.1" y="424.25" width="15.821" height="34.797"/>
   <rect x="2275.4" y="334.44" width="15.821" height="34.797"/>
   <rect x="2275.4" y="379.34" width="15.821" height="34.797"/>
   <rect x="2275.4" y="424.25" width="15.821" height="34.797"/>
   <rect x="2300.7" y="334.44" width="15.821" height="34.797"/>
   <rect x="2300.7" y="379.34" width="15.821" height="34.797"/>
   <rect x="2300.7" y="424.25" width="15.821" height="34.797"/>
   <rect x="2326.1" y="334.44" width="15.821" height="34.797"/>
   <rect x="2326.1" y="379.34" width="15.821" height="34.797"/>
   <rect x="2326.1" y="424.25" width="15.821" height="34.797"/>
   <rect x="2356.7" y="334.28" width="10.761" height="34.888"/>
   <rect x="2356.7" y="379.3" width="10.761" height="34.888"/>
   <rect x="2356.7" y="424.32" width="10.761" height="34.888"/>
   <rect x="2374" y="334.28" width="10.761" height="34.888"/>
   <rect x="2374" y="379.3" width="10.761" height="34.888"/>
   <rect x="2374" y="424.32" width="10.761" height="34.888"/>
   <rect x="2391.2" y="334.28" width="10.761" height="34.888"/>
   <rect x="2391.2" y="379.3" width="10.761" height="34.888"/>
   <rect x="2391.2" y="424.32" width="10.761" height="34.888"/>
   <rect x="2735.6" y="353.3" width="26.752" height="46.135"/>
   <rect x="2778.5" y="353.3" width="26.752" height="46.135"/>
   <rect x="2735.6" y="412.84" width="26.752" height="46.135"/>
   <rect x="2778.5" y="412.84" width="26.752" height="46.135"/>
   <rect x="2692.8" y="353.3" width="26.752" height="46.135"/>
   <rect x="2692.8" y="412.84" width="26.752" height="46.135"/>
   <rect x="2650" y="353.3" width="26.752" height="46.135"/>
   <rect x="2650" y="412.84" width="26.752" height="46.135"/>
   <rect x="2607.2" y="353.3" width="26.752" height="46.135"/>
   <rect x="2607.2" y="412.84" width="26.752" height="46.135"/>
   <rect x="2579.1" y="352.82" width="8.4336" height="46.553"/>
   <rect x="2579.1" y="412.9" width="8.4336" height="46.553"/>
   <rect x="2565.6" y="352.82" width="8.4336" height="46.553"/>
   <rect x="2565.6" y="412.9" width="8.4336" height="46.553"/>
   <rect x="2552.1" y="352.82" width="8.4336" height="46.553"/>
   <rect x="2552.1" y="412.9" width="8.4336" height="46.553"/>
   <path d="m641.75 473.02-7.5714-19.709"/>
   <path d="m787.78 435.44-14.9 37.563-7.4082-16.645"/>
   <path d="m893.57 473-17.293-20.779"/>
   <path d="m955.53 473 18.217-26.328"/>
   <path d="m973.71 473 16.869-26.957"/>
   <path d="m1128.4 473-6.0906-36.723"/>
   <path d="m489.38 473-20.14-41.471"/>
   <path d="m1294.2 473 10.991-28.232"/>
   <path d="m864.71 1.7e-4c-12.027 18.001-19.049 39.591-19.049 62.818-1e-4 62.809 51.233 113.73 114.43 113.73 8.8978-0.091 17.754-1.2132 26.391-3.3438 14.418 22.134 39.138 35.5 65.668 35.508 9.8126-0.0627 19.526-1.9589 28.633-5.5898 19.367 19.091 45.512 29.846 72.789 29.943 27.186-1.4e-4 51.933-10.378 70.449-27.365"/>
   <path d="m7.6445 1.7e-4c-3.8737 13.346-5.9401 27.146-6.1445 41.035 1.87e-4 86.326 70.415 156.31 157.28 156.31 8.1867-0.0446 16.357-0.72439 24.438-2.0332 28.57 41.835 76.106 66.923 126.98 67.016 66.162-0.13253 124.83-42.301 145.67-104.71 9.3408 2.9549 19.08 4.4776 28.883 4.5156 9.8681-1.9e-4 19.39-1.473 28.356-4.2094m13.383-5.2059c32.376-15.467 54.724-48.368 54.724-86.456-0.0296-24.7-9.6506-48.436-26.857-66.26"/>
   <path d="m984.85 1.7e-4c0.74318 42.193 18.186 80.263 46.006 108.02m13.177 11.76c27.003 21.52 61.261 34.397 98.504 34.455 0.4904-0.0329 0.9806-0.068 1.4707-0.10547 26.762 34.881 68.323 55.409 112.46 55.547 48.459-0.0111 93.566-24.584 119.64-65.178 12.406 9.4995 27.611 14.68 43.272 14.744 9.5201-0.0401 18.936-1.9725 27.693-5.6836 17.576 48.106 63.506 80.186 115 80.322 44.44-0.12744 85.337-24.127 106.91-62.738 10.628 4.2799 21.976 6.5148 33.443 6.5859 28.964-0.087 56.138-13.938 73.109-37.264 6.114 1.2562 12.335 1.9266 18.578 2.002 53.916 6e-5 97.624-43.439 97.623-97.023-0.1317-15.881-4.1839-31.486-11.801-45.447"/>
   <path d="m530.11 165c21.521 19.793 50.312 31.89 81.947 31.89 53.535-1e-3 100.67-35.053 115.78-86.096 43.8-2.5021 78.06-38.476 78.168-82.078-0.0812-9.8171-1.9266-19.541-5.4492-28.713"/>
   <path d="m272.56 257.56v214.42"/>
   <path d="m372.34 248.94v223.04"/>
   <path d="m900.25 159.01v313.99"/>
   <path d="m1004.6 193.32v279.68"/>
   <path d="m1066.1 207.51v265.49"/>
   <path d="m943.28 206.64v266.36"/>
   <path d="m1198 223.51v249.49"/>
   <path d="m1287.8 206.42v266.58"/>
   <path d="m1447.7 154.1v318.9"/>
   <path d="m1621.7 218.94v254.06"/>
   <path d="m1555 233.16v239.84"/>
   <path d="m1747.3 165.77v307.23"/>
   <path d="m1680.7 174.68v298.32"/>
   <path d="m1380.1 147.57v325.43"/>
   <path d="m659.46 187.26v285.74"/>
   <path d="m595.35 196.56v276.44"/>
   <path d="m1066.1 274.03 58.186-45.275"/>
   <path d="m659.46 274.26 29.085-29.746"/>
   <path d="m595.35 357.98-29.475-34.612"/>
   <path d="m900.25 307.78 25.898-27.602"/>
   <path d="m900.25 250.98-25.519-27.414"/>
   <path d="m900.25 360.83-28.2-27.693"/>
   <path d="m900.25 216.89-23.846-22.745"/>
   <path d="m1380.1 266.05-68.404-67.477"/>
   <path d="m1380.1 377.95-36.31-30.806"/>
   <path d="m1198 401.79 31.409-23.706"/>
   <path d="m1198 312.5-29.659-27.777"/>
   <path d="m1287.8 303.28-25.056-18.42"/>
   <path d="m1596.1 328.33 47.746-42.031"/>
   <path d="m1555 385.63-29.571-26.862"/>
   <path d="m1408.8 222.36 51.164-43.414"/>
   <path d="m1747.3 282.92 33.413-28.54"/>
   <path d="m1680.7 210.75-25.379-19.909"/>
   <path d="m1703.1 397.17-40.694-37.548"/>
   <path d="m1027.2 384.92-46.75-42.514"/>
   <path d="m302.04 400.89-61.314-55.272"/>
   <path d="m1500.5 473-2.4799-18.358"/>
   <path d="m1509.6 473-1.0099-5.9195"/>
   <path d="m1661.1 473 1.5159-13.628"/>
   <path d="m1665.4 473 1.4785-5.7606"/>
   <path d="m1610.9 473-4.5528-16.146"/>
   <path d="m1747.3 473 9.877-12.5"/>
   <path d="m1412.1 473-9.5369-19.376"/>
   <path d="m168.45 473 15.758-30.315"/>
   <path d="m150.54 473-5.0629-17.897"/>
   <path d="m544.72 407.68c-15.029-1e-4 -27.212 9.2815-27.211 20.73h54.422c1e-3 -11.449-12.182-20.731-27.211-20.73z"/>
   <rect x="534.31" y="428.41" width="22.033" height="44.59"/>
   <path d="m549.3 407.98a9.2076 8.9254 0 0 0-0.0293 0.38671 9.2076 8.9254 0 0 0 9.207 8.9258 9.2076 8.9254 0 0 0 6.543-2.6777c-4.0185-3.4301-9.5109-5.8319-15.721-6.6348z"/>
   <path d="m520.39 419.12c-1.844 2.7958-2.889 5.9508-2.8887 9.293h10.477a9.4072 9.4722 0 0 0-7.5879-9.293z"/>
   <path d="m559.28 420.83a10.294 9.4593 0 0 0-10.062 7.5781h20.15a10.294 9.4593 0 0 0-10.088-7.5781z"/>
   <ellipse cx="537.54" cy="419.01" rx="4.6013" ry="4.7408"/>
   <path d="m162.24 385.36c-24.494 0-44.213 10.911-44.213 24.465v63.176h88.426v-63.176c0-13.554-19.719-24.465-44.213-24.465z"/>
   <rect x="118.03" y="385.36" width="88.425" height="47.066" rx="44.104" ry="23.533"/>
   <ellipse cx="163.89" cy="408.31" rx="37.801" ry="19.478"/>
   <ellipse cx="164.44" cy="407.73" rx="16.184" ry="7.9409"/>
   <ellipse cx="164.91" cy="407.47" rx="8.9482" ry="3.4816"/>
   <path d="m841.62 447.59c-10.891-3e-5 -19.72 3.1953-19.719 7.1367h39.438c1e-3 -3.9414-8.8276-7.1368-19.719-7.1367z"/>
   <rect x="836.01" y="454.73" width="12.334" height="18.27" rx="0" ry="0"/>
   <rect x="1474.8" y="414.35" width="6.1484" height="58.676"/>
   <path d="m1477.7 389.27c-12.259 3.6e-4 -22.196 11.229-22.197 25.08h44.396c-8e-4 -13.852-9.9397-25.081-22.199-25.08z"/>
   <ellipse cx="1467" cy="404.61" rx="2.756" ry="2.6898"/>
   <ellipse cx="1481.8" cy="402.23" rx="5.537" ry="5.1401"/>
   <path d="m1476.4 389.31c-4.071 0.26079-7.8478 1.7587-11.041 4.1699a6.3452 6.6003 0 0 0 4.711 2.1934 6.3452 6.6003 0 0 0 6.33-6.3633z"/>
   <path d="m1498.5 405.75a6.939 7.2601 0 0 0-6.6758 7.2402 6.939 7.2601 0 0 0 0.1367 1.3535h7.877c-2e-4 -3.0192-0.4724-5.9129-1.3379-8.5938z"/>
   <path d="m1464.8 410.43a5.6615 5.974 0 0 0-5.3008 3.916h10.615a5.6615 5.974 0 0 0-5.3144-3.916z"/>
   <path d="m318.57 279.41a27.313 44.417 0 0 0-20.484 42.982 27.313 44.417 0 0 0 20.469 42.975 27.313 44.417 0 0 0 20.465-42.975 27.313 44.417 0 0 0-20.449-42.982z"/>
   <path d="m517.79 149.1c-1.2032 0.0116-1.9922 0.17774-1.9922 0.17774s-11.786 13.058 13.572 20.189c2.2891-18.481-7.2831-20.409-11.58-20.367z"/>
   <path d="m416.76 113.53c-5.284 0.0998-25.547 2.6938-11.574 37.809 33.731-19.746 12.777-37.785 12.777-37.785s-0.44826-0.0377-1.2031-0.0234z"/>
   <path d="m428.24 106.31c-7.4743 1e-3 -10.275 7.2363-10.275 7.2363s4.6062 17.323 24.787-0.3789c-6.0972-5.1342-10.861-6.8582-14.512-6.8574z"/>
   <path d="m1904.4 392.5c-3.0623 0.0578-14.805 1.5612-6.7071 21.912 19.549-11.444 7.4063-21.9 7.4063-21.9s-0.2618-0.02-0.6992-0.0117z"/>
   <path d="m1911.1 388.32c-4.3318 8.6e-4 -5.9551 4.1934-5.9551 4.1934s2.6693 10.04 14.365-0.21875c-3.5336-2.9755-6.2946-3.975-8.4101-3.9746z"/>
   <path d="m1061.2 152.66c-5.6568-0.0421-10.039 2.293-10.039 2.293s-13.7 28.243 33.305 27.846c-4.0075-24.936-14.998-30.077-23.266-30.139z"/>
   <path d="m1037.8 105.73c-5.8612 0.0578-14.798 3.6602-11.973 26.131 28.682-8.1236 16.666-25.451 16.666-25.451s-2.0292-0.70596-4.6934-0.67969z"/>
   <path d="m1196.8 132.54s-18.456 10.981 8.5508 28.441c11.946-26.536-8.5508-28.441-8.5508-28.441z"/>
   <path d="m1437.8 77.065c-2.6408 0.01673-4.6113 0.81445-4.6113 0.81445s-9.9021 15.929 18.057 18.625c-0.9133-16.656-8.4037-19.471-13.445-19.439z"/>
   <path d="m1512.6 140.97c-5.964-0.0931-18.861 2.6915-12.146 30.098 30.215-12.461 14.943-29.82 14.943-29.82s-1.127-0.25127-2.7969-0.27734z"/>
   <path d="m910.7 181.84c-0.11663 1.5e-4 -0.17969 2e-3 -0.17969 2e-3s-13.146 10.544 9.7422 21.172c5.9946-20.552-7.8131-21.176-9.5625-21.174z"/>
   <path d="m292.36 149.74c-4.3815 0.11276-9.9302 3.3236-10.691 18.445 22.959-2.3178 16.141-17.15 16.141-17.15s-2.4513-1.3721-5.4492-1.2949z"/>
   <path d="m121.92 84.979c0.33287 5.0158 4.1437 11.475 16.009 19.019 12.687-28.76-9.4685-30.65-9.4685-30.65"/>
   <path d="m115.15 64.547c-6.0368-0.05104-14.107 3.9496-24.164 17.564 33.35 17.59 37.469-8.7637 37.469-8.7637s-4.4816-8.7262-13.305-8.8008z"/>
   <path d="m133.03 134.27c-2.7956 0.0258-6.3732 0.71705-10.951 2.4102 10.523 19.03 20.842 7.623 20.842 7.623s1.0766-10.135-9.8906-10.033z"/>
   <path d="m495.2 38.959c-0.11201 2.56e-4 -0.17187 0.0039-0.17187 0.0039s-12.617 10.136 9.375 20.322c5.7385-19.745-7.523-20.33-9.2031-20.326z"/>
  </g>
  <path d="m739.44 16.473c-2.4601-0.02352-4.3066 0.69141-4.3066 0.69141s-9.4592 14.69 16.543 17.615c-0.60431-15.527-7.5398-18.262-12.236-18.307z" stroke-width="2"/>
  <g stroke-linecap="round" stroke-linejoin="round" stroke-width="2">
   <path d="m970.23 32.971s-14.389 7.7546 5.584 21.906c9.9434-19.794-5.584-21.906-5.584-21.906z"/>
   <path d="m1061.7 72.68c-5.3653 0.04756-12.321 3.9476-20.1 17.664 30.468 11.64 31.266-11.418 31.266-11.418s-4.2678-6.3072-11.166-6.2461z"/>
   <path d="m1250.2 48.379c-4.3229-0.0134-10.022 1.2534-17.539 4.5898 17.099 26.756 31.08 9.1758 31.08 9.1758s0.5802-13.722-13.541-13.766z"/>
   <path d="m1717 92.51c-5.9699 0.01361-14.093 3.5232-24.902 14.447 31.286 22.775 39.348-3.3867 39.348-3.3867s-3.8033-11.085-14.445-11.061z"/>
   <path d="m1841.7 30.254c-2.0367 0.0049-3.375 0.27734-3.375 0.27734s-20.108 21.958 22.727 34.338c4.1003-31.255-12.078-34.633-19.352-34.615z"/>
   <path d="m1752 98.795c-5.3312-0.04092-9.4199 2.9355-9.4199 2.9355s-7.3767 22.85 28.188 17.553c-5.0881-16.52-12.726-20.442-18.768-20.488z"/>
   <path d="m1589.9 91.656c-2.6074-0.04451-12.644 0.87621-6.3769 18.439 16.983-9.1387 6.9707-18.406 6.9707-18.406s-0.2213-0.02684-0.5938-0.0332z"/>
   <path id="use44069" d="m659.32 135.13c-4.3188-0.0849-11.633 2.2124-9.0488 19.631 13.907-4.2746 14.718-11.208 13.631-15.469-0.56933-2.2321-1.6602-3.7324-1.6602-3.7324s-1.2319-0.39645-2.9219-0.42969z" fill="none" stroke="#005c99" stroke-linecap="round" stroke-linejoin="round" stroke-width="2"/>
  </g>
  <path d="m615.82 86.442c-0.0891-2.72e-4 -0.13867 2e-3 -0.13867 2e-3s-10.073 8.0074 7.3691 16.199c4.6458-15.674-5.8946-16.197-7.2305-16.201z" stroke-width="2"/>
  <path d="m948.06 116.82c-2.804-4e-3 -13.58 1.1534-6.5449 19.932 11.882-6.6361 11.263-13.136 9.4336-16.82-0.95832-1.9299-2.25-3.0879-2.25-3.0879s-0.2381-0.0229-0.63868-0.0234z" stroke-linecap="round" stroke-linejoin="round" stroke-width="2"/>
  <use transform="matrix(.043963 -1.3513 1.3513 .043963 563.47 1103.2)" stroke-width="1.4793" xlink:href="#use44069"/>
  <g stroke-width="2">
   <path d="m501.48 299.7s-18.412 4.3267-0.36133 26.154c17.072-19.118 0.36133-26.154 0.36133-26.154z"/>
   <path d="m1516.9 276.83c-2.5821-0.0428-6.0526 1.6308-10.426 7.373 9.3043 5.0825 13.335 1.9788 15.006-0.75585 0.8751-1.4324 1.1035-2.7637 1.1035-2.7637s-0.4194-0.84539-1.2617-1.7441c-0.9417-1.0048-2.4136-2.0761-4.4218-2.1094z" stroke-linecap="round" stroke-linejoin="round"/>
   <path d="m1893.1 209.47c-0.085 2e-3 -0.1693 5e-3 -0.2519 0.01-1.3846 0.0781-2.3965 0.54883-2.3965 0.54883s-0.3766 0.68116-0.5918 1.6758c-0.5498 2.5418-0.04 7.1289 10.551 7.6172-0.888-8.4388-4.6717-9.9038-7.3105-9.8516z" stroke-linecap="round" stroke-linejoin="round"/>
   <path d="m1993.1 444.19c-1.5786-3.2e-4 -2.7832 0.55859-2.7832 0.55859s-4.7749 8.6157 9.959 9.2949c-0.8729-8.2962-4.5447-9.853-7.1758-9.8535z"/>
   <path d="m1816.8 285.14s-0.7642 0.60124-1.496 1.6406c-1.8703 2.6562-3.5167 8.1813 8.4277 13.9 3.1878-10.467-0.7929-13.888-3.9063-15.004-1.6308-0.58441-3.0254-0.53711-3.0254-0.53711z" stroke-linecap="round" stroke-linejoin="round"/>
   <path d="m1929.6 430.41c-8.9616 1e-3 -8.6973 8.0859-8.6973 8.0859s7.5626 9.7047 15.555-6.8965c-2.7395-0.8407-4.9974-1.1898-6.8574-1.1895z"/>
   <path d="m839.49 292.11c-3.6977-0.0825-8.7807 1.967-15.643 8.5684 12.489 9.5699 19.106 5.9351 22.178 2.3047 1.6092-1.9017 2.2461-3.8027 2.2461-3.8027s-0.42234-1.3341-1.4531-2.8438c-1.3171-1.929-3.6304-4.144-7.3281-4.2266z" stroke-linecap="round" stroke-linejoin="round"/>
   <path d="m81.951 283.48c-3.0754-3e-3 -6.8932 0.54713-11.629 1.8828 10.701 23.592 24.033 11.02 24.033 11.02s2.4137-12.886-12.404-12.902z"/>
   <path d="m169.44 250.05c-2.472 3e-3 -4.2715 0.61719-4.2715 0.61719s-11.682 16.604 18.365 21.236c0.0389-18.914-8.6554-21.86-14.094-21.854z"/>
  </g>
  <g stroke-linecap="round" stroke-linejoin="round" stroke-width="2">
   <path d="m699.84 309.23c-5.7651 0.0152-13.264 3.9977-14.152 24.143 19.633-2.106 22.503-11.134 22.154-17.092-0.18246-3.121-1.248-5.4024-1.248-5.4024s-1.5381-0.84569-3.7812-1.3262c-0.8957-0.19185-1.905-0.32508-2.9727-0.32226z"/>
   <path d="m698.88 291.8c-2.3248 9e-3 -5.162 0.38584-8.6211 1.2676 5.2568 12.416 11.725 12.507 15.551 11.102 2.0038-0.7361 3.2832-1.8828 3.2832-1.8828s0.24843-1.1733 0.11914-2.7344c-0.25817-3.1168-2.029-7.7824-10.332-7.752z"/>
   <path d="m3088.3 153.03 31.501 0.16326c7.4141 0.0385 22.747-7.8171 22.73-10.778-0.015-2.5376-15.316-11.721-22.73-11.714l-108.52 0.0988c-1.9719 2e-3 -15.069-11.859-15.069-11.859l-4.9368-0.0193 5.2576 12.46c0.788 1.8675 2.055 3.6539 3.6775 5.3436m5.3628 4.4596c10.923 7.5025 27.898 12.249 35.359 12.163l24.208-0.2793"/>
   <path d="m3067.9 148.53-17.19 46.199c-3.1144 8.3698-3.0739 8.4598 3.2758 8.4598 6.3496 0 7.2411-0.93605 11.43-8.5396l25.408-46.119"/>
   <path d="m3001.1 135.08-6.9619 11.662c-1.2613 2.1128-1.2449 2.1355 1.3267 2.1355 2.5715 0 2.9326-0.23629 4.629-2.1557l5.1449-5.821 3.8659-4.6474"/>
   <path d="m3066.6 130.58-10.556-26.949c-3.1158-7.954-3.0753-8.0395 3.2773-8.0395 6.3525 0 7.2445 0.88948 11.435 8.1153l15.678 27.033"/>
   <rect x="3083.6" y="138.54" width="3.9063" height="4.1942"/>
   <rect x="3091.2" y="138.54" width="3.9063" height="4.1942"/>
   <rect x="3098.9" y="138.54" width="3.9063" height="4.1942"/>
   <rect x="3106.5" y="138.54" width="3.9063" height="4.1942"/>
   <rect x="3114.2" y="138.54" width="3.9063" height="4.1942"/>
   <rect x="3052.9" y="138.54" width="3.9063" height="4.1942"/>
   <rect x="3060.6" y="138.54" width="3.9063" height="4.1942"/>
   <rect x="3068.2" y="138.54" width="3.9063" height="4.1942"/>
   <rect x="3075.9" y="138.54" width="3.9063" height="4.1942"/>
   <rect x="3022.3" y="138.54" width="3.9063" height="4.1942"/>
   <rect x="3029.9" y="138.54" width="3.9063" height="4.1942"/>
   <rect x="3037.6" y="138.54" width="3.9063" height="4.1942"/>
   <rect x="3045.3" y="138.54" width="3.9063" height="4.1942"/>
   <path d="m3122.9 138.02v5.4643h19.135c0.2975-0.39408 0.4933-0.76007 0.4916-1.0646-0.01-0.88155-1.9181-2.578-4.6414-4.3997z"/>
   <path d="m2902.1 472.9v-117.34a19.588 19.588 0 0 0-19.588-19.588l-23.09-1e-5c-0.6575 14.976 22.266 8.182 23.156 1e-5"/>
   <path d="m2428.7 472.9v-85.19a13.901 13.901 0 0 1 13.901-13.901h16.984c0.4758 10.838-16.114 5.9212-16.758 0"/>
   <path d="m2471.3 437.25c-7.1886 0-12.975 5.786-12.975 12.975v4.498c0 0.54575 0.037 1.0836 0.1015 1.6113h-7.9941c-2.1317 0-3.8477 1.716-3.8477 3.8477v3.6699c0 2.1316 1.716 3.8476 3.8477 3.8477h3.1348v-0.1719c0-4.3057 3.5478-7.8535 7.8535-7.8535s7.8535 3.5478 7.8535 7.8535v0.1719h30.176c0-4.3057 3.5478-7.8535 7.8535-7.8535s7.8535 3.5478 7.8535 7.8535h3.0371c2.1317 0 3.8477-1.716 3.8477-3.8477v-3.6699c0-2.1317-1.716-3.8477-3.8477-3.8477h-11.215c0.065-0.52768 0.1035-1.0656 0.1035-1.6113v-4.498c0-7.1886-5.788-12.975-12.977-12.975h-22.807z"/>
   <rect x="2456.2" y="462.3" width="10.441" height="10.596" ry="5.2203"/>
   <rect x="2502.1" y="462.4" width="10.441" height="10.596" ry="5.2203"/>
   <path d="m2469.7 440.55c-3.8885 0-7.0195 3.131-7.0195 7.0195v6.5195c0 0.7851 0.1334 1.5365 0.3691 2.2402h17.213v-15.779h-10.562zm13.191 0v15.779h19.842c0.2357-0.70377 0.3691-1.4551 0.3691-2.2402v-6.5195c0-3.8885-3.131-7.0195-7.0195-7.0195h-13.191z"/>
   <path d="m2471.3 437.25-12.155-9.975"/>
   <path d="m2131.6 156.35v316.3c351.58-0.14215 702.28 0.25781 1053.8 0.25781v-274.44h-97.086v42.408h-53.676v-57.25h-102.34v57.105l-8.8282 0.17774v82.354l-44.041 0.20312v-139.65h-102.27v60.605h-44.08v-74.494h-107.1v105.5h-69.771v-59.188h-45.354v-53.777h-109.73v77.312h-82.385v20.264h-75.215v-103.69z"/>
   <path d="m1951.6 342.6c-28.201 0.0167-53.067 18.844-61.219 46.352-22.129 2.1459-38.998 20.236-39.047 41.871-6e-4 23.291 19.407 42.173 43.348 42.172h105.3c23.518-5.5e-4 42.583-19.926 42.582-44.504 0-19.81-12.539-37.232-30.748-42.738-9.1282-25.887-33.22-43.152-60.217-43.152z"/>
   <path d="m1946.3 377.2a3.5888 3.8256 0 0 0-3.5879 3.8242 3.5888 3.8256 0 0 0 3.5879 3.8262 3.5888 3.8256 0 0 0 3.5879-3.8262 3.5888 3.8256 0 0 0-3.5879-3.8242z"/>
   <path d="m1953.6 373.78a4.267 4.4305 0 0 0-4.2676 4.4316 4.267 4.4305 0 0 0 4.2676 4.4297 4.267 4.4305 0 0 0 4.2656-4.4297 4.267 4.4305 0 0 0-4.2656-4.4316z"/>
   <path d="m1947.1 369.37a3.5175 3.7876 0 0 0-3.5176 3.7871 3.5175 3.7876 0 0 0 3.5176 3.7871 3.5175 3.7876 0 0 0 3.5176-3.7871 3.5175 3.7876 0 0 0-3.5176-3.7871z"/>
   <path d="m2011.9 417.39a3.9352 4.356 0 0 0-3.9355 4.3555 3.9352 4.356 0 0 0 3.9355 4.3555 3.9352 4.356 0 0 0 3.9356-4.3555 3.9352 4.356 0 0 0-3.9356-4.3555z"/>
   <path d="m2017.9 424.51a2.9523 2.742 0 0 0-2.9512 2.7422 2.9523 2.742 0 0 0 2.9512 2.7422 2.9523 2.742 0 0 0 2.9531-2.7422 2.9523 2.742 0 0 0-2.9531-2.7422z"/>
   <path d="m2012.4 427.25a2.5517 2.6498 0 0 0-2.5508 2.6504 2.5517 2.6498 0 0 0 2.5508 2.6504 2.5517 2.6498 0 0 0 2.5527-2.6504 2.5517 2.6498 0 0 0-2.5527-2.6504z"/>
   <path d="m1874.9 423.84a3.1883 3.0729 67.205 0 0-1.289 0.22857 3.1883 3.0729 67.205 0 0-1.5977 4.1289 3.1883 3.0729 67.205 0 0 4.0684 1.75 3.1883 3.0729 67.205 0 0 1.5976-4.1309 3.1883 3.0729 67.205 0 0-2.7793-1.9766z"/>
   <path d="m1872.4 431.37a3.7883 4.0631 67.205 0 0-1.6875 0.33788 3.7883 4.0631 67.205 0 0-2.2793 5.0665 3.7883 4.0631 67.205 0 0 5.2149 1.9199 3.7883 4.0631 67.205 0 0 2.2773-5.0684 3.7883 4.0631 67.205 0 0-3.5254-2.2559z"/>
   <path d="m1868.3 426.34a3.2363 2.9412 67.205 0 0-1.2383 0.20314 3.2363 2.9412 67.205 0 0-1.459 4.123 3.2363 2.9412 67.205 0 0 3.9668 1.8438 3.2363 2.9412 67.205 0 0 1.4571-4.1231 3.2363 2.9412 67.205 0 0-2.7266-2.0468z"/>
  </g>
 </g>
 <rect y=".00017" width="3200" height="512" fill="url(#linearGradient61465)"/>
 <rect width="0" height="0" fill="none" stroke="#1a5fb4" stroke-linecap="round" stroke-linejoin="round" stroke-width="2"/>
</svg>
