<?xml version="1.0" encoding="UTF-8"?>
<svg width="357" height="512" version="1.1" viewBox="0 0 357 512" xmlns="http://www.w3.org/2000/svg">
 <g transform="matrix(-1 0 0 1 356.22 0)" stroke="#000">
  <path d="m58.179 436.91c-1.9263 10.503-1.7881 18.927-1.6303 27.33-7.5662 5.1549-12.947 13.498-17.287 20.458l0.76183 10.086c7.9513 5.8359 16.947 3.3539 28.363-4.0263 14.232-14.67 29.702-26.042 30.082-52.27-6.0147-8.4638-10.843-10.104-21.288-14.42z" fill="#c876ff" stroke-width="2"/>
  <path d="m89.436 430.22-5.8159-9.7783-14.443 3.2748 0.4439 5.9954" fill="#9141ac" stroke-width="2"/>
  <path d="m115.21 326.29c-69.943 26.089-56.583 75.352-43.34 106.97" fill="none" stroke-linecap="round" stroke-width="12"/>
  <g stroke-width="2">
   <path d="m122.81 332.18 6.6602 5.21-30.47 25.102-15.63-32.623 27.132-13.978 6.1678 9.383" fill="#323334"/>
   <path d="m56.781 465.18c-2.292-2.7206 0.64822-17.762-0.24227-22.503 0 0-1.5401-7.9339-2.1925-9.6513 6.7313-2.367 8.4903-2.8477 16.349-2.1858 0.15647 2.1599 1.2495 8.1603-0.07937 14.481-1.8045 8.5832-6.2902 17.981-7.0442 21.23" fill="#9141ac"/>
   <path d="m98.393 438.24 6.1406 5.7199c-1.3182 6.6236-4.363 16.092-8.0016 21.498l-8.0704 3.5991c4.4677-9.0398 11.094-18.83 9.9314-30.817z" fill="#fff"/>
   <path d="m58.86 500.9c7.0495-1.7323 16.461-8.4453 20.092-12.086 8.3395-8.3614 9.0156-7.6429 11.222-14.073l-1.5144-6.0699c-8.9835 12.897-13.697 15.107-21.068 22.146-5.5324 5.2826-19.312 5.6715-25.517 5.3658 0 0 8.008 6.8745 16.786 4.7176z" fill="#fff"/>
  </g>
  <g transform="matrix(3.7795,0,0,3.7795,-238.98,-216.94)" fill="#9141ac" stroke-linejoin="round" stroke-width=".52917">
   <path d="m74.594 184.31c0.73241 0.0669 1.2184 0.28489 1.945 0.77873l2.9758-2.567c-0.92271-0.33509-1.6524-0.66614-3.2746-0.48982-0.0213 0.13238-1.6462 2.2781-1.6462 2.2781z"/>
   <path d="m82.094 184.6-3.7684 0.84067 2.1603-1.9353z"/>
   <path d="m81.544 182.49c1.549-1.9129 3.3584-3.7147 2.472-6.6664l2.8741 0.61641c0.0841 2.5019-1.0129 4.9547-3.4183 7.353z"/>
  </g>
  <g transform="matrix(3.7795,0,0,3.7795,-238.98,-216.94)" fill="none" stroke-width=".52917">
   <path d="m79.114 175.67c-0.86489 0.74059-2.8563 4.6711-2.6361 1.6281 0.18118-2.5041 2.0554-2.2349 2.6361-1.6281z"/>
   <path d="m79.124 175.7c0.86489 0.7406 3.1627 4.7188 2.9425 1.6758-0.18118-2.5041-2.3619-2.2826-2.9425-1.6758z"/>
   <g stroke-linecap="round">
    <path d="m78.184 180.29 3.1825-0.77618"/>
    <path d="m78.094 178.9 3.2701-0.79758"/>
    <path d="m78.224 177.45 3.1948-0.77921"/>
    <path d="m80.984 180.88-2.9221-1.0721"/>
    <path d="m81.364 179.43-3.1651-1.1612"/>
    <path d="m81.474 178.13-3.134-1.1498"/>
   </g>
   <path d="m119.11 85.666c-11.63-10.217-21.69-1.4093-28.306 4.3793 3.3102-7.2566 6.5896-15.821 17.941-14.987"/>
  </g>
  <path d="m100.17 260.45c-1.1429 17.517-7.9301 28.997-18.248 35.521-10.318 6.5246-24.976 8.282-42.814 3.2775l-3.7871 13.479c20.612 5.7826 39.673 4.1911 54.088-4.9236 14.414-9.1146 23.374-25.567 24.736-46.446z" color="#000000" fill="#f6bd6d" stroke-width="2"/>
  <path d="m122.73 228.51c-37.724 11.403-25.888 46.371-21.566 58.9 4.9738 14.417 13.253 65.763 68.545 47.841 53.442-17.322 26.573-64.452 21.274-74.509-7.7022-14.622-28.987-44.099-68.254-32.23z" fill="#fff" stroke-width="2"/>
 </g>
 <g transform="matrix(-1 0 0 1 356.22 0)" fill="#f6bd6d" stroke-width="2">
  <path d="m52.926 150.26s6.1228-24.989 13.832-27.732c2.9667-1.0552 13.525 6.6995 13.525 6.6995" stroke="#000"/>
  <path d="m33.084 187.5c9.5145-28.165 35.092-69.562 78.538-67.581 17.876 0.81478 36.12 28.586 33.246 53.223-0.97439 8.3535-2.489 12.915-8.2151 19.405-3.0487 3.4558-3.9016 9.6423-1.8239 14.489l8.1883 19.103c1.9015 0.32126 7.7034 0.28233 9.8747 1.0098-16.793 28.849-44.568 42.206-49.254 12.712 0.93282-1.6204 3.7859-3.2876 5.2255-4.9424l-12.565-15.02c-2.2786-2.7237-7.5805-5.7558-12.529-4.1771-7.4774 2.3856-15.519 4.1019-22.144 3.7331-21.21-1.1806-33.489-17.315-28.544-31.956z" stroke="#000"/>
  <path d="m69.707 143.8s3.0533-25.289 17.463-30.083c6.2657-2.0843 13.251 2.0234 18.642 6.5794" color="#000000"/>
 </g>
 <path d="m244.16 159.59c1.6529 3.7355 4.7902 7.4064 15.156 9.5624 9.661 2.0094 18.456-0.70112 21.466-14.717 1.6695-7.7731-1.0139-16.106-3.8673-21.641-1.911-3.7066-6.6175-7.7186-11.242-7.7572-6.6953-0.0559-12.757 3.3919-18.8 15.625-2.0554 4.1609-4.4814 14.932-2.7131 18.928z"/>
 <path d="m264.14 112.24c1.7409-0.17423 3.4916-0.0302 5.2044 0.53888 7.6845 2.5563 12.145 10.389 14.756 17.436 2.6109 7.0469 3.3809 13.472 3.3809 13.472-3.8158-5.3072-4.2599-10.03-5.2558-12.778-2.5181-6.7959-6.7834-13.995-13.509-16.233-2.8406-0.94491-5.8941-0.50845-8.954 0.76773-3.0601 1.2762-5.7581 3.2588-8.4041 5.495l-1.9158-1.2324c2.7452-2.3199 6.2056-4.7123 9.5523-6.108 1.6733-0.69781 3.4042-1.1839 5.145-1.3582z" color="#000000" stroke-width="2"/>
 <g transform="matrix(-1 0 0 1 356.22 0)" stroke="#000">
  <g stroke-width="2">
   <path d="m158.62 229.49c-6.0415 24.421 11.71 41.843 36.267 38.88-6.5726-13.924-19.97-36.435-36.267-38.88z" fill="#f6bd6d"/>
   <path d="m178.69 245.41c31.452 0.45241 54.565 12.303 69.18 35.34l11.818-7.5c-19.354-30.509-65.782-43.479-100.77-43.982l-0.5619 2.1468" color="#000000" fill="#f6bd6d" stroke-linecap="round"/>
   <path d="m295.71 343.03c9.0542 4.7569 16.795 7.0321 24.523 9.2851 2.5553 8.3882 2.2868 16.731 7.4124 22.685l11.875 2.6398c7.6036-5.6054 11.705-18.596 8.2132-31.139-9.3543-17.197-15.339-34.584-39.212-42.41-9.4537 3.0853-12.331 7.0325-19.255 15.352z" fill="#c876ff"/>
   <path d="m295.33 312.64-6.6659 3.3452-1.9945 10.673 5.6084 1.304" fill="#9141ac"/>
  </g>
  <path d="m191.58 326.89c35.71 52.168 71.119 35.524 106.45 0.5523" fill="none" stroke-linecap="round" stroke-width="12"/>
  <path d="m320.2 352.1c-3.1411 1.3198-16.055-5.6583-20.644-6.1961 0 0-8.6021 2.0598-10.359 2.1664-0.24529-6.8296 1.5763-13.771 4.4228-20.767 2.0195 0.4729 7.8175 1.1848 13.218 4.2024 7.333 4.0977 14.646 10.879 17.402 12.495" fill="#9141ac" stroke-width="2"/>
 </g>
 <g stroke-width="2">
  <g transform="matrix(-1 0 0 1 356.22 0)">
   <path d="m97.562 203.53c-5.026 3.4899-10.696 8.4192-19.105 12.912l2.8838 0.44772c7.483-3.8044 11.41-6.8836 16.221-13.36z" color="#000000"/>
   <g stroke-linejoin="round">
    <path d="m38.942 318.39s4.1102-13.508 4.1828-24.258l-5.8843 3.0985-10.069-13.018c-6.3605-2.6574-8.9041-3.0092-13.441-0.81233-4.5906 2.2228-3.1604 4.515-3.1604 4.515s-9.0999-2.741-9.0542 7.2922c0.022677 4.4352 9.0995 4.8963 9.0995 4.8963s-9.7923-1.042-9.6158 6.3756c0.11452 4.8143 8.9911 5.9353 8.9911 5.9353s-6.9437 0.45052-5.9622 5.9047c1.0759 5.9788 8.601 4.4806 8.601 4.4806 9.7269 1.9537 21.997-7.3636 21.997-7.3636z" fill="#fff" stroke="#000" stroke-linecap="round"/>
    <path d="m9.6506 300.1 11.723-0.61099c4.2659-0.22262 6.7989 8.0333 4.086 10.052-1.6751 1.246-11.467 2.4188-16.129 3.0251" fill="none" stroke="#000" stroke-linecap="round"/>
    <path d="m10.357 286.64 3.7222 9.7209c3.0789 8.0409 16.601 1.6584 10.562-3.6342l-1.9316-1.693" color="#000000" fill="#fff"/>
    <path d="m11.302 286.26-1.8676 0.71603 3.7278 9.722c0.87291 2.2798 2.589 3.6473 4.4587 4.1707 1.8696 0.52343 3.8668 0.28271 5.5585-0.42077 1.6918-0.70363 3.1357-1.8718 3.7426-3.4547 0.60684-1.5829 0.11452-3.5311-1.6092-5.0418l-3.2639-2.4949c-0.35036 1.078 1.1495 3.2518 1.9499 4.001 1.2957 1.1356 1.3819 1.9688 1.0556 2.8199-0.32617 0.85107-1.324 1.7768-2.6427 2.3253-1.3187 0.54844-2.909 0.71553-4.2519 0.3394-1.3429-0.37606-2.4634-1.2194-3.1299-2.9601z" color="#000000"/>
    <path d="m8.8191 312.53 11.723-0.61099c4.2659-0.22261 5.1719 6.0854 2.4588 8.1032-1.675 1.246-6.2573 2.0904-10.919 2.6967" fill="none" stroke="#000" stroke-linecap="round"/>
   </g>
  </g>
  <g transform="matrix(-1 0 0 1 356.22 0)" fill="#fff">
   <path d="m272.8 284.11c3.0398 4.1329 12.118 22.548-14.537 25.486-2.0086 0.22148-3.1718-1.8197-1.2803-2.5398" stroke="#000"/>
   <path d="m245.06 279.99-7.189-2.4656c5.4153-6.164 12.553-11.083 20.929-15.109l1.3638 8.8796c6.4406 5.3718 15.33 12.064 14.864 20.797-0.38918 7.2752-6.5979 14.016-17.124 14.962-6.5741 0.59107-10.218-3.1033-8.2253-9.3082 1.3837-4.5721 4.0917-2.8613 6.2815-3.6079z" stroke="#000" stroke-linecap="round" stroke-linejoin="round"/>
   <path d="m258.82 275.87 3.5836 10.488s0.1799 9.8649-1.6686 13.625c-1.1973 2.4358-6.9358 1.7597-8.1135-0.6856-2.1076-4.3763 0.17273-12.305 0.17273-12.305l-3.1439-6.5623" color="#000000" stroke-linejoin="round"/>
  </g>
  <g transform="matrix(-1 0 0 1 356.22 0)">
   <g stroke-linejoin="round">
    <path d="m257.8 276.25 3.5187 10.31c2e-3 0.13266 0.0427 2.3575-0.13492 5.1628-0.18293 2.8874-0.66799 6.2823-1.4218 7.816-0.1406 0.28573-0.4388 0.53593-0.97697 0.71485-0.5382 0.17877-1.2684 0.24756-2.0096 0.17499-1.4822-0.14551-2.8759-0.92269-3.1851-1.5648-0.87779-1.8226-0.90715-4.7667-0.6116-7.2041 0.29556-2.4377 0.84193-4.3366 0.84193-4.3366 0.0733-0.25323 0.0506-0.52471-0.0635-0.76252l-3.1374-6.5688c-0.69146 1.6892 0.6506 4.9916 1.0484 7.1803-0.0949 0.34204-0.53854 1.8621-0.82604 4.2334-0.31748 2.6207-0.42762 5.834 0.80219 8.3875 0.86846 1.8033 2.9359 2.5853 4.9168 2.78 0.99038 0.0971 1.9878 0.0227 2.8991-0.27817 0.91131-0.30312 1.7817-0.87896 2.2399-1.811 1.0945-2.227 1.439-5.6409 1.6283-8.626 0.18898-2.9852 0.15081-5.4886 0.15081-5.4886-3e-3 -0.11376-0.0227-0.22639-0.0635-0.33335-1.339-5.2592-3.3667-8.6437-5.6156-9.7859z" color="#000000"/>
    <path d="m261.99 294.69 4.0127-4.032-3.6344-4.1915" fill="none" stroke="#000" stroke-linecap="round"/>
    <path d="m265.24 289.82c-0.37901 0.15874-0.63496 0.519-0.65923 0.92927l0.13153 6.2037c1.5134-0.63367 1.651-3.8052 1.9737-5.4017l4.6771-1.5868c-3.358-0.61379-5.1862-0.079-6.1228-0.14475z" color="#000000"/>
   </g>
   <path d="m170.79 244.16c1.5942 2.0393 6.9475 2.2634 9.5463 2.317l0.0378-2.0005z" color="#000000"/>
  </g>
 </g>
 <g stroke="#000">
  <g stroke-width="2">
   <g transform="matrix(-1 0 0 1 356.22 0)">
    <ellipse transform="matrix(-.55007 -.83512 -.83512 .55007 0 0)" cx="-207.74" cy="-119" rx="4.7452" ry="4.6926" fill="#5a222f" stroke-linecap="round" stroke-linejoin="round"/>
    <ellipse transform="matrix(-.55007 -.83512 -.83512 .55007 0 0)" cx="-150.89" cy="-110.97" rx="4.5396" ry="4.8151" fill="#5a222f" stroke-linecap="round" stroke-linejoin="round"/>
    <path d="m108.85 310.17c7.4669 20.964 21.239 41.727 60.503 29 37.233-12.067 37.176-37.129 30.778-57.173-28.729 26.526-54.456 38.014-91.28 28.173z" fill="#323334"/>
    <path d="m180.77 333.02-6.4157 4.408 24.363 27.9 20.637-26.28-22.271-18.593-6.1058 5.1874" fill="#323334"/>
   </g>
   <path d="m47.974 304.06-5.9474-2.9548c-5.6802 3.0944-10.931 6.6179-14.836 11.487l-2.0226 7.3768c6.9913-6.6629 11.515-13.553 22.806-15.909z" fill="#fff"/>
   <path d="m16.824 377.73-6.5144-2.2993c-4.08-1.9257-9.0081-6.7162-9.3093-29.158 4.4424-10.471 8.601-19.824 18.456-26.218l5.9818-0.34658c-11.328 10.636-11.867 19.746-17.696 27.629-0.0575 12.067 2.0528 23.113 9.0806 30.394z" fill="#fff"/>
   <g transform="matrix(-1 0 0 1 356.22 0)" fill="#9141ac" stroke-linecap="round" stroke-linejoin="round">
    <path d="m326.17 372.25c0.79483-6.5718 2.2038-10.132 6.737-13.734l-4.32-10.756c-2.4816 3.2595-5.0275 6.331-5.9368 14.197z"/>
    <path d="m337.2 338.8-1.1568 13.929-4.3593-9.5512z"/>
    <path d="m329.31 338.42c-4.9406-7.4146-9.2167-15.609-20.372-15.728l5.2278-9.2673c8.7363 2.4063 16.03 8.841 21.725 19.738z"/>
   </g>
  </g>
  <g transform="matrix(-1 0 0 1 356.22 0)" fill="none">
   <path d="m305.34 341.67c1.627 3.7871 13.063 14.905 2.7847 10.864-8.4581-3.3254-5.5075-9.5119-2.7847-10.864z" stroke-width="2"/>
   <path d="m305.46 341.67c3.4915-2.1905 19.715-5.8431 8.9623-8.3621-8.8486-2.0731-10.434 5.7014-8.9623 8.3621z" stroke-width="2"/>
   <g transform="matrix(3.7795,0,0,3.7795,-238.98,-216.94)" stroke-linecap="round" stroke-width=".52917">
    <path d="m147.93 150.83 0.2527-3.9974"/>
    <path d="m146.63 150.43 0.25268-3.9974"/>
    <path d="m145.34 149.98 0.25269-3.9974"/>
    <path d="m149.32 147.58-2.259 2.9471"/>
    <path d="m148.1 146.81-2.259 2.9471"/>
    <path d="m146.94 146.35-2.259 2.9471"/>
   </g>
  </g>
 </g>
 <path d="m277.04 133.12c-2.5859-6.199-6.7749-11.534-13.368-12.567-10.68-1.6742-16.101 10.211-18.735 18.451-2.1492 6.7242-4.984 14.732-0.7888 20.587 2.7976 3.9048 7.6812 5.9935 12.319 7.477 14.383 4.6006 20.047-5.0573 22.358-12.345 2.1842-6.8873 0.99579-14.934-1.7859-21.602z" fill="#fff"/>
 <ellipse transform="matrix(-.96062 -.27785 -.27785 .96062 0 0)" cx="-300.62" cy="68.573" rx="11.461" ry="14.728"/>
 <ellipse transform="matrix(-.96062 -.27785 -.27785 .96062 0 0)" cx="-303.78" cy="65.403" rx="4.744" ry="5.8794" fill="#fff"/>
 <g transform="matrix(-1 0 0 1 356.22 0)" fill="#dc281e" stroke="#000" stroke-width="2">
  <path d="m197.89 275.76c-51.663 4.7424-52.417-32.581-45.001-48.601 2.3996 0.55872 3.7451 1.1774 6.0301 2.1098-7.0718 29.083 16.103 41.883 35.968 39.11l3.0024 7.3814"/>
  <path d="m105.52 301.6c-5.0626-21.224-9.5407-40.896-0.43966-55.781l-1.4405-5.956c-12.79 11.616-9.2343 33.632 1.8802 61.737z"/>
  <path d="m200.13 282c-27.694 23.923-49.572 38.226-91.28 28.173l3.3889 8.3396c22.931 10.998 60.9 2.191 89.811-29.378z"/>
 </g>
</svg>
