<svg version="1.1" viewBox="0 0 800 500" xmlns="http://www.w3.org/2000/svg">
 <rect width="800" height="500" fill="#ebeced"/>
 <rect width="800" height="48" fill="#323334"/>
 <rect x="94" y="8" width="280" height="32" ry="4" fill="#464748"/>
 <path d="m732 12c-6.648 0-12 5.352-12 12s5.352 12 12 12 12-5.352 12-12-5.352-12-12-12zm0 6c0.554 0 1 0.446 1 1v0.55078c1.4207 0.23806 2.5 1.4588 2.5 2.9492v3c0 0.30185-0.0565 0.58693-0.13867 0.86133l1.1387 1.1387c0.55197 0.519 0.49768 0.9952 0 1h-9c-0.52102-5e-3 -0.50829-0.46732 0-1l1.1387-1.1387c-0.0822-0.2744-0.13867-0.55948-0.13867-0.86133v-3c0-1.4904 1.0793-2.7112 2.5-2.9492v-0.55078c0-0.554 0.446-1 1-1zm-1.5 11h3c0 0.831-0.669 1.5-1.5 1.5s-1.5-0.669-1.5-1.5z" fill="#c8c9ca"/>
 <g fill="#505152">
  <path d="m160 193c-27.7 0-50 22.3-50 50s22.3 50 50 50 50-22.3 50-50-22.3-50-50-50zm0 15c11.08 0 20 8.92 20 20 0 13-15 16-15 30h-10c0-20 15-20 15-30 0-5.54-4.46-10-10-10s-10 4.46-10 10h-10c0-11.08 8.92-20 20-20zm-5 60h10v10h-10z"/>
  <path d="m280 203c-5.54 0-10 4.46-10 10v60c0 5.54 4.46 10 10 10h80c5.54 0 10-4.46 10-10v-60c0-5.54-4.46-10-10-10zm37.264 15h0.47266c12.334 0 22.264 9.9294 22.264 22.264v0.47266c0 4.3482-1.2386 8.3956-3.377 11.816l13.912 13.912-7.0703 7.0703-13.912-13.912c-3.4208 2.1384-7.4682 3.377-11.816 3.377h-0.47266c-12.334 0-22.264-9.9294-22.264-22.264v-0.47266c0-12.334 9.9294-22.264 22.264-22.264zm0.23633 10c-6.925 0-12.5 5.575-12.5 12.5s5.575 12.5 12.5 12.5 12.5-5.575 12.5-12.5-5.575-12.5-12.5-12.5z"/>
  <path d="m450 193c-5.54 0-10 4.46-10 10v80c0 5.54 4.46 10 10 10h60c5.54 0 10-4.46 10-10v-60l-30-30zm35 8 27 27h-27zm-10 37h10v15h15v10h-15v15h-10v-15h-15v-10h15z"/>
 </g>
 <rect x="172" y="366" width="351" height="30" ry="3" fill="#c8c9ca"/>
 <rect x="173" y="367" width="349" height="28" ry="2" fill="#fff"/>
 <rect x="526" y="367" width="102" height="28" ry="3" fill="#007acc"/>
 <g fill="#c8c9ca" aria-label="Bugzilla">
  <path d="m16.08 23.72q1.42 0.24 2.3 1t0.88 2.36q0 3.92-5.46 3.92h-3.8v-13.78h3.26q2.62 0 4 0.86 1.4 0.86 1.4 2.62 0 1.2-0.76 2-0.74 0.8-1.82 1.02zm-4.18-5v4.34h2.08q1.2 0 1.96-0.58 0.78-0.58 0.78-1.64 0-1.2-0.82-1.66-0.8-0.46-2.44-0.46zm1.9 10.76q1.68 0 2.56-0.5 0.9-0.5 0.9-1.9 0-1.36-0.86-1.96t-2.24-0.6h-2.26v4.96z"/>
  <path d="m29.82 31h-1.58l-0.14-1.64q-0.6 0.98-1.38 1.44-0.78 0.44-1.9 0.44-1.38 0-2.16-0.84t-0.78-2.38v-7.56h1.84v7.36q0 1.08 0.38 1.54 0.38 0.44 1.24 0.44 1.54 0 2.64-1.82v-7.52h1.84z"/>
  <path d="m42.06 20.94q-0.6 0.2-1.32 0.26t-1.76 0.06q1.86 0.84 1.86 2.66 0 1.58-1.08 2.58t-2.94 1q-0.72 0-1.34-0.2-0.24 0.16-0.38 0.44-0.14 0.26-0.14 0.54 0 0.86 1.38 0.86h1.68q1.06 0 1.88 0.38t1.26 1.04q0.46 0.66 0.46 1.5 0 1.54-1.26 2.36-1.26 0.84-3.68 0.84-1.7 0-2.7-0.36-0.98-0.34-1.4-1.04t-0.42-1.8h1.66q0 0.64 0.24 1 0.24 0.38 0.86 0.56 0.62 0.2 1.76 0.2 1.66 0 2.36-0.42 0.72-0.4 0.72-1.22 0-0.74-0.56-1.12t-1.56-0.38h-1.66q-1.34 0-2.04-0.56-0.68-0.58-0.68-1.44 0-0.52 0.3-1t0.86-0.86q-0.92-0.48-1.36-1.18-0.42-0.72-0.42-1.74 0-1.06 0.52-1.9 0.54-0.84 1.46-1.3 0.94-0.48 2.08-0.48 1.24 0.02 2.08-0.08 0.84-0.12 1.38-0.3 0.56-0.2 1.36-0.56zm-5.36 0.6q-1.04 0-1.62 0.66-0.56 0.64-0.56 1.7 0 1.08 0.58 1.74 0.58 0.64 1.64 0.64 1.08 0 1.64-0.62 0.58-0.64 0.58-1.78 0-2.34-2.26-2.34z"/>
  <path d="m50.14 21.86-5.5 7.6h5.56l-0.22 1.54h-7.42v-1.38l5.48-7.6h-5.02v-1.56h7.12z"/>
  <path d="m54.38 31h-1.84v-10.54h1.84zm-0.94-15.6q0.58 0 0.94 0.36t0.36 0.9-0.36 0.9q-0.36 0.34-0.94 0.34-0.56 0-0.92-0.34-0.36-0.36-0.36-0.9t0.36-0.9 0.92-0.36z"/>
  <path d="m60.14 31.24q-1.02 0-1.62-0.6-0.58-0.62-0.58-1.72v-12.7l1.84-0.22v12.88q0 0.42 0.14 0.64 0.16 0.2 0.52 0.2 0.38 0 0.68-0.12l0.48 1.28q-0.66 0.36-1.46 0.36z"/>
  <path d="m66.02 31.24q-1.02 0-1.62-0.6-0.58-0.62-0.58-1.72v-12.7l1.84-0.22v12.88q0 0.42 0.14 0.64 0.16 0.2 0.52 0.2 0.38 0 0.68-0.12l0.48 1.28q-0.66 0.36-1.46 0.36z"/>
  <path d="m76.88 28.54q0 0.64 0.22 0.96 0.22 0.3 0.66 0.46l-0.42 1.28q-0.82-0.1-1.32-0.46t-0.74-1.12q-1.06 1.58-3.14 1.58-1.56 0-2.46-0.88t-0.9-2.3q0-1.68 1.2-2.58 1.22-0.9 3.44-0.9h1.62v-0.78q0-1.12-0.54-1.6t-1.66-0.48q-1.16 0-2.84 0.56l-0.46-1.34q1.96-0.72 3.64-0.72 1.86 0 2.78 0.92 0.92 0.9 0.92 2.58zm-4.32 1.32q1.58 0 2.48-1.64v-2.42h-1.38q-2.92 0-2.92 2.16 0 0.94 0.46 1.42t1.36 0.48z"/>
 </g>
 <g fill="#c8c9ca" opacity=".5" aria-label="Search Bugs">
  <path d="m131.96 18.718q1.012 0 1.7307 0.29334 0.71868 0.27867 1.3934 0.88002l-0.76268 0.85069q-0.57202-0.45468-1.1294-0.66002-0.54268-0.22-1.1734-0.22-0.79202 0-1.3054 0.36668-0.51334 0.36668-0.51334 1.0707 0 0.44001 0.176 0.74802 0.17601 0.29334 0.64535 0.54268 0.48401 0.24934 1.3934 0.52801 0.95335 0.29334 1.584 0.63068t1.012 0.93869q0.396 0.58668 0.396 1.496 0 0.88002-0.44001 1.5547-0.42534 0.67468-1.2467 1.056-0.80669 0.38134-1.9214 0.38134-2.0974 0-3.4321-1.3054l0.76269-0.85069q0.61601 0.49868 1.2467 0.76268 0.63068 0.24934 1.408 0.24934 0.93868 0 1.5547-0.45468 0.61601-0.46934 0.61601-1.3494 0-0.49868-0.19067-0.82135-0.19067-0.33734-0.66001-0.60135-0.45468-0.26401-1.3347-0.52801-1.5547-0.46934-2.2734-1.1294-0.71868-0.66002-0.71868-1.7894 0-0.76268 0.39601-1.364 0.41068-0.60135 1.1294-0.93869 0.73335-0.33734 1.6574-0.33734z"/>
  <path d="m143.22 24.908q0 0.33734-0.0293 0.68935h-4.9281q0.088 1.276 0.64535 1.8774t1.4374 0.60135q0.55734 0 1.0267-0.16134 0.46934-0.16134 0.98269-0.51334l0.58668 0.80668q-1.232 0.96802-2.6987 0.96802-1.6134 0-2.5227-1.056-0.89468-1.056-0.89468-2.9041 0-1.2027 0.38134-2.1267 0.39601-0.93869 1.1147-1.4667 0.73335-0.52801 1.716-0.52801 1.54 0 2.3614 1.012 0.82135 1.012 0.82135 2.8014zm-1.3347-0.39601q0-1.144-0.45468-1.7454-0.45467-0.60135-1.364-0.60135-1.6574 0-1.804 2.4347h3.6228z"/>
  <path d="m150.5 27.196q0 0.46934 0.16133 0.70402 0.16134 0.22 0.48401 0.33734l-0.308 0.93869q-0.60135-0.07334-0.96803-0.33734-0.36667-0.26401-0.54267-0.82135-0.77736 1.1587-2.3027 1.1587-1.144 0-1.804-0.64535-0.66002-0.64535-0.66002-1.6867 0-1.232 0.88002-1.892 0.89469-0.66002 2.5227-0.66002h1.188v-0.57201q0-0.82135-0.39601-1.1734t-1.2174-0.35201q-0.85068 0-2.0827 0.41068l-0.33734-0.98269q1.4374-0.52801 2.6694-0.52801 1.364 0 2.0387 0.67468 0.67469 0.66002 0.67469 1.892zm-3.1681 0.96802q1.1587 0 1.8187-1.2027v-1.7747h-1.012q-2.1414 0-2.1414 1.584 0 0.68935 0.33734 1.0414t0.99735 0.35201z"/>
  <path d="m156.59 21.094q0.41068 0 0.76269 0.088l-0.24934 1.32q-0.35201-0.088-0.67468-0.088-0.71869 0-1.1587 0.52801t-0.68935 1.6427v4.4148h-1.3494v-7.7295h1.1587l0.13201 1.5694q0.308-0.86535 0.83602-1.3054 0.52801-0.44001 1.232-0.44001z"/>
  <path d="m161.41 21.094q0.68935 0 1.2614 0.20534 0.57201 0.19067 1.1 0.63068l-0.64535 0.85069q-0.41068-0.29334-0.80669-0.42534-0.38134-0.14667-0.85068-0.14667-0.93869 0-1.4667 0.74802-0.51335 0.74802-0.51335 2.2147t0.51335 2.1707q0.51334 0.68935 1.4667 0.68935 0.45467 0 0.83602-0.132 0.38134-0.14667 0.85068-0.45468l0.61602 0.88002q-1.056 0.85069-2.3614 0.85069-1.5694 0-2.4787-1.056-0.89469-1.056-0.89469-2.9187 0-1.232 0.41068-2.156 0.41067-0.92402 1.1587-1.4374 0.76268-0.51334 1.804-0.51334z"/>
  <path d="m169.18 21.094q1.056 0 1.6427 0.63068 0.60134 0.63068 0.60134 1.7307v5.5441h-1.3494v-5.3535q0-0.82135-0.32268-1.1587-0.308-0.33734-0.90935-0.33734t-1.0707 0.35201-0.88002 0.99736v5.5001h-1.3494v-10.824l1.3494-0.14667v4.3121q0.90935-1.2467 2.288-1.2467z"/>
  <path d="m182.5 23.661q1.0414 0.176 1.6867 0.73335t0.64535 1.7307q0 2.8747-4.0041 2.8747h-2.7867v-10.106h2.3907q1.9214 0 2.9334 0.63068 1.0267 0.63068 1.0267 1.9214 0 0.88002-0.55735 1.4667-0.54267 0.58668-1.3347 0.74802zm-3.0654-3.6668v3.1827h1.5254q0.88002 0 1.4374-0.42534 0.57201-0.42534 0.57201-1.2027 0-0.88002-0.60135-1.2174-0.58668-0.33734-1.7894-0.33734zm1.3934 7.8908q1.232 0 1.8774-0.36668 0.66001-0.36668 0.66001-1.3934 0-0.99736-0.63068-1.4374t-1.6427-0.44001h-1.6574v3.6374z"/>
  <path d="m192.58 29h-1.1587l-0.10267-1.2027q-0.44001 0.71868-1.012 1.056-0.57202 0.32267-1.3934 0.32267-1.012 0-1.584-0.61601-0.57201-0.61601-0.57201-1.7454v-5.5441h1.3494v5.3975q0 0.79202 0.27867 1.1294 0.27867 0.32267 0.90935 0.32267 1.1294 0 1.936-1.3347v-5.5148h1.3494z"/>
  <path d="m201.55 21.622q-0.44001 0.14667-0.96802 0.19067-0.52802 0.044-1.2907 0.044 1.364 0.61601 1.364 1.9507 0 1.1587-0.79202 1.892-0.79201 0.73335-2.156 0.73335-0.52801 0-0.98268-0.14667-0.17601 0.11734-0.27868 0.32267-0.10267 0.19067-0.10267 0.39601 0 0.63068 1.012 0.63068h1.232q0.77736 0 1.3787 0.27867 0.60135 0.27867 0.92402 0.76268 0.33734 0.48401 0.33734 1.1 0 1.1294-0.92402 1.7307-0.92402 0.61601-2.6987 0.61601-1.2467 0-1.98-0.26401-0.71868-0.24934-1.0267-0.76268t-0.30801-1.32h1.2174q0 0.46934 0.176 0.73335 0.176 0.27867 0.63068 0.41068 0.45468 0.14667 1.2907 0.14667 1.2174 0 1.7307-0.30801 0.52801-0.29334 0.52801-0.89469 0-0.54268-0.41067-0.82135-0.41068-0.27867-1.144-0.27867h-1.2174q-0.98269 0-1.496-0.41068-0.49868-0.42534-0.49868-1.056 0-0.38134 0.22-0.73335 0.22001-0.35201 0.63069-0.63068-0.67469-0.35201-0.99736-0.86535-0.30801-0.52801-0.30801-1.276 0-0.77735 0.38134-1.3934 0.39601-0.61601 1.0707-0.95336 0.68934-0.35201 1.5254-0.35201 0.90936 0.01467 1.5254-0.05867 0.61601-0.088 1.012-0.22 0.41068-0.14667 0.99736-0.41068zm-3.9308 0.44001q-0.76268 0-1.188 0.48401-0.41068 0.46934-0.41068 1.2467 0 0.79202 0.42534 1.276 0.42535 0.46934 1.2027 0.46934 0.79201 0 1.2027-0.45468 0.42534-0.46934 0.42534-1.3054 0-1.716-1.6574-1.716z"/>
  <path d="m205.05 21.094q0.79202 0 1.4227 0.22t1.2027 0.66002l-0.57201 0.85069q-0.52801-0.33734-1.012-0.49868-0.46935-0.16134-0.99736-0.16134-0.66001 0-1.0414 0.27867-0.38134 0.26401-0.38134 0.73335t0.35201 0.73335q0.36668 0.26401 1.3054 0.51334 1.2907 0.32267 1.9214 0.88002 0.64535 0.55735 0.64535 1.5254 0 1.144-0.89469 1.7454-0.88002 0.60135-2.156 0.60135-1.76 0-2.9187-1.012l0.71868-0.82135q0.98269 0.74802 2.1707 0.74802 0.76268 0 1.2027-0.30801 0.45468-0.32267 0.45468-0.86535 0-0.39601-0.16134-0.63068-0.16133-0.24934-0.55734-0.42534-0.39601-0.19067-1.1587-0.39601-1.232-0.32267-1.7894-0.86535-0.54268-0.54268-0.54268-1.3787 0-0.60135 0.35201-1.0854 0.36667-0.49868 0.99735-0.76268 0.64535-0.27867 1.4374-0.27867z"/>
 </g>
 <g fill="#28292a" aria-label="Welcome to Bugzilla">
  <path d="m275.15 133h-3.904l-4.064-18.464-4.096 18.464h-3.808l-4.48-22.048h2.976l3.552 19.392 4.256-19.392h3.232l4.352 19.392 3.68-19.392h2.784z"/>
  <path d="m295.89 124.07q0 0.736-0.064 1.504h-10.752q0.192 2.784 1.408 4.096t3.136 1.312q1.216 0 2.24-0.352t2.144-1.12l1.28 1.76q-2.688 2.112-5.888 2.112-3.52 0-5.504-2.304-1.952-2.304-1.952-6.336 0-2.624 0.832-4.64 0.864-2.048 2.432-3.2 1.6-1.152 3.744-1.152 3.36 0 5.152 2.208t1.792 6.112zm-2.912-0.864q0-2.496-0.992-3.808t-2.976-1.312q-3.616 0-3.936 5.312h7.904z"/>
  <path d="m303.79 133.38q-1.632 0-2.592-0.96-0.928-0.992-0.928-2.752v-20.32l2.944-0.352v20.608q0 0.672 0.224 1.024 0.256 0.32 0.832 0.32 0.608 0 1.088-0.192l0.768 2.048q-1.056 0.576-2.336 0.576z"/>
  <path d="m315.95 115.75q1.504 0 2.752 0.448 1.248 0.416 2.4 1.376l-1.408 1.856q-0.896-0.64-1.76-0.928-0.832-0.32-1.856-0.32-2.048 0-3.2 1.632-1.12 1.632-1.12 4.832t1.12 4.736q1.12 1.504 3.2 1.504 0.992 0 1.824-0.288 0.832-0.32 1.856-0.992l1.344 1.92q-2.304 1.856-5.152 1.856-3.424 0-5.408-2.304-1.952-2.304-1.952-6.368 0-2.688 0.896-4.704t2.528-3.136q1.664-1.12 3.936-1.12z"/>
  <path d="m330.93 115.75q3.552 0 5.504 2.368 1.984 2.368 1.984 6.432 0 2.624-0.896 4.64-0.896 1.984-2.592 3.104-1.696 1.088-4.032 1.088-3.552 0-5.536-2.368t-1.984-6.432q0-2.624 0.896-4.608 0.896-2.016 2.592-3.104 1.696-1.12 4.064-1.12zm0 2.368q-4.384 0-4.384 6.464 0 6.432 4.352 6.432t4.352-6.464q0-6.432-4.32-6.432z"/>
  <path d="m360.11 115.75q2.08 0 3.328 1.408 1.248 1.376 1.248 3.744v12.096h-2.944v-11.68q0-3.264-2.368-3.264-1.248 0-2.112 0.736-0.864 0.704-1.856 2.24v11.968h-2.944v-11.68q0-3.264-2.368-3.264-1.28 0-2.144 0.736t-1.824 2.24v11.968h-2.944v-16.864h2.528l0.256 2.464q1.888-2.848 4.864-2.848 1.568 0 2.656 0.8 1.12 0.8 1.6 2.24 0.992-1.472 2.176-2.24 1.216-0.8 2.848-0.8z"/>
  <path d="m383.22 124.07q0 0.736-0.064 1.504h-10.752q0.192 2.784 1.408 4.096t3.136 1.312q1.216 0 2.24-0.352t2.144-1.12l1.28 1.76q-2.688 2.112-5.888 2.112-3.52 0-5.504-2.304-1.952-2.304-1.952-6.336 0-2.624 0.832-4.64 0.864-2.048 2.432-3.2 1.6-1.152 3.744-1.152 3.36 0 5.152 2.208t1.792 6.112zm-2.912-0.864q0-2.496-0.992-3.808t-2.976-1.312q-3.616 0-3.936 5.312h7.904z"/>
  <path d="m404.88 132.23q-1.664 1.152-3.776 1.152-2.144 0-3.36-1.216-1.184-1.248-1.184-3.584v-10.176h-2.944v-2.272h2.944v-3.808l2.944-0.352v4.16h4l-0.32 2.272h-3.68v10.048q0 1.312 0.448 1.92 0.48 0.576 1.568 0.576 0.992 0 2.24-0.672z"/>
  <path d="m413.78 115.75q3.552 0 5.504 2.368 1.984 2.368 1.984 6.432 0 2.624-0.896 4.64-0.896 1.984-2.592 3.104-1.696 1.088-4.032 1.088-3.552 0-5.536-2.368t-1.984-6.432q0-2.624 0.896-4.608 0.896-2.016 2.592-3.104 1.696-1.12 4.064-1.12zm0 2.368q-4.384 0-4.384 6.464 0 6.432 4.352 6.432t4.352-6.464q0-6.432-4.32-6.432z"/>
  <path d="m444.5 121.35q2.272 0.384 3.68 1.6t1.408 3.776q0 6.272-8.736 6.272h-6.08v-22.048h5.216q4.192 0 6.4 1.376 2.24 1.376 2.24 4.192 0 1.92-1.216 3.2-1.184 1.28-2.912 1.632zm-6.688-8v6.944h3.328q1.92 0 3.136-0.928 1.248-0.928 1.248-2.624 0-1.92-1.312-2.656-1.28-0.736-3.904-0.736zm3.04 17.216q2.688 0 4.096-0.8 1.44-0.8 1.44-3.04 0-2.176-1.376-3.136t-3.584-0.96h-3.616v7.936z"/>
  <path d="m466.48 133h-2.528l-0.224-2.624q-0.96 1.568-2.208 2.304-1.248 0.704-3.04 0.704-2.208 0-3.456-1.344t-1.248-3.808v-12.096h2.944v11.776q0 1.728 0.608 2.464 0.608 0.704 1.984 0.704 2.464 0 4.224-2.912v-12.032h2.944z"/>
  <path d="m486.06 116.9q-0.96 0.32-2.112 0.416t-2.816 0.096q2.976 1.344 2.976 4.256 0 2.528-1.728 4.128t-4.704 1.6q-1.152 0-2.144-0.32-0.384 0.256-0.608 0.704-0.224 0.416-0.224 0.864 0 1.376 2.208 1.376h2.688q1.696 0 3.008 0.608t2.016 1.664q0.736 1.056 0.736 2.4 0 2.464-2.016 3.776-2.016 1.344-5.888 1.344-2.72 0-4.32-0.576-1.568-0.544-2.24-1.664t-0.672-2.88h2.656q0 1.024 0.384 1.6 0.384 0.608 1.376 0.896 0.992 0.32 2.816 0.32 2.656 0 3.776-0.672 1.152-0.64 1.152-1.952 0-1.184-0.896-1.792t-2.496-0.608h-2.656q-2.144 0-3.264-0.896-1.088-0.928-1.088-2.304 0-0.832 0.48-1.6t1.376-1.376q-1.472-0.768-2.176-1.888-0.672-1.152-0.672-2.784 0-1.696 0.832-3.04 0.864-1.344 2.336-2.08 1.504-0.768 3.328-0.768 1.984 0.032 3.328-0.128 1.344-0.192 2.208-0.48 0.896-0.32 2.176-0.896zm-8.576 0.96q-1.664 0-2.592 1.056-0.896 1.024-0.896 2.72 0 1.728 0.928 2.784 0.928 1.024 2.624 1.024 1.728 0 2.624-0.992 0.928-1.024 0.928-2.848 0-3.744-3.616-3.744z"/>
  <path d="m498.99 118.38-8.8 12.16h8.896l-0.352 2.464h-11.872v-2.208l8.768-12.16h-8.032v-2.496h11.392z"/>
  <path d="m505.78 133h-2.944v-16.864h2.944zm-1.504-24.96q0.928 0 1.504 0.576t0.576 1.44-0.576 1.44q-0.576 0.544-1.504 0.544-0.896 0-1.472-0.544-0.576-0.576-0.576-1.44t0.576-1.44 1.472-0.576z"/>
  <path d="m514.99 133.38q-1.632 0-2.592-0.96-0.928-0.992-0.928-2.752v-20.32l2.944-0.352v20.608q0 0.672 0.224 1.024 0.256 0.32 0.832 0.32 0.608 0 1.088-0.192l0.768 2.048q-1.056 0.576-2.336 0.576z"/>
  <path d="m524.4 133.38q-1.632 0-2.592-0.96-0.928-0.992-0.928-2.752v-20.32l2.944-0.352v20.608q0 0.672 0.224 1.024 0.256 0.32 0.832 0.32 0.608 0 1.088-0.192l0.768 2.048q-1.056 0.576-2.336 0.576z"/>
  <path d="m541.78 129.06q0 1.024 0.352 1.536 0.352 0.48 1.056 0.736l-0.672 2.048q-1.312-0.16-2.112-0.736t-1.184-1.792q-1.696 2.528-5.024 2.528-2.496 0-3.936-1.408t-1.44-3.68q0-2.688 1.92-4.128 1.952-1.44 5.504-1.44h2.592v-1.248q0-1.792-0.864-2.56t-2.656-0.768q-1.856 0-4.544 0.896l-0.736-2.144q3.136-1.152 5.824-1.152 2.976 0 4.448 1.472 1.472 1.44 1.472 4.128zm-6.912 2.112q2.528 0 3.968-2.624v-3.872h-2.208q-4.672 0-4.672 3.456 0 1.504 0.736 2.272t2.176 0.768z"/>
 </g>
 <g fill="#c8c9ca">
  <path d="m108.5 16.25c-2.8955 0-5.25 2.3545-5.25 5.25s2.3545 5.25 5.25 5.25c1.1766 0 2.2527-0.40274 3.1289-1.0586l4.8398 4.8398 1.0625-1.0625-4.8398-4.8398c0.65585-0.87624 1.0586-1.9523 1.0586-3.1289 0-2.8955-2.3545-5.25-5.25-5.25zm0 1.5c2.0905 0 3.75 1.6595 3.75 3.75s-1.6595 3.75-3.75 3.75-3.75-1.6595-3.75-3.75 1.6595-3.75 3.75-3.75z" color="#000000" color-rendering="auto" dominant-baseline="auto" image-rendering="auto" shape-rendering="auto" solid-color="#000000" stop-color="#000000" style="font-feature-settings:normal;font-variant-alternates:normal;font-variant-caps:normal;font-variant-east-asian:normal;font-variant-ligatures:normal;font-variant-numeric:normal;font-variant-position:normal;font-variation-settings:normal;inline-size:0;isolation:auto;mix-blend-mode:normal;shape-margin:0;shape-padding:0;text-decoration-color:#000000;text-decoration-line:none;text-decoration-style:solid;text-indent:0;text-orientation:mixed;text-transform:none;white-space:normal"/>
  <rect x="391" y="18" width="4" height="4" ry="0"/>
  <rect x="391" y="28" width="4" height="4"/>
  <rect x="396" y="28" width="11" height="4"/>
  <rect x="396" y="23" width="11" height="4"/>
  <rect x="391" y="23" width="4" height="4"/>
  <rect x="396" y="18" width="11" height="4"/>
  <path d="m425 18c-1.108 0-2 0.892-2 2v10c0 1.108 0.892 2 2 2h12c1.108 0 2-0.892 2-2v-10c0-1.108-0.892-2-2-2zm5 2.5c1.9304 0 3.5 1.5696 3.5 3.5 0 0.78503-0.26914 1.5015-0.70703 2.0859l2.5606 2.5605-0.70704 0.70703-2.5605-2.5605c-0.58441 0.43789-1.3009 0.70703-2.0859 0.70703-1.9304 0-3.5-1.5696-3.5-3.5s1.5696-3.5 3.5-3.5zm0 1c-1.3936 0-2.5 1.1064-2.5 2.5s1.1064 2.5 2.5 2.5 2.5-1.1064 2.5-2.5-1.1064-2.5-2.5-2.5z"/>
  <path d="m458 17c-1.108 0-2 0.892-2 2v12c0 1.108 0.892 2 2 2h10c1.108 0 2-0.892 2-2v-9.207l-4.793-4.793h-7.207zm7 1.207 3.793 3.793h-3.793zm-3 4.793h2v3h3v2h-3v3h-2v-3h-3v-2h3z"/>
  <rect x="487" y="18" width="7" height="8"/>
  <rect x="495" y="18" width="8" height="5"/>
  <rect x="495" y="24" width="8" height="8"/>
  <rect x="487" y="27" width="7" height="5"/>
  <path d="m522.71 19.293-1.4141 1.4141 3.293 3.293-3.293 3.293 1.4141 1.4141 4.707-4.707-4.707-4.707zm6 0-1.4141 1.4141 3.293 3.293-3.293 3.293 1.4141 1.4141 4.707-4.707-4.707-4.707z" color="#000000" color-rendering="auto" dominant-baseline="auto" image-rendering="auto" shape-rendering="auto" solid-color="#000000" stop-color="#000000" style="font-feature-settings:normal;font-variant-alternates:normal;font-variant-caps:normal;font-variant-east-asian:normal;font-variant-ligatures:normal;font-variant-numeric:normal;font-variant-position:normal;font-variation-settings:normal;inline-size:0;isolation:auto;mix-blend-mode:normal;shape-margin:0;shape-padding:0;text-decoration-color:#000000;text-decoration-line:none;text-decoration-style:solid;text-indent:0;text-orientation:mixed;text-transform:none;white-space:normal"/>
  <path d="m764 8c-2.216 0-4 1.784-4 4v24c0 2.216 1.784 4 4 4 0-5.0295 3.0653-9.3139 7.4356-11.104 1.3682 0.70076 2.9159 1.1035 4.5644 1.1035s3.1963-0.40275 4.5644-1.1035c4.3702 1.7896 7.4356 6.074 7.4356 11.104 2.216 0 4-1.784 4-4v-24c0-2.216-1.784-4-4-4zm12 4c4.432 0 8 3.568 8 8s-3.568 8-8 8-8-3.568-8-8 3.568-8 8-8z"/>
 </g>
 <g fill="#505152">
  <path d="m629 193a2.0002 2.0002 0 0 0-1.9941 1.8398l-1.1152 13.932c-3.3065 1.3576-6.3673 3.1794-9.1074 5.3848l-12.744-6.0566a2.0002 2.0002 0 0 0-2.5898 0.80664l-10.5 18.188a2.0002 2.0002 0 0 0 0.5957 2.6465l11.812 8.1426c-0.22971 1.6732-0.35742 3.3789-0.35742 5.1172s0.12771 3.444 0.35742 5.1172l-11.812 8.1426a2.0002 2.0002 0 0 0-0.5957 2.6465l10.5 18.188a2.0002 2.0002 0 0 0 2.5898 0.80664l12.744-6.0566c2.7401 2.2054 5.8009 4.0272 9.1074 5.3848l1.1152 13.932a2.0002 2.0002 0 0 0 1.9941 1.8398h21a2.0002 2.0002 0 0 0 1.9941-1.8398l1.082-13.527c3.5505-1.334 6.8338-3.1978 9.7637-5.4941l12.121 5.7617a2.0002 2.0002 0 0 0 2.5898-0.80664l10.5-18.188a2.0002 2.0002 0 0 0-0.5957-2.6465l-10.898-7.5117c0.28984-1.8729 0.44336-3.7914 0.44336-5.748s-0.15352-3.8751-0.44336-5.748l10.898-7.5117a2.0002 2.0002 0 0 0 0.5957-2.6465l-10.5-18.188a2.0002 2.0002 0 0 0-2.5898-0.80664l-12.121 5.7617c-2.9299-2.2963-6.2131-4.1602-9.7637-5.4941l-1.082-13.527a2.0002 2.0002 0 0 0-1.9941-1.8398h-21zm11 32c9.972 0 18 8.028 18 18s-8.028 18-18 18-18-8.028-18-18 8.028-18 18-18z"/>
  <g aria-label="Documentation">
   <path d="m118.17 311.04q2.028 0 3.25 0.949 1.235 0.936 1.235 3.484 0 2.483-1.235 3.51-1.222 1.014-2.977 1.014h-2.145v-8.957zm-0.637 0.988v6.994h1.001q1.248 0 2.028-0.767t0.78-2.782q0-1.417-0.403-2.171-0.403-0.767-1.027-1.014-0.624-0.26-1.469-0.26z"/>
   <path d="m127.18 312.99q1.443 0 2.236 0.962 0.806 0.962 0.806 2.613 0 1.066-0.364 1.885-0.364 0.806-1.053 1.261-0.689 0.442-1.638 0.442-1.443 0-2.249-0.962t-0.806-2.613q0-1.066 0.364-1.872 0.364-0.819 1.053-1.261 0.689-0.455 1.651-0.455zm0 0.962q-1.781 0-1.781 2.626 0 2.613 1.768 2.613t1.768-2.626q0-2.613-1.755-2.613z"/>
   <path d="m134.69 312.99q0.611 0 1.118 0.182 0.507 0.169 0.975 0.559l-0.572 0.754q-0.364-0.26-0.715-0.377-0.338-0.13-0.754-0.13-0.832 0-1.3 0.663-0.455 0.663-0.455 1.963t0.455 1.924q0.455 0.611 1.3 0.611 0.403 0 0.741-0.117 0.338-0.13 0.754-0.403l0.546 0.78q-0.936 0.754-2.093 0.754-1.391 0-2.197-0.936-0.793-0.936-0.793-2.587 0-1.092 0.364-1.911t1.027-1.274q0.676-0.455 1.599-0.455z"/>
   <path d="m143.31 320h-1.027l-0.091-1.066q-0.39 0.637-0.897 0.936-0.507 0.286-1.235 0.286-0.897 0-1.404-0.546t-0.507-1.547v-4.914h1.196v4.784q0 0.702 0.247 1.001 0.247 0.286 0.806 0.286 1.001 0 1.716-1.183v-4.888h1.196z"/>
   <path d="m152.58 312.99q0.845 0 1.352 0.572 0.507 0.559 0.507 1.521v4.914h-1.196v-4.745q0-1.326-0.962-1.326-0.507 0-0.858 0.299-0.351 0.286-0.754 0.91v4.862h-1.196v-4.745q0-1.326-0.962-1.326-0.52 0-0.871 0.299t-0.741 0.91v4.862h-1.196v-6.851h1.027l0.104 1.001q0.767-1.157 1.976-1.157 0.637 0 1.079 0.325 0.455 0.325 0.65 0.91 0.403-0.598 0.884-0.91 0.494-0.325 1.157-0.325z"/>
   <path d="m161.97 316.37q0 0.299-0.026 0.611h-4.368q0.078 1.131 0.572 1.664t1.274 0.533q0.494 0 0.91-0.143t0.871-0.455l0.52 0.715q-1.092 0.858-2.392 0.858-1.43 0-2.236-0.936-0.793-0.936-0.793-2.574 0-1.066 0.338-1.885 0.351-0.832 0.988-1.3 0.65-0.468 1.521-0.468 1.365 0 2.093 0.897t0.728 2.483zm-1.183-0.351q0-1.014-0.403-1.547t-1.209-0.533q-1.469 0-1.599 2.158h3.211z"/>
   <path d="m167.05 312.99q0.936 0 1.456 0.559 0.533 0.559 0.533 1.534v4.914h-1.196v-4.745q0-0.728-0.273-1.027t-0.806-0.299q-0.546 0-0.962 0.312t-0.78 0.897v4.862h-1.196v-6.851h1.027l0.104 1.014q0.364-0.546 0.897-0.858 0.546-0.312 1.196-0.312z"/>
   <path d="m174.85 319.69q-0.676 0.468-1.534 0.468-0.871 0-1.365-0.494-0.481-0.507-0.481-1.456v-4.134h-1.196v-0.923h1.196v-1.547l1.196-0.143v1.69h1.625l-0.13 0.923h-1.495v4.082q0 0.533 0.182 0.78 0.195 0.234 0.637 0.234 0.403 0 0.91-0.273z"/>
   <path d="m180.7 318.4q0 0.416 0.143 0.624 0.143 0.195 0.429 0.299l-0.273 0.832q-0.533-0.065-0.858-0.299t-0.481-0.728q-0.689 1.027-2.041 1.027-1.014 0-1.599-0.572t-0.585-1.495q0-1.092 0.78-1.677 0.793-0.585 2.236-0.585h1.053v-0.507q0-0.728-0.351-1.04t-1.079-0.312q-0.754 0-1.846 0.364l-0.299-0.871q1.274-0.468 2.366-0.468 1.209 0 1.807 0.598 0.598 0.585 0.598 1.677zm-2.808 0.858q1.027 0 1.612-1.066v-1.573h-0.897q-1.898 0-1.898 1.404 0 0.611 0.299 0.923t0.884 0.312z"/>
   <path d="m186.62 319.69q-0.676 0.468-1.534 0.468-0.871 0-1.365-0.494-0.481-0.507-0.481-1.456v-4.134h-1.196v-0.923h1.196v-1.547l1.196-0.143v1.69h1.625l-0.13 0.923h-1.495v4.082q0 0.533 0.182 0.78 0.195 0.234 0.637 0.234 0.403 0 0.91-0.273z"/>
   <path d="m189.01 320h-1.196v-6.851h1.196zm-0.611-10.14q0.377 0 0.611 0.234t0.234 0.585-0.234 0.585q-0.234 0.221-0.611 0.221-0.364 0-0.598-0.221-0.234-0.234-0.234-0.585t0.234-0.585 0.598-0.234z"/>
   <path d="m194.01 312.99q1.443 0 2.236 0.962 0.806 0.962 0.806 2.613 0 1.066-0.364 1.885-0.364 0.806-1.053 1.261-0.689 0.442-1.638 0.442-1.443 0-2.249-0.962t-0.806-2.613q0-1.066 0.364-1.872 0.364-0.819 1.053-1.261 0.689-0.455 1.651-0.455zm0 0.962q-1.781 0-1.781 2.626 0 2.613 1.768 2.613t1.768-2.626q0-2.613-1.755-2.613z"/>
   <path d="m202.22 312.99q0.936 0 1.456 0.559 0.533 0.559 0.533 1.534v4.914h-1.196v-4.745q0-0.728-0.273-1.027t-0.806-0.299q-0.546 0-0.962 0.312t-0.78 0.897v4.862h-1.196v-6.851h1.027l0.104 1.014q0.364-0.546 0.897-0.858 0.546-0.312 1.196-0.312z"/>
  </g>
  <g aria-label="Advanced Search">
   <path d="m275.4 317.75h-3.393l-0.676 2.249h-1.248l2.873-8.957h1.56l2.86 8.957h-1.3zm-0.299-1.001-1.391-4.68-1.404 4.68z"/>
   <path d="m283.92 310.39v9.607h-1.053l-0.117-0.949q-0.338 0.52-0.845 0.819-0.507 0.286-1.131 0.286-1.222 0-1.911-0.962-0.676-0.962-0.676-2.587 0-1.053 0.325-1.872t0.936-1.274q0.611-0.468 1.43-0.468 1.053 0 1.846 0.845v-3.588zm-2.886 8.814q0.546 0 0.936-0.247 0.39-0.26 0.754-0.767v-3.354q-0.338-0.442-0.728-0.663-0.377-0.234-0.858-0.234-0.793 0-1.235 0.663-0.429 0.663-0.429 1.976 0 1.326 0.403 1.976t1.157 0.65z"/>
   <path d="m289.06 320h-1.443l-2.366-6.851h1.3l1.794 5.785 1.781-5.785h1.261z"/>
   <path d="m297.3 318.4q0 0.416 0.143 0.624 0.143 0.195 0.429 0.299l-0.273 0.832q-0.533-0.065-0.858-0.299t-0.481-0.728q-0.689 1.027-2.041 1.027-1.014 0-1.599-0.572t-0.585-1.495q0-1.092 0.78-1.677 0.793-0.585 2.236-0.585h1.053v-0.507q0-0.728-0.351-1.04t-1.079-0.312q-0.754 0-1.846 0.364l-0.299-0.871q1.274-0.468 2.366-0.468 1.209 0 1.807 0.598 0.598 0.585 0.598 1.677zm-2.808 0.858q1.027 0 1.612-1.066v-1.573h-0.897q-1.898 0-1.898 1.404 0 0.611 0.299 0.923t0.884 0.312z"/>
   <path d="m302.94 312.99q0.936 0 1.456 0.559 0.533 0.559 0.533 1.534v4.914h-1.196v-4.745q0-0.728-0.273-1.027t-0.806-0.299q-0.546 0-0.962 0.312t-0.78 0.897v4.862h-1.196v-6.851h1.027l0.104 1.014q0.364-0.546 0.897-0.858 0.546-0.312 1.196-0.312z"/>
   <path d="m309.78 312.99q0.611 0 1.118 0.182 0.507 0.169 0.975 0.559l-0.572 0.754q-0.364-0.26-0.715-0.377-0.338-0.13-0.754-0.13-0.832 0-1.3 0.663-0.455 0.663-0.455 1.963t0.455 1.924q0.455 0.611 1.3 0.611 0.403 0 0.741-0.117 0.338-0.13 0.754-0.403l0.546 0.78q-0.936 0.754-2.093 0.754-1.391 0-2.197-0.936-0.793-0.936-0.793-2.587 0-1.092 0.364-1.911t1.027-1.274q0.676-0.455 1.599-0.455z"/>
   <path d="m318.46 316.37q0 0.299-0.026 0.611h-4.368q0.078 1.131 0.572 1.664t1.274 0.533q0.494 0 0.91-0.143t0.871-0.455l0.52 0.715q-1.092 0.858-2.392 0.858-1.43 0-2.236-0.936-0.793-0.936-0.793-2.574 0-1.066 0.338-1.885 0.351-0.832 0.988-1.3 0.65-0.468 1.521-0.468 1.365 0 2.093 0.897t0.728 2.483zm-1.183-0.351q0-1.014-0.403-1.547t-1.209-0.533q-1.469 0-1.599 2.158h3.211z"/>
   <path d="m325.6 310.39v9.607h-1.053l-0.117-0.949q-0.338 0.52-0.845 0.819-0.507 0.286-1.131 0.286-1.222 0-1.911-0.962-0.676-0.962-0.676-2.587 0-1.053 0.325-1.872t0.936-1.274q0.611-0.468 1.43-0.468 1.053 0 1.846 0.845v-3.588zm-2.886 8.814q0.546 0 0.936-0.247 0.39-0.26 0.754-0.767v-3.354q-0.338-0.442-0.728-0.663-0.377-0.234-0.858-0.234-0.793 0-1.235 0.663-0.429 0.663-0.429 1.976 0 1.326 0.403 1.976t1.157 0.65z"/>
   <path d="m333.75 310.89q0.897 0 1.534 0.26 0.637 0.247 1.235 0.78l-0.676 0.754q-0.507-0.403-1.001-0.585-0.481-0.195-1.04-0.195-0.702 0-1.157 0.325t-0.455 0.949q0 0.39 0.156 0.663 0.156 0.26 0.572 0.481 0.429 0.221 1.235 0.468 0.845 0.26 1.404 0.559t0.897 0.832q0.351 0.52 0.351 1.326 0 0.78-0.39 1.378-0.377 0.598-1.105 0.936-0.715 0.338-1.703 0.338-1.859 0-3.042-1.157l0.676-0.754q0.546 0.442 1.105 0.676 0.559 0.221 1.248 0.221 0.832 0 1.378-0.403 0.546-0.416 0.546-1.196 0-0.442-0.169-0.728-0.169-0.299-0.585-0.533-0.403-0.234-1.183-0.468-1.378-0.416-2.015-1.001t-0.637-1.586q0-0.676 0.351-1.209 0.364-0.533 1.001-0.832 0.65-0.299 1.469-0.299z"/>
   <path d="m343.74 316.37q0 0.299-0.026 0.611h-4.368q0.078 1.131 0.572 1.664t1.274 0.533q0.494 0 0.91-0.143t0.871-0.455l0.52 0.715q-1.092 0.858-2.392 0.858-1.43 0-2.236-0.936-0.793-0.936-0.793-2.574 0-1.066 0.338-1.885 0.351-0.832 0.988-1.3 0.65-0.468 1.521-0.468 1.365 0 2.093 0.897t0.728 2.483zm-1.183-0.351q0-1.014-0.403-1.547t-1.209-0.533q-1.469 0-1.599 2.158h3.211z"/>
   <path d="m350.18 318.4q0 0.416 0.143 0.624 0.143 0.195 0.429 0.299l-0.273 0.832q-0.533-0.065-0.858-0.299t-0.481-0.728q-0.689 1.027-2.041 1.027-1.014 0-1.599-0.572t-0.585-1.495q0-1.092 0.78-1.677 0.793-0.585 2.236-0.585h1.053v-0.507q0-0.728-0.351-1.04t-1.079-0.312q-0.754 0-1.846 0.364l-0.299-0.871q1.274-0.468 2.366-0.468 1.209 0 1.807 0.598 0.598 0.585 0.598 1.677zm-2.808 0.858q1.027 0 1.612-1.066v-1.573h-0.897q-1.898 0-1.898 1.404 0 0.611 0.299 0.923t0.884 0.312z"/>
   <path d="m355.58 312.99q0.364 0 0.676 0.078l-0.221 1.17q-0.312-0.078-0.598-0.078-0.637 0-1.027 0.468t-0.611 1.456v3.913h-1.196v-6.851h1.027l0.117 1.391q0.273-0.767 0.741-1.157t1.092-0.39z"/>
   <path d="m359.86 312.99q0.611 0 1.118 0.182 0.507 0.169 0.975 0.559l-0.572 0.754q-0.364-0.26-0.715-0.377-0.338-0.13-0.754-0.13-0.832 0-1.3 0.663-0.455 0.663-0.455 1.963t0.455 1.924q0.455 0.611 1.3 0.611 0.403 0 0.741-0.117 0.338-0.13 0.754-0.403l0.546 0.78q-0.936 0.754-2.093 0.754-1.391 0-2.197-0.936-0.793-0.936-0.793-2.587 0-1.092 0.364-1.911t1.027-1.274q0.676-0.455 1.599-0.455z"/>
   <path d="m366.75 312.99q0.936 0 1.456 0.559 0.533 0.559 0.533 1.534v4.914h-1.196v-4.745q0-0.728-0.286-1.027-0.273-0.299-0.806-0.299t-0.949 0.312-0.78 0.884v4.875h-1.196v-9.594l1.196-0.13v3.822q0.806-1.105 2.028-1.105z"/>
  </g>
  <g aria-label="New Bug">
   <path d="m462.58 320h-1.651l-3.64-7.605q0.078 0.897 0.117 1.664 0.052 0.754 0.052 1.833v4.108h-1.157v-8.957h1.612l3.679 7.618q-0.039-0.338-0.104-1.183t-0.065-1.547v-4.888h1.157z"/>
   <path d="m470.29 316.37q0 0.299-0.026 0.611h-4.368q0.078 1.131 0.572 1.664t1.274 0.533q0.494 0 0.91-0.143t0.871-0.455l0.52 0.715q-1.092 0.858-2.392 0.858-1.43 0-2.236-0.936-0.793-0.936-0.793-2.574 0-1.066 0.338-1.885 0.351-0.832 0.988-1.3 0.65-0.468 1.521-0.468 1.365 0 2.093 0.897t0.728 2.483zm-1.183-0.351q0-1.014-0.403-1.547t-1.209-0.533q-1.469 0-1.599 2.158h3.211z"/>
   <path d="m478.45 320h-1.625l-1.196-5.772-1.235 5.772h-1.586l-1.599-6.851h1.196l1.235 6.019 1.352-6.019h1.339l1.287 6.019 1.248-6.019h1.144z"/>
   <path d="m488.97 315.27q0.923 0.156 1.495 0.65t0.572 1.534q0 2.548-3.549 2.548h-2.47v-8.957h2.119q1.703 0 2.6 0.559 0.91 0.559 0.91 1.703 0 0.78-0.494 1.3-0.481 0.52-1.183 0.663zm-2.717-3.25v2.821h1.352q0.78 0 1.274-0.377 0.507-0.377 0.507-1.066 0-0.78-0.533-1.079-0.52-0.299-1.586-0.299zm1.235 6.994q1.092 0 1.664-0.325 0.585-0.325 0.585-1.235 0-0.884-0.559-1.274t-1.456-0.39h-1.469v3.224z"/>
   <path d="m497.9 320h-1.027l-0.091-1.066q-0.39 0.637-0.897 0.936-0.507 0.286-1.235 0.286-0.897 0-1.404-0.546t-0.507-1.547v-4.914h1.196v4.784q0 0.702 0.247 1.001 0.247 0.286 0.806 0.286 1.001 0 1.716-1.183v-4.888h1.196z"/>
   <path d="m505.86 313.46q-0.39 0.13-0.858 0.169t-1.144 0.039q1.209 0.546 1.209 1.729 0 1.027-0.702 1.677t-1.911 0.65q-0.468 0-0.871-0.13-0.156 0.104-0.247 0.286-0.091 0.169-0.091 0.351 0 0.559 0.897 0.559h1.092q0.689 0 1.222 0.247t0.819 0.676q0.299 0.429 0.299 0.975 0 1.001-0.819 1.534-0.819 0.546-2.392 0.546-1.105 0-1.755-0.234-0.637-0.221-0.91-0.676t-0.273-1.17h1.079q0 0.416 0.156 0.65 0.156 0.247 0.559 0.364 0.403 0.13 1.144 0.13 1.079 0 1.534-0.273 0.468-0.26 0.468-0.793 0-0.481-0.364-0.728t-1.014-0.247h-1.079q-0.871 0-1.326-0.364-0.442-0.377-0.442-0.936 0-0.338 0.195-0.65t0.559-0.559q-0.598-0.312-0.884-0.767-0.273-0.468-0.273-1.131 0-0.689 0.338-1.235 0.351-0.546 0.949-0.845 0.611-0.312 1.352-0.312 0.806 0.013 1.352-0.052 0.546-0.078 0.897-0.195 0.364-0.13 0.884-0.364zm-3.484 0.39q-0.676 0-1.053 0.429-0.364 0.416-0.364 1.105 0 0.702 0.377 1.131 0.377 0.416 1.066 0.416 0.702 0 1.066-0.403 0.377-0.416 0.377-1.157 0-1.521-1.469-1.521z"/>
  </g>
  <g aria-label="Preferences">
   <path d="m609.65 311.04q1.664 0 2.574 0.702 0.91 0.689 0.91 2.067 0 1.469-0.949 2.184t-2.522 0.715h-1.131v3.289h-1.235v-8.957zm-0.039 4.693q1.079 0 1.638-0.416 0.572-0.416 0.572-1.495 0-0.962-0.572-1.391-0.559-0.429-1.612-0.429h-1.105v3.731z"/>
   <path d="m617.57 312.99q0.364 0 0.676 0.078l-0.221 1.17q-0.312-0.078-0.598-0.078-0.637 0-1.027 0.468t-0.611 1.456v3.913h-1.196v-6.851h1.027l0.117 1.391q0.273-0.767 0.741-1.157t1.092-0.39z"/>
   <path d="m624.53 316.37q0 0.299-0.026 0.611h-4.368q0.078 1.131 0.572 1.664t1.274 0.533q0.494 0 0.91-0.143t0.871-0.455l0.52 0.715q-1.092 0.858-2.392 0.858-1.43 0-2.236-0.936-0.793-0.936-0.793-2.574 0-1.066 0.338-1.885 0.351-0.832 0.988-1.3 0.65-0.468 1.521-0.468 1.365 0 2.093 0.897t0.728 2.483zm-1.183-0.351q0-1.014-0.403-1.547t-1.209-0.533q-1.469 0-1.599 2.158h3.211z"/>
   <path d="m628.75 311.21q-0.546 0-0.78 0.247-0.234 0.234-0.234 0.741v0.949h1.664l-0.13 0.923h-1.534v5.928h-1.196v-5.928h-1.222v-0.923h1.222v-0.936q0-0.884 0.559-1.417 0.572-0.546 1.586-0.546 0.468 0 0.832 0.091 0.377 0.078 0.806 0.26l-0.377 0.871q-0.585-0.26-1.196-0.26z"/>
   <path d="m635.82 316.37q0 0.299-0.026 0.611h-4.368q0.078 1.131 0.572 1.664t1.274 0.533q0.494 0 0.91-0.143t0.871-0.455l0.52 0.715q-1.092 0.858-2.392 0.858-1.43 0-2.236-0.936-0.793-0.936-0.793-2.574 0-1.066 0.338-1.885 0.351-0.832 0.988-1.3 0.65-0.468 1.521-0.468 1.365 0 2.093 0.897t0.728 2.483zm-1.183-0.351q0-1.014-0.403-1.547t-1.209-0.533q-1.469 0-1.599 2.158h3.211z"/>
   <path d="m640.66 312.99q0.364 0 0.676 0.078l-0.221 1.17q-0.312-0.078-0.598-0.078-0.637 0-1.027 0.468t-0.611 1.456v3.913h-1.196v-6.851h1.027l0.117 1.391q0.273-0.767 0.741-1.157t1.092-0.39z"/>
   <path d="m647.61 316.37q0 0.299-0.026 0.611h-4.368q0.078 1.131 0.572 1.664t1.274 0.533q0.494 0 0.91-0.143t0.871-0.455l0.52 0.715q-1.092 0.858-2.392 0.858-1.43 0-2.236-0.936-0.793-0.936-0.793-2.574 0-1.066 0.338-1.885 0.351-0.832 0.988-1.3 0.65-0.468 1.521-0.468 1.365 0 2.093 0.897t0.728 2.483zm-1.183-0.351q0-1.014-0.403-1.547t-1.209-0.533q-1.469 0-1.599 2.158h3.211z"/>
   <path d="m652.7 312.99q0.936 0 1.456 0.559 0.533 0.559 0.533 1.534v4.914h-1.196v-4.745q0-0.728-0.273-1.027t-0.806-0.299q-0.546 0-0.962 0.312t-0.78 0.897v4.862h-1.196v-6.851h1.027l0.104 1.014q0.364-0.546 0.897-0.858 0.546-0.312 1.196-0.312z"/>
   <path d="m659.53 312.99q0.611 0 1.118 0.182 0.507 0.169 0.975 0.559l-0.572 0.754q-0.364-0.26-0.715-0.377-0.338-0.13-0.754-0.13-0.832 0-1.3 0.663-0.455 0.663-0.455 1.963t0.455 1.924q0.455 0.611 1.3 0.611 0.403 0 0.741-0.117 0.338-0.13 0.754-0.403l0.546 0.78q-0.936 0.754-2.093 0.754-1.391 0-2.197-0.936-0.793-0.936-0.793-2.587 0-1.092 0.364-1.911t1.027-1.274q0.676-0.455 1.599-0.455z"/>
   <path d="m668.22 316.37q0 0.299-0.026 0.611h-4.368q0.078 1.131 0.572 1.664t1.274 0.533q0.494 0 0.91-0.143t0.871-0.455l0.52 0.715q-1.092 0.858-2.392 0.858-1.43 0-2.236-0.936-0.793-0.936-0.793-2.574 0-1.066 0.338-1.885 0.351-0.832 0.988-1.3 0.65-0.468 1.521-0.468 1.365 0 2.093 0.897t0.728 2.483zm-1.183-0.351q0-1.014-0.403-1.547t-1.209-0.533q-1.469 0-1.599 2.158h3.211z"/>
   <path d="m671.97 312.99q0.702 0 1.261 0.195t1.066 0.585l-0.507 0.754q-0.468-0.299-0.897-0.442-0.416-0.143-0.884-0.143-0.585 0-0.923 0.247-0.338 0.234-0.338 0.65t0.312 0.65q0.325 0.234 1.157 0.455 1.144 0.286 1.703 0.78 0.572 0.494 0.572 1.352 0 1.014-0.793 1.547-0.78 0.533-1.911 0.533-1.56 0-2.587-0.897l0.637-0.728q0.871 0.663 1.924 0.663 0.676 0 1.066-0.273 0.403-0.286 0.403-0.767 0-0.351-0.143-0.559-0.143-0.221-0.494-0.377-0.351-0.169-1.027-0.351-1.092-0.286-1.586-0.767-0.481-0.481-0.481-1.222 0-0.533 0.312-0.962 0.325-0.442 0.884-0.676 0.572-0.247 1.274-0.247z"/>
  </g>
  <g opacity=".5" aria-label="Enter a bug number or some search terms">
   <path d="m185.01 377.03h-3.471v2.925h3.016v0.988h-3.016v3.068h3.718v0.988h-4.953v-8.957h4.849z"/>
   <path d="m190.24 377.99q0.936 0 1.456 0.559 0.533 0.559 0.533 1.534v4.914h-1.196v-4.745q0-0.728-0.273-1.027t-0.806-0.299q-0.546 0-0.962 0.312t-0.78 0.897v4.862h-1.196v-6.851h1.027l0.104 1.014q0.364-0.546 0.897-0.858 0.546-0.312 1.196-0.312z"/>
   <path d="m198.04 384.69q-0.676 0.468-1.534 0.468-0.871 0-1.365-0.494-0.481-0.507-0.481-1.456v-4.134h-1.196v-0.923h1.196v-1.547l1.196-0.143v1.69h1.625l-0.13 0.923h-1.495v4.082q0 0.533 0.182 0.78 0.195 0.234 0.637 0.234 0.403 0 0.91-0.273z"/>
   <path d="m204.26 381.37q0 0.299-0.026 0.611h-4.368q0.078 1.131 0.572 1.664t1.274 0.533q0.494 0 0.91-0.143t0.871-0.455l0.52 0.715q-1.092 0.858-2.392 0.858-1.43 0-2.236-0.936-0.793-0.936-0.793-2.574 0-1.066 0.338-1.885 0.351-0.832 0.988-1.3 0.65-0.468 1.521-0.468 1.365 0 2.093 0.897t0.728 2.483zm-1.183-0.351q0-1.014-0.403-1.547t-1.209-0.533q-1.469 0-1.599 2.158h3.211z"/>
   <path d="m209.09 377.99q0.364 0 0.676 0.078l-0.221 1.17q-0.312-0.078-0.598-0.078-0.637 0-1.027 0.468t-0.611 1.456v3.913h-1.196v-6.851h1.027l0.117 1.391q0.273-0.767 0.741-1.157t1.092-0.39z"/>
   <path d="m219.2 383.4q0 0.416 0.143 0.624 0.143 0.195 0.429 0.299l-0.273 0.832q-0.533-0.065-0.858-0.299t-0.481-0.728q-0.689 1.027-2.041 1.027-1.014 0-1.599-0.572t-0.585-1.495q0-1.092 0.78-1.677 0.793-0.585 2.236-0.585h1.053v-0.507q0-0.728-0.351-1.04t-1.079-0.312q-0.754 0-1.846 0.364l-0.299-0.871q1.274-0.468 2.366-0.468 1.209 0 1.807 0.598 0.598 0.585 0.598 1.677zm-2.808 0.858q1.027 0 1.612-1.066v-1.573h-0.897q-1.898 0-1.898 1.404 0 0.611 0.299 0.923t0.884 0.312z"/>
   <path d="m228.19 377.99q1.17 0 1.859 0.949 0.689 0.936 0.689 2.626 0 1.066-0.325 1.885-0.325 0.806-0.936 1.261-0.611 0.442-1.43 0.442-1.079 0-1.82-0.91l-0.117 0.754h-1.053v-9.607l1.196-0.143v3.757q0.741-1.014 1.937-1.014zm-0.429 6.214q0.793 0 1.235-0.637 0.455-0.65 0.455-2.002 0-1.391-0.416-2.002-0.416-0.624-1.183-0.624-0.91 0-1.599 1.066v3.276q0.273 0.429 0.663 0.676 0.403 0.247 0.845 0.247z"/>
   <path d="m237.76 385h-1.027l-0.091-1.066q-0.39 0.637-0.897 0.936-0.507 0.286-1.235 0.286-0.897 0-1.404-0.546t-0.507-1.547v-4.914h1.196v4.784q0 0.702 0.247 1.001 0.247 0.286 0.806 0.286 1.001 0 1.716-1.183v-4.888h1.196z"/>
   <path d="m245.72 378.46q-0.39 0.13-0.858 0.169t-1.144 0.039q1.209 0.546 1.209 1.729 0 1.027-0.702 1.677t-1.911 0.65q-0.468 0-0.871-0.13-0.156 0.104-0.247 0.286-0.091 0.169-0.091 0.351 0 0.559 0.897 0.559h1.092q0.689 0 1.222 0.247t0.819 0.676q0.299 0.429 0.299 0.975 0 1.001-0.819 1.534-0.819 0.546-2.392 0.546-1.105 0-1.755-0.234-0.637-0.221-0.91-0.676t-0.273-1.17h1.079q0 0.416 0.156 0.65 0.156 0.247 0.559 0.364 0.403 0.13 1.144 0.13 1.079 0 1.534-0.273 0.468-0.26 0.468-0.793 0-0.481-0.364-0.728t-1.014-0.247h-1.079q-0.871 0-1.326-0.364-0.442-0.377-0.442-0.936 0-0.338 0.195-0.65t0.559-0.559q-0.598-0.312-0.884-0.767-0.273-0.468-0.273-1.131 0-0.689 0.338-1.235 0.351-0.546 0.949-0.845 0.611-0.312 1.352-0.312 0.806 0.013 1.352-0.052 0.546-0.078 0.897-0.195 0.364-0.13 0.884-0.364zm-3.484 0.39q-0.676 0-1.053 0.429-0.364 0.416-0.364 1.105 0 0.702 0.377 1.131 0.377 0.416 1.066 0.416 0.702 0 1.066-0.403 0.377-0.416 0.377-1.157 0-1.521-1.469-1.521z"/>
   <path d="m253.58 377.99q0.936 0 1.456 0.559 0.533 0.559 0.533 1.534v4.914h-1.196v-4.745q0-0.728-0.273-1.027t-0.806-0.299q-0.546 0-0.962 0.312t-0.78 0.897v4.862h-1.196v-6.851h1.027l0.104 1.014q0.364-0.546 0.897-0.858 0.546-0.312 1.196-0.312z"/>
   <path d="m262.97 385h-1.027l-0.091-1.066q-0.39 0.637-0.897 0.936-0.507 0.286-1.235 0.286-0.897 0-1.404-0.546t-0.507-1.547v-4.914h1.196v4.784q0 0.702 0.247 1.001 0.247 0.286 0.806 0.286 1.001 0 1.716-1.183v-4.888h1.196z"/>
   <path d="m272.24 377.99q0.845 0 1.352 0.572 0.507 0.559 0.507 1.521v4.914h-1.196v-4.745q0-1.326-0.962-1.326-0.507 0-0.858 0.299-0.351 0.286-0.754 0.91v4.862h-1.196v-4.745q0-1.326-0.962-1.326-0.52 0-0.871 0.299t-0.741 0.91v4.862h-1.196v-6.851h1.027l0.104 1.001q0.767-1.157 1.976-1.157 0.637 0 1.079 0.325 0.455 0.325 0.65 0.91 0.403-0.598 0.884-0.91 0.494-0.325 1.157-0.325z"/>
   <path d="m279.54 377.99q1.17 0 1.859 0.949 0.689 0.936 0.689 2.626 0 1.066-0.325 1.885-0.325 0.806-0.936 1.261-0.611 0.442-1.43 0.442-1.079 0-1.82-0.91l-0.117 0.754h-1.053v-9.607l1.196-0.143v3.757q0.741-1.014 1.937-1.014zm-0.429 6.214q0.793 0 1.235-0.637 0.455-0.65 0.455-2.002 0-1.391-0.416-2.002-0.416-0.624-1.183-0.624-0.91 0-1.599 1.066v3.276q0.273 0.429 0.663 0.676 0.403 0.247 0.845 0.247z"/>
   <path d="m289.24 381.37q0 0.299-0.026 0.611h-4.368q0.078 1.131 0.572 1.664t1.274 0.533q0.494 0 0.91-0.143t0.871-0.455l0.52 0.715q-1.092 0.858-2.392 0.858-1.43 0-2.236-0.936-0.793-0.936-0.793-2.574 0-1.066 0.338-1.885 0.351-0.832 0.988-1.3 0.65-0.468 1.521-0.468 1.365 0 2.093 0.897t0.728 2.483zm-1.183-0.351q0-1.014-0.403-1.547t-1.209-0.533q-1.469 0-1.599 2.158h3.211z"/>
   <path d="m294.08 377.99q0.364 0 0.676 0.078l-0.221 1.17q-0.312-0.078-0.598-0.078-0.637 0-1.027 0.468t-0.611 1.456v3.913h-1.196v-6.851h1.027l0.117 1.391q0.273-0.767 0.741-1.157t1.092-0.39z"/>
   <path d="m302.14 377.99q1.443 0 2.236 0.962 0.806 0.962 0.806 2.613 0 1.066-0.364 1.885-0.364 0.806-1.053 1.261-0.689 0.442-1.638 0.442-1.443 0-2.249-0.962t-0.806-2.613q0-1.066 0.364-1.872 0.364-0.819 1.053-1.261 0.689-0.455 1.651-0.455zm0 0.962q-1.781 0-1.781 2.626 0 2.613 1.768 2.613t1.768-2.626q0-2.613-1.755-2.613z"/>
   <path d="m310.09 377.99q0.364 0 0.676 0.078l-0.221 1.17q-0.312-0.078-0.598-0.078-0.637 0-1.027 0.468t-0.611 1.456v3.913h-1.196v-6.851h1.027l0.117 1.391q0.273-0.767 0.741-1.157t1.092-0.39z"/>
   <path d="m317.44 377.99q0.702 0 1.261 0.195t1.066 0.585l-0.507 0.754q-0.468-0.299-0.897-0.442-0.416-0.143-0.884-0.143-0.585 0-0.923 0.247-0.338 0.234-0.338 0.65t0.312 0.65q0.325 0.234 1.157 0.455 1.144 0.286 1.703 0.78 0.572 0.494 0.572 1.352 0 1.014-0.793 1.547-0.78 0.533-1.911 0.533-1.56 0-2.587-0.897l0.637-0.728q0.871 0.663 1.924 0.663 0.676 0 1.066-0.273 0.403-0.286 0.403-0.767 0-0.351-0.143-0.559-0.143-0.221-0.494-0.377-0.351-0.169-1.027-0.351-1.092-0.286-1.586-0.767-0.481-0.481-0.481-1.222 0-0.533 0.312-0.962 0.325-0.442 0.884-0.676 0.572-0.247 1.274-0.247z"/>
   <path d="m324.22 377.99q1.443 0 2.236 0.962 0.806 0.962 0.806 2.613 0 1.066-0.364 1.885-0.364 0.806-1.053 1.261-0.689 0.442-1.638 0.442-1.443 0-2.249-0.962t-0.806-2.613q0-1.066 0.364-1.872 0.364-0.819 1.053-1.261 0.689-0.455 1.651-0.455zm0 0.962q-1.781 0-1.781 2.626 0 2.613 1.768 2.613t1.768-2.626q0-2.613-1.755-2.613z"/>
   <path d="m336.08 377.99q0.845 0 1.352 0.572 0.507 0.559 0.507 1.521v4.914h-1.196v-4.745q0-1.326-0.962-1.326-0.507 0-0.858 0.299-0.351 0.286-0.754 0.91v4.862h-1.196v-4.745q0-1.326-0.962-1.326-0.52 0-0.871 0.299t-0.741 0.91v4.862h-1.196v-6.851h1.027l0.104 1.001q0.767-1.157 1.976-1.157 0.637 0 1.079 0.325 0.455 0.325 0.65 0.91 0.403-0.598 0.884-0.91 0.494-0.325 1.157-0.325z"/>
   <path d="m345.46 381.37q0 0.299-0.026 0.611h-4.368q0.078 1.131 0.572 1.664t1.274 0.533q0.494 0 0.91-0.143t0.871-0.455l0.52 0.715q-1.092 0.858-2.392 0.858-1.43 0-2.236-0.936-0.793-0.936-0.793-2.574 0-1.066 0.338-1.885 0.351-0.832 0.988-1.3 0.65-0.468 1.521-0.468 1.365 0 2.093 0.897t0.728 2.483zm-1.183-0.351q0-1.014-0.403-1.547t-1.209-0.533q-1.469 0-1.599 2.158h3.211z"/>
   <path d="m352.67 377.99q0.702 0 1.261 0.195t1.066 0.585l-0.507 0.754q-0.468-0.299-0.897-0.442-0.416-0.143-0.884-0.143-0.585 0-0.923 0.247-0.338 0.234-0.338 0.65t0.312 0.65q0.325 0.234 1.157 0.455 1.144 0.286 1.703 0.78 0.572 0.494 0.572 1.352 0 1.014-0.793 1.547-0.78 0.533-1.911 0.533-1.56 0-2.587-0.897l0.637-0.728q0.871 0.663 1.924 0.663 0.676 0 1.066-0.273 0.403-0.286 0.403-0.767 0-0.351-0.143-0.559-0.143-0.221-0.494-0.377-0.351-0.169-1.027-0.351-1.092-0.286-1.586-0.767-0.481-0.481-0.481-1.222 0-0.533 0.312-0.962 0.325-0.442 0.884-0.676 0.572-0.247 1.274-0.247z"/>
   <path d="m362.05 381.37q0 0.299-0.026 0.611h-4.368q0.078 1.131 0.572 1.664t1.274 0.533q0.494 0 0.91-0.143t0.871-0.455l0.52 0.715q-1.092 0.858-2.392 0.858-1.43 0-2.236-0.936-0.793-0.936-0.793-2.574 0-1.066 0.338-1.885 0.351-0.832 0.988-1.3 0.65-0.468 1.521-0.468 1.365 0 2.093 0.897t0.728 2.483zm-1.183-0.351q0-1.014-0.403-1.547t-1.209-0.533q-1.469 0-1.599 2.158h3.211z"/>
   <path d="m368.5 383.4q0 0.416 0.143 0.624 0.143 0.195 0.429 0.299l-0.273 0.832q-0.533-0.065-0.858-0.299t-0.481-0.728q-0.689 1.027-2.041 1.027-1.014 0-1.599-0.572t-0.585-1.495q0-1.092 0.78-1.677 0.793-0.585 2.236-0.585h1.053v-0.507q0-0.728-0.351-1.04t-1.079-0.312q-0.754 0-1.846 0.364l-0.299-0.871q1.274-0.468 2.366-0.468 1.209 0 1.807 0.598 0.598 0.585 0.598 1.677zm-2.808 0.858q1.027 0 1.612-1.066v-1.573h-0.897q-1.898 0-1.898 1.404 0 0.611 0.299 0.923t0.884 0.312z"/>
   <path d="m373.9 377.99q0.364 0 0.676 0.078l-0.221 1.17q-0.312-0.078-0.598-0.078-0.637 0-1.027 0.468t-0.611 1.456v3.913h-1.196v-6.851h1.027l0.117 1.391q0.273-0.767 0.741-1.157t1.092-0.39z"/>
   <path d="m378.17 377.99q0.611 0 1.118 0.182 0.507 0.169 0.975 0.559l-0.572 0.754q-0.364-0.26-0.715-0.377-0.338-0.13-0.754-0.13-0.832 0-1.3 0.663-0.455 0.663-0.455 1.963t0.455 1.924q0.455 0.611 1.3 0.611 0.403 0 0.741-0.117 0.338-0.13 0.754-0.403l0.546 0.78q-0.936 0.754-2.093 0.754-1.391 0-2.197-0.936-0.793-0.936-0.793-2.587 0-1.092 0.364-1.911t1.027-1.274q0.676-0.455 1.599-0.455z"/>
   <path d="m385.06 377.99q0.936 0 1.456 0.559 0.533 0.559 0.533 1.534v4.914h-1.196v-4.745q0-0.728-0.286-1.027-0.273-0.299-0.806-0.299t-0.949 0.312-0.78 0.884v4.875h-1.196v-9.594l1.196-0.13v3.822q0.806-1.105 2.028-1.105z"/>
   <path d="m396.31 384.69q-0.676 0.468-1.534 0.468-0.871 0-1.365-0.494-0.481-0.507-0.481-1.456v-4.134h-1.196v-0.923h1.196v-1.547l1.196-0.143v1.69h1.625l-0.13 0.923h-1.495v4.082q0 0.533 0.182 0.78 0.195 0.234 0.637 0.234 0.403 0 0.91-0.273z"/>
   <path d="m402.52 381.37q0 0.299-0.026 0.611h-4.368q0.078 1.131 0.572 1.664t1.274 0.533q0.494 0 0.91-0.143t0.871-0.455l0.52 0.715q-1.092 0.858-2.392 0.858-1.43 0-2.236-0.936-0.793-0.936-0.793-2.574 0-1.066 0.338-1.885 0.351-0.832 0.988-1.3 0.65-0.468 1.521-0.468 1.365 0 2.093 0.897t0.728 2.483zm-1.183-0.351q0-1.014-0.403-1.547t-1.209-0.533q-1.469 0-1.599 2.158h3.211z"/>
   <path d="m407.36 377.99q0.364 0 0.676 0.078l-0.221 1.17q-0.312-0.078-0.598-0.078-0.637 0-1.027 0.468t-0.611 1.456v3.913h-1.196v-6.851h1.027l0.117 1.391q0.273-0.767 0.741-1.157t1.092-0.39z"/>
   <path d="m416.24 377.99q0.845 0 1.352 0.572 0.507 0.559 0.507 1.521v4.914h-1.196v-4.745q0-1.326-0.962-1.326-0.507 0-0.858 0.299-0.351 0.286-0.754 0.91v4.862h-1.196v-4.745q0-1.326-0.962-1.326-0.52 0-0.871 0.299t-0.741 0.91v4.862h-1.196v-6.851h1.027l0.104 1.001q0.767-1.157 1.976-1.157 0.637 0 1.079 0.325 0.455 0.325 0.65 0.91 0.403-0.598 0.884-0.91 0.494-0.325 1.157-0.325z"/>
   <path d="m422.31 377.99q0.702 0 1.261 0.195t1.066 0.585l-0.507 0.754q-0.468-0.299-0.897-0.442-0.416-0.143-0.884-0.143-0.585 0-0.923 0.247-0.338 0.234-0.338 0.65t0.312 0.65q0.325 0.234 1.157 0.455 1.144 0.286 1.703 0.78 0.572 0.494 0.572 1.352 0 1.014-0.793 1.547-0.78 0.533-1.911 0.533-1.56 0-2.587-0.897l0.637-0.728q0.871 0.663 1.924 0.663 0.676 0 1.066-0.273 0.403-0.286 0.403-0.767 0-0.351-0.143-0.559-0.143-0.221-0.494-0.377-0.351-0.169-1.027-0.351-1.092-0.286-1.586-0.767-0.481-0.481-0.481-1.222 0-0.533 0.312-0.962 0.325-0.442 0.884-0.676 0.572-0.247 1.274-0.247z"/>
  </g>
 </g>
 <g fill="#fff" aria-label="Quick Search">
  <path d="m545.23 384.49q0.715 0 1.3 0.221 0.585 0.208 1.131 0.585l-0.806 1.04q-0.78-0.689-1.482-0.949t-1.898-0.26q-1.118 0-1.963-0.52-0.845-0.533-1.326-1.56-0.468-1.04-0.468-2.509 0-1.443 0.468-2.496 0.481-1.053 1.339-1.599 0.858-0.559 1.976-0.559 1.131 0 1.976 0.546 0.858 0.533 1.326 1.573 0.481 1.04 0.481 2.522 0 1.573-0.52 2.509-0.52 0.923-1.534 1.456zm-4.199-3.952q0 1.859 0.65 2.73 0.663 0.871 1.82 0.871 2.47 0 2.47-3.614 0-3.627-2.47-3.627-1.17 0-1.82 0.884t-0.65 2.756z"/>
  <path d="m554.26 385h-1.027l-0.091-1.066q-0.39 0.637-0.897 0.936-0.507 0.286-1.235 0.286-0.897 0-1.404-0.546t-0.507-1.547v-4.914h1.196v4.784q0 0.702 0.247 1.001 0.247 0.286 0.806 0.286 1.001 0 1.716-1.183v-4.888h1.196z"/>
  <path d="m557.85 385h-1.196v-6.851h1.196zm-0.611-10.14q0.377 0 0.611 0.234t0.234 0.585-0.234 0.585q-0.234 0.221-0.611 0.221-0.364 0-0.598-0.221-0.234-0.234-0.234-0.585t0.234-0.585 0.598-0.234z"/>
  <path d="m562.78 377.99q0.611 0 1.118 0.182 0.507 0.169 0.975 0.559l-0.572 0.754q-0.364-0.26-0.715-0.377-0.338-0.13-0.754-0.13-0.832 0-1.3 0.663-0.455 0.663-0.455 1.963t0.455 1.924q0.455 0.611 1.3 0.611 0.403 0 0.741-0.117 0.338-0.13 0.754-0.403l0.546 0.78q-0.936 0.754-2.093 0.754-1.391 0-2.197-0.936-0.793-0.936-0.793-2.587 0-1.092 0.364-1.911t1.027-1.274q0.676-0.455 1.599-0.455z"/>
  <path d="m567.64 385h-1.196v-9.607l1.196-0.143zm1.417-3.822 2.808 3.822h-1.43l-2.717-3.744 2.522-3.107h1.339z"/>
  <path d="m578.82 375.89q0.897 0 1.534 0.26 0.637 0.247 1.235 0.78l-0.676 0.754q-0.507-0.403-1.001-0.585-0.481-0.195-1.04-0.195-0.702 0-1.157 0.325t-0.455 0.949q0 0.39 0.156 0.663 0.156 0.26 0.572 0.481 0.429 0.221 1.235 0.468 0.845 0.26 1.404 0.559t0.897 0.832q0.351 0.52 0.351 1.326 0 0.78-0.39 1.378-0.377 0.598-1.105 0.936-0.715 0.338-1.703 0.338-1.859 0-3.042-1.157l0.676-0.754q0.546 0.442 1.105 0.676 0.559 0.221 1.248 0.221 0.832 0 1.378-0.403 0.546-0.416 0.546-1.196 0-0.442-0.169-0.728-0.169-0.299-0.585-0.533-0.403-0.234-1.183-0.468-1.378-0.416-2.015-1.001t-0.637-1.586q0-0.676 0.351-1.209 0.364-0.533 1.001-0.832 0.65-0.299 1.469-0.299z"/>
  <path d="m588.8 381.37q0 0.299-0.026 0.611h-4.368q0.078 1.131 0.572 1.664t1.274 0.533q0.494 0 0.91-0.143t0.871-0.455l0.52 0.715q-1.092 0.858-2.392 0.858-1.43 0-2.236-0.936-0.793-0.936-0.793-2.574 0-1.066 0.338-1.885 0.351-0.832 0.988-1.3 0.65-0.468 1.521-0.468 1.365 0 2.093 0.897t0.728 2.483zm-1.183-0.351q0-1.014-0.403-1.547t-1.209-0.533q-1.469 0-1.599 2.158h3.211z"/>
  <path d="m595.25 383.4q0 0.416 0.143 0.624 0.143 0.195 0.429 0.299l-0.273 0.832q-0.533-0.065-0.858-0.299t-0.481-0.728q-0.689 1.027-2.041 1.027-1.014 0-1.599-0.572t-0.585-1.495q0-1.092 0.78-1.677 0.793-0.585 2.236-0.585h1.053v-0.507q0-0.728-0.351-1.04t-1.079-0.312q-0.754 0-1.846 0.364l-0.299-0.871q1.274-0.468 2.366-0.468 1.209 0 1.807 0.598 0.598 0.585 0.598 1.677zm-2.808 0.858q1.027 0 1.612-1.066v-1.573h-0.897q-1.898 0-1.898 1.404 0 0.611 0.299 0.923t0.884 0.312z"/>
  <path d="m600.65 377.99q0.364 0 0.676 0.078l-0.221 1.17q-0.312-0.078-0.598-0.078-0.637 0-1.027 0.468t-0.611 1.456v3.913h-1.196v-6.851h1.027l0.117 1.391q0.273-0.767 0.741-1.157t1.092-0.39z"/>
  <path d="m604.92 377.99q0.611 0 1.118 0.182 0.507 0.169 0.975 0.559l-0.572 0.754q-0.364-0.26-0.715-0.377-0.338-0.13-0.754-0.13-0.832 0-1.3 0.663-0.455 0.663-0.455 1.963t0.455 1.924q0.455 0.611 1.3 0.611 0.403 0 0.741-0.117 0.338-0.13 0.754-0.403l0.546 0.78q-0.936 0.754-2.093 0.754-1.391 0-2.197-0.936-0.793-0.936-0.793-2.587 0-1.092 0.364-1.911t1.027-1.274q0.676-0.455 1.599-0.455z"/>
  <path d="m611.81 377.99q0.936 0 1.456 0.559 0.533 0.559 0.533 1.534v4.914h-1.196v-4.745q0-0.728-0.286-1.027-0.273-0.299-0.806-0.299t-0.949 0.312-0.78 0.884v4.875h-1.196v-9.594l1.196-0.13v3.822q0.806-1.105 2.028-1.105z"/>
 </g>
</svg>
