<?xml version="1.0" encoding="UTF-8"?>
<svg width="100" height="100" version="1.1" viewBox="0 0 100 100" xmlns="http://www.w3.org/2000/svg" xmlns:cc="http://creativecommons.org/ns#" xmlns:dc="http://purl.org/dc/elements/1.1/" xmlns:rdf="http://www.w3.org/1999/02/22-rdf-syntax-ns#">
 <metadata>
  <rdf:RDF>
   <cc:Work rdf:about="">
    <dc:format>image/svg+xml</dc:format>
    <dc:type rdf:resource="http://purl.org/dc/dcmitype/StillImage"/>
    <dc:title/>
   </cc:Work>
  </rdf:RDF>
 </metadata>
 <g transform="translate(0 2)">
  <g transform="matrix(1.3333 0 0 -1.3333 -9 280.67)">
   <g transform="matrix(.23077 0 0 .23077 6.9231 146.92)" stroke-width="2">
    <rect transform="scale(1,-1)" x="9" y="-191" width="78" height="78" ry="9.75" fill="#00249c" stroke-linecap="round" stroke-linejoin="round" stroke-width="5.6693"/>
    <path d="m57.75 171.5c-5.3843 0-9.75-4.3657-9.75-9.75 0-5.3851-4.3649-9.75-9.75-9.75s-9.75-4.3657-9.75-9.75v-29.25h19.5v29.25c0 5.3843 4.3657 9.75 9.75 9.75h29.25v19.5z" fill="#fff"/>
   </g>
   <g fill="#00249c" stroke-linecap="round" stroke-linejoin="round">
    <path transform="matrix(.75 0 0 -.75 0 200)" d="m76.5 18c-0.277 0-0.5 0.223-0.5 0.5v8.5c0 1.662 1.338 3 3 3h3.5c0.277 0 0.5-0.223 0.5-0.5v-1c0-0.277-0.223-0.5-0.5-0.5h-3.5c-0.554 0-1-0.446-1-1v-8.5c0-0.277-0.223-0.5-0.5-0.5h-1z" stroke-width="3.7795"/>
    <g transform="matrix(.5 0 0 .5 -24 227.5)" stroke-width="5.6693">
     <rect transform="scale(1,-1)" x="141" y="82" width="3" height="3" ry=".75"/>
     <rect transform="scale(1,-1)" x="141" y="88" width="3" height="12" ry=".75"/>
    </g>
    <g transform="matrix(.5 0 0 .5 -24 227.5)" stroke-width="5.6693">
     <rect transform="scale(1,-1)" x="175.5" y="82" width="3" height="3" ry=".75"/>
     <rect transform="scale(1,-1)" x="175.5" y="88" width="3" height="12" ry=".75"/>
    </g>
    <path d="m31.875 186.5c-0.20775 0-0.375-0.16725-0.375-0.375v-0.75c0-0.20775 0.16725-0.375 0.375-0.375h1.6875c0.10388 0 0.1875-0.0836 0.1875-0.1875v-6.9375c0-0.20775 0.16725-0.375 0.375-0.375h0.75c0.20775 0 0.375 0.16725 0.375 0.375v6.9375c0 0.10388 0.08362 0.1875 0.1875 0.1875h1.6875c0.20775 0 0.375 0.16725 0.375 0.375v0.75c0 0.20775-0.16725 0.375-0.375 0.375z" stroke-width="2.8346"/>
    <path transform="matrix(.75 0 0 -.75 0 200)" d="m52.5 18c-0.277 0-0.5 0.223-0.5 0.5v11c0 0.277 0.223 0.5 0.5 0.5h1c0.277 0 0.5-0.223 0.5-0.5v-5.25c0-0.13851 0.11149-0.25 0.25-0.25h2.75c0.554 0 1 0.446 1 1v4.5c0 0.277 0.223 0.5 0.5 0.5h1c0.277 0 0.5-0.223 0.5-0.5v-4.5c0-1.662-1.338-3-3-3h-2.75c-0.1385 0-0.25-0.11147-0.25-0.25v-3.25c0-0.277-0.223-0.5-0.5-0.5z" stroke-width="3.7795"/>
    <path transform="matrix(.75 0 0 -.75 0 200)" d="m102 22c-1.662 0-3 1.338-3 3v2c0 1.662 1.338 3 3 3h3c0.277 0 0.5-0.223 0.5-0.5v-1c0-0.277-0.223-0.5-0.5-0.5h-3c-0.554 0-1-0.446-1-1v-2c0-0.554 0.446-1 1-1h3c0.277 0 0.5-0.223 0.5-0.5v-1c0-0.277-0.223-0.5-0.5-0.5h-3z" stroke-width="3.7795"/>
    <path d="m49.875 183.5c-0.20775 0-0.375-0.16725-0.375-0.375v-5.25c0-0.20775 0.16725-0.375 0.375-0.375h0.75c0.20775 0 0.375 0.16725 0.375 0.375v3.9375c0 0.10388 0.08362 0.1875 0.1875 0.1875h2.0625c0.4155 0 0.75-0.3345 0.75-0.75v-3.375c0-0.20775 0.16725-0.375 0.375-0.375h0.75c0.20775 0 0.375 0.16725 0.375 0.375v3.375c0 1.2465-1.0035 2.25-2.25 2.25z" stroke-width="2.8346"/>
    <path d="m67.125 183.5c-0.20775 0-0.375-0.16725-0.375-0.375v-5.25c0-0.20775 0.16725-0.375 0.375-0.375h0.75c0.20775 0 0.375 0.16725 0.375 0.375v3.9375c0 0.10388 0.08362 0.1875 0.1875 0.1875h2.0625c0.4155 0 0.75-0.3345 0.75-0.75v-3.375c0-0.20775 0.16725-0.375 0.375-0.375h0.75c0.20775 0 0.375 0.16725 0.375 0.375v3.375c0 1.2465-1.0035 2.25-2.25 2.25h-3.375z" stroke-width="2.8346"/>
   </g>
  </g>
  <g transform="translate(-4,-18)">
   <g transform="matrix(.25 0 0 .25 39 76)" stroke-linecap="round" stroke-linejoin="round">
    <g stroke-width="1.5">
     <path d="m15 0c-2.7614 0-5 2.2386-5 5s-2.2386 5-5 5-5 2.2386-5 5v18c0 2.7614 2.2386 5 5 5s5 2.2386 5 5 2.2386 5 5 5h18c2.7614 0 5-2.2386 5-5s2.2386-5 5-5 5-2.2386 5-5-2.2386-5-5-5-5 2.2386-5 5-2.2386 5-5 5h-18a5 5 0 0 1 -5 -5v-18c0-2.7614 2.2386-5 5-5h18c2.7614 0 5 2.2386 5 5s2.2386 5 5 5 5-2.2386 5-5-2.2386-5-5-5-5-2.2386-5-5-2.2386-5-5-5z"/>
     <path d="m65 12a5 5 0 0 0 -5 5v14a5 5 0 0 0 5 5h9a1 1 0 0 0 1 -1v-2a1 1 0 0 0 -1 -1h-9a1 1 0 0 1 -1 -1v-14a1 1 0 0 1 1 -1h9a1 1 0 0 0 1 -1v-2a1 1 0 0 0 -1 -1z"/>
     <path d="m85 19.998c-2.7614 0-5 2.2386-5 5v6.002c0 2.7614 2.2386 5 5 5h8c0.55228 0 1-0.44772 1-1v-2c0-0.55228-0.44772-1-1-1h-8c-0.55228 0-1-0.44772-1-1v-1.004c0-0.27614 0.22386-0.5 0.5-0.5h10.5c0.55228 0 1-0.44772 1-1v-3.498c0-2.7614-2.2386-5-5-5zm0 4h6c0.55228 0 1 0.44772 1 1v0.998c0 0.27587-0.22413 0.5-0.5 0.5h-7c-0.27614 0-0.5-0.22386-0.5-0.5v-0.998c0-0.55228 0.44772-1 1-1z"/>
    </g>
    <g stroke-width="3.7795">
     <path d="m101 20c-0.554 0-1 0.446-1 1v14c0 0.554 1 1 1 1h2s1-0.446 1-1v-10.5c0-0.277 0.223-0.5 0.5-0.5h6.5c0.554 0 1 0.446 1 1v10c0 0.554 0.446 1 1 1h2c0.554 0 1-0.446 1-1v-10c0-2.77-2.23-5-5-5z"/>
     <rect x="140" y="12" width="4" height="4" rx="1" ry="1"/>
     <rect x="140" y="20" width="4" height="16" rx="1" ry="1"/>
    </g>
    <path d="m133 12c-0.55228 0-1 0.44773-1 1v6.498c0 0.27614-0.22386 0.5-0.5 0.5h-6.502c-2.7614 0-5 2.2386-5 5v6.002c0 2.7614 2.2386 5 5 5h10.002c0.55228 0 1-0.44773 1-1v-22c0-0.55227-0.44772-1-1-1zm-8.002 11.998h6.502c0.27614 0 0.5 0.22386 0.5 0.5v7.002c0 0.27614-0.22386 0.5-0.5 0.5h-6.502c-0.55228 0-1-0.44772-1-1v-6.002c0-0.55228 0.44772-1 1-1z" stroke-width="1.5"/>
    <path d="m153 20c-2.7614 0-5 2.2386-5 5v6c0 2.7614 2.2386 5 5 5h6c2.7614 0 5-2.2386 5-5v-6c0-2.7614-2.2386-5-5-5zm0 4h6c0.55228 0 1 0.44772 1 1v6c0 0.55228-0.44772 1-1 1h-6c-0.55228 0-1-0.44772-1-1v-6c0-0.55228 0.44772-1 1-1z" stroke-width="1.5"/>
   </g>
   <g transform="translate(.38486 .039551)" stroke-width="1px" aria-label="by">
    <path d="m27.343 81.392q0.224-0.392 0.656-0.64t0.984-0.248q0.592 0 1.064 0.28t0.744 0.792q0.272 0.504 0.272 1.176 0 0.664-0.272 1.184t-0.752 0.808q-0.472 0.288-1.056 0.288-0.568 0-1-0.248-0.424-0.248-0.64-0.632v0.808h-0.728v-5.92h0.728zm2.976 1.36q0-0.496-0.2-0.864t-0.544-0.56q-0.336-0.192-0.744-0.192-0.4 0-0.744 0.2-0.336 0.192-0.544 0.568-0.2 0.368-0.2 0.856 0 0.496 0.2 0.872 0.208 0.368 0.544 0.568 0.344 0.192 0.744 0.192 0.408 0 0.744-0.192 0.344-0.2 0.544-0.568 0.2-0.376 0.2-0.88z"/>
    <path d="m35.797 80.576-2.64 6.448h-0.752l0.864-2.112-1.768-4.336h0.808l1.376 3.552 1.36-3.552z"/>
   </g>
  </g>
 </g>
</svg>
