<?xml version="1.0" encoding="UTF-8" standalone="no"?>
<!-- Created with Inkscape (http://www.inkscape.org/) -->

<svg
   version="1.1"
   id="svg2"
   xml:space="preserve"
   viewBox="0 0 184 48"
   xmlns="http://www.w3.org/2000/svg"
   xmlns:svg="http://www.w3.org/2000/svg"><defs
     id="defs6" /><g
     id="g8"
     transform="matrix(1.3333333,0,0,-1.3333333,-1.8666666e-7,266.66667)"><g
       id="g1331"
       transform="translate(-18,18.000001)"><g
         id="g1887"
         transform="matrix(0.46153846,0,0,0.46153846,13.846154,93.846161)"><rect
           style="fill:#00249c;stroke-width:2.83465;stroke-linecap:round;stroke-linejoin:round"
           id="rect1640"
           width="78"
           height="78"
           x="9"
           y="-191"
           transform="scale(1,-1)"
           ry="9.75" /><path
           d="m 57.750001,171.50001 c -5.38434,0 -9.75,-4.36566 -9.75,-9.75 0,-5.38512 -4.36488,-9.75 -9.75,-9.75 -5.38512,0 -9.75,-4.36566 -9.75,-9.75 v -29.25 h 19.5 v 29.25 c 0,5.38434 4.36566,9.75 9.75,9.75 h 29.250001 v 19.5 z"
           style="fill:#ffffff;fill-opacity:1;fill-rule:nonzero;stroke:none;stroke-width:0.78"
           id="path28-3" /></g><g
         id="g1313"><g
           id="g16917"
           transform="translate(-47.249998,255)"><rect
             style="fill:#00249c;fill-opacity:1;stroke-width:2.83465;stroke-linecap:round;stroke-linejoin:round"
             id="rect6984"
             width="3"
             height="3"
             x="141"
             y="82"
             transform="scale(1,-1)"
             ry="0.75" /><rect
             style="fill:#00249c;fill-opacity:1;stroke-width:2.83465;stroke-linecap:round;stroke-linejoin:round"
             id="rect9382"
             height="12.75"
             x="141"
             y="87.249992"
             transform="scale(1,-1)"
             ry="0.75"
             width="3" /></g><g
           id="g16921"
           transform="translate(-49.499997,255)"><rect
             style="fill:#00249c;fill-opacity:1;stroke-width:2.83465;stroke-linecap:round;stroke-linejoin:round"
             id="rect9300"
             width="3"
             height="3"
             x="175.5"
             y="82"
             transform="scale(1,-1)"
             ry="0.75" /><rect
             style="fill:#00249c;fill-opacity:1;stroke-width:2.83465;stroke-linecap:round;stroke-linejoin:round"
             id="rect9566"
             width="3"
             height="12.75"
             x="175.5"
             y="87.249992"
             transform="scale(1,-1)"
             ry="0.75" /></g><path
           id="rect9954"
           style="fill:#00249c;fill-opacity:1;stroke-width:2.83465;stroke-linecap:round;stroke-linejoin:round"
           d="m 63.750001,173.00001 c -0.4155,0 -0.75,-0.3345 -0.75,-0.75 v -1.5 c 0,-0.4155 0.3345,-0.75 0.75,-0.75 h 4.125001 c 0.20775,0 0.375,-0.16725 0.375,-0.375 v -13.875 c 0,-0.4155 0.3345,-0.75 0.75,-0.75 h 1.5 c 0.4155,0 0.75,0.3345 0.75,0.75 v 13.875 c 0,0.20775 0.16725,0.375 0.375,0.375 h 4.125 c 0.4155,0 0.75,0.3345 0.75,0.75 v 1.5 c 0,0.4155 -0.3345,0.75 -0.75,0.75 z" /><path
           id="rect10178"
           style="fill:#00249c;fill-opacity:1;stroke-width:2.83465;stroke-linecap:round;stroke-linejoin:round"
           d="m 80.250002,173.00001 c -0.4155,0 -0.75,-0.3345 -0.75,-0.75 v -16.5 c 0,-0.4155 0.3345,-0.75 0.75,-0.75 h 1.5 c 0.4155,0 0.75,0.3345 0.75,0.75 v 8.625 c 0,0.20775 0.16725,0.375 0.375,0.375 h 4.125 c 0.4155,0 0.75,-0.3345 0.75,-0.75 v -8.25 c 0,-0.4155 0.3345,-0.75 0.75,-0.75 h 1.5 c 0.4155,0 0.75,0.3345 0.75,0.75 v 8.25 c 0,2.0775 -1.6725,3.75 -3.75,3.75 h -4.125 c -0.20775,0 -0.375,0.16725 -0.375,0.375 v 4.125 c 0,0.4155 -0.3345,0.75 -0.75,0.75 z" /><path
           id="rect10180"
           style="fill:#00249c;fill-opacity:1;stroke-width:2.83465;stroke-linecap:round;stroke-linejoin:round"
           d="m 114.75,173.00001 c -0.4155,0 -0.75,-0.3345 -0.75,-0.75 v -13.5 c 0,-2.0775 1.6725,-3.75 3.75,-3.75 H 123 c 0.4155,0 0.75,0.3345 0.75,0.75 v 1.5 c 0,0.4155 -0.3345,0.75 -0.75,0.75 h -5.25 c -0.4155,0 -0.75,0.3345 -0.75,0.75 v 13.5 c 0,0.4155 -0.3345,0.75 -0.75,0.75 z" /><path
           id="rect10264"
           style="fill:#00249c;fill-opacity:1;stroke-width:2.83465;stroke-linecap:round;stroke-linejoin:round"
           d="m 100.5,167.75001 c -0.4155,0 -0.749997,-0.3345 -0.749997,-0.75 v -11.25 c 0,-0.4155 0.334497,-0.75 0.749997,-0.75 h 1.5 c 0.4155,0 0.75,0.3345 0.75,0.75 v 8.625 c 0,0.20775 0.16725,0.375 0.375,0.375 h 4.125 c 0.4155,0 0.75,-0.3345 0.75,-0.75 v -8.25 c 0,-0.4155 0.3345,-0.75 0.75,-0.75 h 1.5 c 0.4155,0 0.75,0.3345 0.75,0.75 v 8.25 c 0,2.0775 -1.6725,3.75 -3.75,3.75 z" /><path
           id="path13363"
           style="fill:#00249c;fill-opacity:1;stroke-width:2.83465;stroke-linecap:round;stroke-linejoin:round"
           d="m 132.75,167.75001 c -0.4155,0 -0.75,-0.3345 -0.75,-0.75 v -11.25 c 0,-0.4155 0.3345,-0.75 0.75,-0.75 h 1.5 c 0.4155,0 0.75,0.3345 0.75,0.75 v 8.625 c 0,0.20775 0.16725,0.375 0.375,0.375 h 4.125 c 0.4155,0 0.75,-0.3345 0.75,-0.75 v -8.25 c 0,-0.4155 0.3345,-0.75 0.75,-0.75 h 1.5 c 0.4155,0 0.75,0.3345 0.75,0.75 v 8.25 c 0,2.0775 -1.6725,3.75 -3.75,3.75 z" /><path
           id="rect10368"
           style="fill:#00249c;fill-opacity:1;stroke-width:2.83465;stroke-linecap:round;stroke-linejoin:round"
           d="m 150,167.75001 c -2.0775,0 -3.75,-1.6725 -3.75,-3.75 v -5.25 c 0,-2.0775 1.6725,-3.75 3.75,-3.75 h 5.25 c 0.4155,0 0.75,0.3345 0.75,0.75 v 1.5 c 0,0.4155 -0.3345,0.75 -0.75,0.75 H 150 c -0.4155,0 -0.75,0.3345 -0.75,0.75 v 5.25 c 0,0.4155 0.3345,0.75 0.75,0.75 h 5.25 c 0.4155,0 0.75,0.3345 0.75,0.75 v 1.5 c 0,0.4155 -0.3345,0.75 -0.75,0.75 z" /></g></g></g></svg>
