<?xml version="1.0" encoding="UTF-8"?>
<!-- Created with Inkscape (http://www.inkscape.org/) -->
<svg width="175" height="100" version="1.1" viewBox="0 0 175 100" xmlns="http://www.w3.org/2000/svg">
 <g stroke-width="2.4293">
  <path d="m43.793 19.689c-7.1992 0-12.885 2.3745-17.066 7.1094h34.055c-4.1292-4.7349-9.7891-7.1094-16.988-7.1094zm-19.191 9.9219c-3.7247 5.8343-5.5879 13.96-5.5879 24.379 0 8.1673 1.1606 14.942 3.4766 20.33v-5.1035a1.8192 1.8192 0 0 1 0.33984-1.0566l11.959-16.752c0.07287-4.3482 0.32761-7.9089 0.77344-10.641h-9.1426a1.8192 1.8192 0 0 1-1.8184-1.8184v-9.3379zm38.49 0.3125v8.8066a1.8192 1.8192 0 0 1-0.33398 1.0488l-9.9297 14.088c3.5e-5 0.043269 0.001953 0.07964 0.001953 0.12305 0 5.2858-0.2759 9.4992-0.79688 12.754h9.8203a1.8192 1.8192 0 0 1 1.8047 2.0527l-1.3594 10.445c4.1795-5.9489 6.2734-14.364 6.2734-25.252 0-10.236-1.8297-18.255-5.4805-24.066zm-2.0215 50.934a1.8192 1.8192 0 0 1-0.59961 0.14648h-33.912c4.1965 4.9175 9.9377 7.3848 17.234 7.3848 7.3692 0 13.125-2.5155 17.277-7.5312z"/>
  <path d="m136.07 27.309c-4.6081 0-8.6817 1.0412-12.223 3.127-3.5409 2.0858-6.3062 5.1182-8.2949 9.0957-1.9888 3.9775-2.9824 8.732-2.9824 14.262 0 5.6752 0.9699 10.525 2.9102 14.551 1.9402 3.9775 4.6797 7.0099 8.2207 9.0957 3.5895 2.0373 7.7858 3.0547 12.588 3.0547 3.2499 0 6.2566-0.62946 9.0215-1.8906 2.8134-1.2612 5.2144-2.8862 7.2031-4.875l-5.9648-7.5664c-1.7462 1.3582-3.3713 2.3994-4.875 3.127-1.4552 0.67909-3.0565 1.0195-4.8027 1.0195-3.2499 0-5.7974-1.3579-7.6406-4.0742-1.7947-2.7163-2.6914-6.8632-2.6914-12.441 0-5.5782 0.89667-9.7508 2.6914-12.516 1.7947-2.7649 4.2927-4.1465 7.4941-4.1465 1.6007 0 3.105 0.29097 4.5117 0.87305 1.4067 0.58208 2.8615 1.4312 4.3652 2.5469l6.3301-7.4941c-2.2313-1.8917-4.6323-3.3228-7.2031-4.293-2.5708-0.97012-5.4568-1.4551-8.6582-1.4551zm-109.65 1.3086v10.332h19.5l-21.609 30.268v9.9688h36.16l1.3828-10.623h-21.609l21.027-29.832v-10.113h-34.852zm44.457 0v50.568h17.025c7.1304 0 12.685-1.0926 16.662-3.2754 3.9775-2.2313 5.9648-6.0872 5.9648-11.568 0-3.6865-1.0412-6.426-3.127-8.2207-2.0858-1.7947-4.8272-3.0318-8.2227-3.7109 2.6193-0.67908 4.8026-1.8924 6.5488-3.6387 1.7947-1.7947 2.6914-4.172 2.6914-7.1309 0-4.6566-1.9398-7.978-5.8203-9.9668-3.832-2.0373-9.3862-3.0566-16.662-3.0566h-15.061zm13.459 9.3867h2.8379c2.6678 0 4.5839 0.38797 5.748 1.1641 1.2127 0.7761 1.8203 2.0607 1.8203 3.8555-1e-6 1.9402-0.55819 3.3476-1.6738 4.2207-1.1156 0.87311-2.8634 1.3086-5.2402 1.3086h-3.4922v-10.549zm0 19.207h4.3672c2.5708 0 4.5344 0.51067 5.8926 1.5293 1.3582 0.97012 2.0371 2.5695 2.0371 4.8008 1e-6 2.3283-0.72841 3.9296-2.1836 4.8027-1.4552 0.8246-3.6127 1.2363-6.4746 1.2363h-3.6387v-12.369z"/>
  <path d="m72.354 4.1367c-2.5336 0.053715-4.8116 1.8977-5.291 4.4727-0.54794 2.9428 1.4401 5.8407 4.3828 6.3887 1.6904 0.31476 3.3659-0.20835 4.5898-1.2676 0.50857 0.7343 0.90434 1.736 1.1445 2.9746 0.53358 2.7515 0.23411 6.5159-0.45898 10.094h4.6387c0.96809-2.0386 2.3013-4.0414 3.8711-5.1953 1.2562-0.9234 2.5679-1.4532 4.2598-1.1797-0.41599 2.8682 1.5463 5.6411 4.418 6.1758 2.9428 0.54795 5.8407-1.4401 6.3887-4.3828 0.54794-2.9428-1.4401-5.8407-4.3828-6.3887-1.7299-0.32212-3.4451 0.2323-4.6758 1.3418-1.0294-0.26037-2.0304-0.35797-2.9863-0.31641-1.9605 0.08525-3.7323 0.75731-5.1758 1.8184-0.72174 0.53052-1.3748 1.1339-1.9648 1.7871 0.01855-1.537-0.08581-3.0366-0.35938-4.4473-0.37794-1.9489-1.0895-3.7671-2.3828-5.1855-0.15456-0.16952-0.3189-0.33187-0.49024-0.48633 0.37876-2.8459-1.5769-5.5825-4.4277-6.1133-0.36784-0.068493-0.73571-0.097517-1.0977-0.089844z"/>
 </g>
 <text x="48.734459" y="92.710754" fill="#9141ac" font-family="sans-serif" font-size="8.3116px" stroke-width=".20779" style="line-height:1.25" xml:space="preserve"><tspan x="48.734459" y="92.710754" fill="#9141ac" font-family="Inter" stroke-width=".20779"/></text>
</svg>
